<svg height="512" viewBox="0 0 74 74" width="512" xmlns="http://www.w3.org/2000/svg"><g id="line_icons" data-name="line icons"><path d="m37 36.632a8.677 8.677 0 1 1 8.677-8.676 8.687 8.687 0 0 1 -8.677 8.676zm0-15.353a6.677 6.677 0 1 0 6.677 6.677 6.684 6.684 0 0 0 -6.677-6.677z"/><path d="m37 33.368a5.413 5.413 0 1 1 5.413-5.412 5.419 5.419 0 0 1 -5.413 5.412zm0-8.825a3.413 3.413 0 1 0 3.413 3.413 3.417 3.417 0 0 0 -3.413-3.413z"/><path d="m37 66.944a13.658 13.658 0 1 1 13.658-13.658 13.674 13.674 0 0 1 -13.658 13.658zm0-25.316a11.658 11.658 0 1 0 11.658 11.658 11.672 11.672 0 0 0 -11.658-11.658z"/><path d="m37 62.234a8.948 8.948 0 1 1 8.947-8.948 8.958 8.958 0 0 1 -8.947 8.948zm0-15.9a6.948 6.948 0 1 0 6.947 6.947 6.956 6.956 0 0 0 -6.947-6.942z"/><path d="m22.454 22.739a2.777 2.777 0 1 1 2.776-2.777 2.78 2.78 0 0 1 -2.776 2.777zm0-3.554a.777.777 0 1 0 .776.777.778.778 0 0 0 -.776-.777z"/><path d="m22.454 68.584a2.777 2.777 0 1 1 2.776-2.776 2.78 2.78 0 0 1 -2.776 2.776zm0-3.553a.777.777 0 1 0 .776.777.777.777 0 0 0 -.776-.777z"/><path d="m51.546 22.739a2.777 2.777 0 1 1 2.777-2.777 2.78 2.78 0 0 1 -2.777 2.777zm0-3.554a.777.777 0 1 0 .777.777.778.778 0 0 0 -.777-.777z"/><path d="m51.546 68.584a2.777 2.777 0 1 1 2.777-2.776 2.78 2.78 0 0 1 -2.777 2.776zm0-3.553a.777.777 0 1 0 .777.777.777.777 0 0 0 -.777-.777z"/><path d="m52.759 72h-31.518a4.887 4.887 0 0 1 -4.882-4.882v-48.466a4.888 4.888 0 0 1 4.882-4.883h31.518a4.888 4.888 0 0 1 4.882 4.883v48.466a4.887 4.887 0 0 1 -4.882 4.882zm-31.518-56.231a2.886 2.886 0 0 0 -2.882 2.883v48.466a2.885 2.885 0 0 0 2.882 2.882h31.518a2.885 2.885 0 0 0 2.882-2.882v-48.466a2.886 2.886 0 0 0 -2.882-2.883z"/><path d="m14.919 14.845a1.059 1.059 0 0 1 -.193-.018 1 1 0 0 1 -.789-1.174 3.2 3.2 0 0 1 3.751-2.522 1 1 0 0 1 -.385 1.963 1.2 1.2 0 0 0 -1.4.944 1 1 0 0 1 -.984.807z"/><path d="m5.022 13.559a.979.979 0 0 1 -.193-.019 1 1 0 0 1 -.789-1.174 13.814 13.814 0 0 1 16.2-10.884 1 1 0 0 1 -.384 1.963 11.81 11.81 0 0 0 -13.856 9.306 1 1 0 0 1 -.978.808z"/><path d="m9.778 14.492a.979.979 0 0 1 -.193-.019 1 1 0 0 1 -.785-1.173 8.961 8.961 0 0 1 10.5-7.062 1 1 0 1 1 -.382 1.962 6.958 6.958 0 0 0 -8.159 5.483 1 1 0 0 1 -.981.809z"/></g></svg>