<svg height="512" viewBox="0 0 512 512" width="512" xmlns="http://www.w3.org/2000/svg" xmlns:xlink="http://www.w3.org/1999/xlink"><linearGradient id="New_Gradient_Swatch_12" gradientUnits="userSpaceOnUse" x1="18.152" x2="102.698" y1="354.273" y2="269.727"><stop offset=".011" stop-color="#80d1cb"/><stop offset="1" stop-color="#bfe8e5"/></linearGradient><linearGradient id="New_Gradient_Swatch_12-2" x1="409.302" x2="493.848" xlink:href="#New_Gradient_Swatch_12" y1="354.273" y2="269.727"/><linearGradient id="New_Gradient_Swatch_3" gradientUnits="userSpaceOnUse" x1="43.515" x2="132.485" y1="356.485" y2="267.515"><stop offset=".011" stop-color="#606082"/><stop offset="1" stop-color="#83839e"/></linearGradient><linearGradient id="New_Gradient_Swatch_3-2" gradientTransform="matrix(1 0 0 -1 336 624)" x1="132.485" x2="43.515" xlink:href="#New_Gradient_Swatch_3" y1="356.485" y2="267.515"/><linearGradient id="New_Gradient_Swatch_13" gradientUnits="userSpaceOnUse" x1="157.035" x2="362.006" y1="398.006" y2="193.035"><stop offset="0" stop-color="#d46669"/><stop offset="1" stop-color="#dd888a"/></linearGradient><linearGradient id="New_Gradient_Swatch_8" gradientUnits="userSpaceOnUse" x1="202.077" x2="324.006" y1="452.965" y2="331.035"><stop offset=".011" stop-color="#fad46a"/><stop offset="1" stop-color="#fce6aa"/></linearGradient><linearGradient id="New_Gradient_Swatch_5" gradientUnits="userSpaceOnUse" x1="208.277" x2="271.723" y1="251.168" y2="187.723"><stop offset=".011" stop-color="#f8c73f"/><stop offset="1" stop-color="#fada7f"/></linearGradient><g id="_06-audio_book" data-name="06-audio book"><g id="gradient"><path d="m416 284a12 12 0 0 1 -12-12v-80c0-81.607-66.393-148-148-148s-148 66.393-148 148v80a12 12 0 0 1 -24 0v-80c0-94.841 77.159-172 172-172s172 77.159 172 172v80a12 12 0 0 1 -12 12z" fill="#cacad5"/><path d="m72 244a68 68 0 0 0 0 136 12 12 0 0 0 12-12v-112a12 12 0 0 0 -12-12z" fill="url(#New_Gradient_Swatch_12)"/><path d="m440 244a12 12 0 0 0 -12 12v112a12 12 0 0 0 12 12 68 68 0 0 0 0-136z" fill="url(#New_Gradient_Swatch_12-2)"/><rect fill="url(#New_Gradient_Swatch_3)" height="144" rx="12" width="48" x="64" y="240"/><rect fill="url(#New_Gradient_Swatch_3-2)" height="144" rx="12" transform="matrix(-1 0 0 -1 848 624)" width="48" x="400" y="240"/><path d="m344 180h-152a36.04 36.04 0 0 0 -36 36v176a12 12 0 0 0 12 12h176a12 12 0 0 0 12-12l-4-16 4-8v-176a12 12 0 0 0 -12-12z" fill="url(#New_Gradient_Swatch_13)"/><path d="m344 356h-152a36 36 0 0 0 0 72h152a12 12 0 0 0 12-12v-48a12 12 0 0 0 -12-12z" fill="url(#New_Gradient_Swatch_8)"/><path d="m254.532 261.293-14.532-10.293-14.532 10.293a6 6 0 0 1 -9.468-4.893v-76.4h48v76.4a6 6 0 0 1 -9.468 4.893z" fill="url(#New_Gradient_Swatch_5)"/></g></g></svg>