<svg height="512" viewBox="0 0 74 74" width="512" xmlns="http://www.w3.org/2000/svg"><g id="color_line" data-name="color line"><path d="m69.7 25.653v35.27a4.46 4.46 0 0 1 -4.465 4.465h-59.073a4.46 4.46 0 0 1 -4.462-4.465v-35.27a4.46 4.46 0 0 1 4.465-4.465h26.574l1.677-5.8a3.8 3.8 0 0 1 3.649-2.754h15.425a3.811 3.811 0 0 1 3.661 2.754l1.666 5.8h6.415a4.46 4.46 0 0 1 4.468 4.465z" fill="#eeefee"/><path d="m66.367 34.938h3.333v-9.288a4.443 4.443 0 0 0 -3.37-4.32 3.52 3.52 0 0 1 .04.56z" fill="#e1e6e9"/><path d="m66.367 52.5v4.66a4.46 4.46 0 0 1 -4.46 4.47h-59.07a4.42 4.42 0 0 1 -1.1-.14 4.448 4.448 0 0 0 4.43 3.9h59.06a4.462 4.462 0 0 0 4.47-4.47v-8.42z" fill="#e1e6e9"/><path d="m51.007 18.217h-10.458a.5.5 0 0 1 0-1h10.458a.5.5 0 0 1 0 1z" fill="#323c6b"/><path d="m29.211 35.355h-27.514v17h28.012" fill="#9297ab"/><path d="m29.709 52.854h-28.009a.5.5 0 0 1 -.5-.5v-17a.5.5 0 0 1 .5-.5h27.511a.5.5 0 0 1 0 1h-27.011v16h27.509a.5.5 0 1 1 0 1z" fill="#323c6b"/><path d="m62.345 35.355h7.352v17h-7.851" fill="#9297ab"/><path d="m16.393 16.336h-3.646a2.071 2.071 0 0 0 -2.071 2.071v2.781h7.787v-2.782a2.071 2.071 0 0 0 -2.07-2.07z" fill="#bbbbcd"/><g fill="#323c6b"><path d="m18.463 21.688h-7.787a.5.5 0 0 1 -.5-.5v-2.782a2.573 2.573 0 0 1 2.57-2.57h3.646a2.573 2.573 0 0 1 2.571 2.57v2.782a.5.5 0 0 1 -.5.5zm-7.287-1h6.787v-2.282a1.572 1.572 0 0 0 -1.571-1.57h-3.645a1.572 1.572 0 0 0 -1.57 1.57z"/><path d="m8.741 13.095a.5.5 0 0 1 -.4-.2l-1.23-1.669a.5.5 0 0 1 .8-.594l1.232 1.668a.5.5 0 0 1 -.4.8z"/><path d="m14.57 11.181a.5.5 0 0 1 -.5-.5v-2.069a.5.5 0 0 1 1 0v2.068a.5.5 0 0 1 -.5.501z"/><path d="m20.4 13.095a.5.5 0 0 1 -.4-.8l1.227-1.666a.5.5 0 0 1 .8.593l-1.227 1.669a.5.5 0 0 1 -.4.204z"/><path d="m32.113 68.888h-11.75a.5.5 0 0 1 0-1h11.75a.5.5 0 0 1 0 1z"/><path d="m16.03 68.888h-.708a.5.5 0 1 1 0-1h.708a.5.5 0 1 1 0 1z"/><path d="m50.03 10.131h-.583a.5.5 0 0 1 0-1h.583a.5.5 0 0 1 0 1z"/><path d="m60.269 15.875a.5.5 0 0 1 -.48-.362l-.238-.83a6.35 6.35 0 0 0 -6.06-4.552h-1.419a.5.5 0 0 1 0-1h1.418a7.356 7.356 0 0 1 7.021 5.269l.239.832a.5.5 0 0 1 -.48.638z"/></g><circle cx="45.779" cy="42.725" fill="#9297ab" r="18.13"/><path d="m45.779 61.354a18.63 18.63 0 1 1 18.63-18.63 18.651 18.651 0 0 1 -18.63 18.63zm0-36.26a17.63 17.63 0 1 0 17.63 17.63 17.65 17.65 0 0 0 -17.63-17.629z" fill="#323c6b"/><path d="m58.407 55.72a18.125 18.125 0 0 0 -27.32-23.62 18.126 18.126 0 1 1 27.32 23.62z" fill="#84879c"/><path d="m45.78 56.137a13.412 13.412 0 1 1 13.412-13.412 13.428 13.428 0 0 1 -13.412 13.412z" fill="#89c5cd"/><path d="m45.779 56.637a13.912 13.912 0 1 1 13.912-13.912 13.927 13.927 0 0 1 -13.912 13.912zm0-26.824a12.912 12.912 0 1 0 12.912 12.912 12.926 12.926 0 0 0 -12.912-12.912z" fill="#323c6b"/><path d="m66.367 35.75h3.33v16.188h-3.33z" fill="#84879c"/><path d="m65.231 65.888h-59.069a4.971 4.971 0 0 1 -4.962-4.966v-35.269a4.971 4.971 0 0 1 4.965-4.965h26.2l1.573-5.441a4.311 4.311 0 0 1 4.13-3.115h15.422a4.286 4.286 0 0 1 4.141 3.114l1.563 5.443h6.038a4.971 4.971 0 0 1 4.968 4.964v35.269a4.971 4.971 0 0 1 -4.969 4.966zm-59.069-44.2a3.97 3.97 0 0 0 -3.962 3.965v35.269a3.97 3.97 0 0 0 3.965 3.965h59.066a3.97 3.97 0 0 0 3.969-3.965v-35.269a3.97 3.97 0 0 0 -3.965-3.965h-6.418a.5.5 0 0 1 -.48-.362l-1.666-5.8a3.292 3.292 0 0 0 -3.18-2.392h-15.426a3.308 3.308 0 0 0 -3.165 2.388l-1.678 5.8a.5.5 0 0 1 -.48.361z" fill="#323c6b"/><path d="m69.7 52.854h-7.854a.5.5 0 0 1 0-1h7.354v-16h-6.855a.5.5 0 0 1 0-1h7.355a.5.5 0 0 1 .5.5v17a.5.5 0 0 1 -.5.5z" fill="#323c6b"/><path d="m45.779 61.354a18.63 18.63 0 1 1 18.63-18.63 18.651 18.651 0 0 1 -18.63 18.63zm0-36.26a17.63 17.63 0 1 0 17.63 17.63 17.65 17.65 0 0 0 -17.63-17.629z" fill="#323c6b"/><path d="m20.7 47.978a.736.736 0 0 1 -.485 1.29h-.581a.737.737 0 1 1 0-1.473h.581a.734.734 0 0 1 .485.183z" fill="#fff"/><path d="m17.37 47.977a.736.736 0 0 1 -.485 1.29l-10.6.029a.737.737 0 1 1 0-1.473l10.6-.029a.734.734 0 0 1 .485.183z" fill="#fff"/></g></svg>