<svg id="Capa_1" enable-background="new 0 0 512 512" height="512" viewBox="0 0 512 512" width="512" xmlns="http://www.w3.org/2000/svg"><g><path d="m391 61v60c0 8.401-6.599 15-15 15s-15-6.599-15-15v-60c0-8.401-6.599-15-15-15h-180c-8.401 0-15 6.599-15 15v60c0 8.401-6.599 15-15 15s-15-6.599-15-15v-60c0-24.901 20.099-45 45-45h180c24.901 0 45 20.099 45 45z" fill="#e2dff4"/><path d="m391 61v60c0 8.401-6.599 15-15 15s-15-6.599-15-15v-60c0-8.401-6.599-15-15-15h-90v-30h90c24.901 0 45 20.099 45 45z" fill="#bebcdd"/><path d="m467 136v330l-15 30h-392l-15-30v-330l15-30h392z" fill="#f3f5f9"/><path d="m467 136v330l-15 30h-196v-390h196z" fill="#e2dff4"/><path d="m256 196c-57.9 0-105 47.1-105 105s47.1 105 105 105 105-47.1 105-105-47.1-105-105-105z" fill="#ff6b6b"/><path d="m361 301c0 57.9-47.1 105-105 105v-210c57.9 0 105 47.1 105 105z" fill="#e62e77"/><path d="m467 106h-15v390h15c24.814 0 45-20.186 45-45v-300c0-24.814-20.186-45-45-45z" fill="#e62e77"/><path d="m45 106c-24.814 0-45 20.186-45 45v300c0 24.814 20.186 45 45 45h15v-390z" fill="#ff6b6b"/><path d="m301 301c0 8.401-6.599 15-15 15h-15v15c0 8.401-6.599 15-15 15s-15-6.599-15-15v-15h-15c-8.401 0-15-6.599-15-15s6.599-15 15-15h15v-15c0-8.401 6.599-15 15-15s15 6.599 15 15v15h15c8.401 0 15 6.599 15 15z" fill="#f3f5f9"/><path d="m301 301c0 8.401-6.599 15-15 15h-15v15c0 8.401-6.599 15-15 15v-90c8.401 0 15 6.599 15 15v15h15c8.401 0 15 6.599 15 15z" fill="#e2dff4"/></g></svg>