<svg id="Layer_1" enable-background="new 0 0 512 512" height="512" viewBox="0 0 512 512" width="512" xmlns="http://www.w3.org/2000/svg"><g><g><g><g><g><g id="XMLID_1660_"><g id="XMLID_1661_"><g id="XMLID_1662_"><g id="XMLID_1663_"><g id="XMLID_1664_"><g id="XMLID_1665_"><g id="XMLID_1666_"><g id="XMLID_1667_"><g id="XMLID_1668_"><g id="XMLID_1669_"><g id="XMLID_1670_"><g id="XMLID_1671_"><g id="XMLID_1672_"><g id="XMLID_1673_"><g id="XMLID_1674_"><circle cx="256" cy="256" fill="#e8e8e8" r="256"/></g></g></g></g></g></g></g></g></g></g></g></g></g></g></g></g></g></g></g><path d="m512 256c0-24.094-3.335-47.409-9.557-69.513l-30.883-30.883-278.843-31.995-107.517 106.225 54.939 55.531-2.009 127.747 98.139 98.139c6.512.496 13.092.75 19.731.75 141.385-.001 256-114.616 256-256.001z" fill="#ccc"/><g><path d="m192.717 78.934h116.566v67.259h-116.566z" fill="#6c2ac4"/><path d="m251 78.93h58.28v67.26h-58.28z" fill="#4a0099"/><path d="m471.56 155.604-54.76 74.23-52.93-29.21v212.488h-225.74v-212.488l-52.93 29.21-54.76-74.23 103.32-66.43c10.4-6.68 22.51-10.24 34.87-10.24h38.78v15.1c0 23.77 19.28 43.05 43.06 43.05h1.06c23.78 0 43.06-19.28 43.06-43.05v-15.1h38.78c12.36 0 24.47 3.56 34.87 10.24z" fill="#ff6cce"/><path d="m471.56 155.6-54.76 74.23-52.93-29.21v212.49h-112.87v-276.03h.53c23.78 0 43.06-19.28 43.06-43.05v-15.1h38.78c12.36 0 24.47 3.56 34.87 10.24z" fill="#e020aa"/><ellipse cx="363.87" cy="343.644" fill="#ffcb48" rx="95.418" ry="95.418" transform="matrix(.707 -.707 .707 .707 -136.418 357.946)"/><path d="m459.29 343.646c0 52.7-42.72 95.42-95.42 95.42v-190.84c52.7 0 95.42 42.72 95.42 95.42z" fill="#ffa015"/><g><g><path d="m310.614 335.226h107.672v15h-107.672z" fill="#474d54" transform="matrix(.387 -.922 .922 .387 -92.61 546.15)"/></g><g><path d="m392.2 295.986-28.33 67.5v-38.75l14.5-34.55z" fill="#282e33"/></g><g><path d="m339.653 340.345c-12.873 0-23.346-11.625-23.346-25.914s10.473-25.914 23.346-25.914 23.346 11.625 23.346 25.914-10.473 25.914-23.346 25.914zm0-36.828c-4.524 0-8.346 4.998-8.346 10.914s3.822 10.914 8.346 10.914 8.346-4.998 8.346-10.914-3.822-10.914-8.346-10.914z" fill="#474d54"/></g><g><path d="m388.087 398.77c-12.873 0-23.346-11.625-23.346-25.914s10.473-25.914 23.346-25.914 23.346 11.625 23.346 25.914-10.473 25.914-23.346 25.914zm0-36.828c-4.524 0-8.346 4.998-8.346 10.914 0 5.915 3.822 10.914 8.346 10.914s8.346-4.998 8.346-10.914-3.822-10.914-8.346-10.914z" fill="#282e33"/></g></g></g></g></svg>