<?xml version="1.0" encoding="utf-8"?>
<!-- Generator: Adobe Illustrator 23.0.1, SVG Export Plug-In . SVG Version: 6.00 Build 0)  -->
<svg version="1.1" id="Capa_1" xmlns="http://www.w3.org/2000/svg" xmlns:xlink="http://www.w3.org/1999/xlink" x="0px" y="0px"
	 viewBox="0 0 19.3 19.3" style="enable-background:new 0 0 19.3 19.3;" xml:space="preserve">
<style type="text/css">
	.st0{fill:#FFFFFF;}
</style>
<g>
	<path class="st0" d="M15.5,17.3c-0.2,0.2-0.5,0.3-0.7,0.5h-0.7c0-0.3,0-0.5-0.1-0.7c-0.4-2-2.2-3.6-4.3-3.6s-4,1.5-4.3,3.6
		c-0.1,0.2-0.1,0.5-0.1,0.7H4.6c-0.2-0.2-0.5-0.3-0.7-0.5c0-0.4,0.1-0.8,0.2-1.1c0.7-2.4,2.9-4.1,5.6-4.1s4.9,1.7,5.6,4.1
		C15.3,16.6,15.4,16.9,15.5,17.3z"/>
	<path class="st0" d="M9.7,4C7.6,4,5.8,5.7,5.8,7.8s1.7,3.8,3.8,3.8s3.8-1.7,3.8-3.8S11.8,4,9.7,4z M9.7,10.3
		c-1.3,0-2.4-1.1-2.4-2.4c0-1.3,1.1-2.4,2.4-2.4c1.3,0,2.4,1.1,2.4,2.4C12.1,9.2,11,10.3,9.7,10.3z"/>
</g>
<path class="st0" d="M9.7,0.1c-5.3,0-9.6,4.3-9.6,9.6c0,3.1,1.5,5.9,3.8,7.6c0.2,0.2,0.5,0.3,0.7,0.5c1.5,0.9,3.2,1.5,5.1,1.5
	s3.6-0.5,5.1-1.5c0.2-0.2,0.5-0.3,0.7-0.5c2.3-1.8,3.8-4.5,3.8-7.6C19.3,4.4,15,0.1,9.7,0.1z M15.2,16.2c-0.4,0.3-0.8,0.6-1.2,0.9
	c-1.3,0.8-2.8,1.2-4.3,1.2s-3.1-0.4-4.3-1.2c-0.4-0.3-0.9-0.6-1.2-0.9c-1.8-1.6-3-3.9-3-6.5c0-4.7,3.9-8.6,8.6-8.6s8.6,3.8,8.6,8.6
	C18.3,12.3,17.1,14.6,15.2,16.2z"/>
</svg>
