<?xml version="1.0" encoding="utf-8"?>
<!-- Generator: Adobe Illustrator 23.0.1, SVG Export Plug-In . SVG Version: 6.00 Build 0)  -->
<svg version="1.1" id="Layer_1" xmlns="http://www.w3.org/2000/svg" xmlns:xlink="http://www.w3.org/1999/xlink" x="0px" y="0px"
	 viewBox="0 0 300 300" style="enable-background:new 0 0 300 300;" xml:space="preserve">
<style type="text/css">
	.st0{fill:#F68D51;}
	.st1{fill:#FFF8DD;}
	.st2{fill:#F2C379;}
	.st3{fill:#FFCF82;}
	.st4{fill:#FFFFFF;}
	.st5{fill:#F99C23;}
	.st6{fill:#B3DBF4;}
	.st7{fill:#EE2F24;}
	.st8{fill:#F04E41;}
	.st9{fill:#FDE1D5;}
	.st10{fill:#E52125;}
	.st11{fill:#242263;}
	.st12{fill:#F47D2E;}
	.st13{fill:#F7A71C;}
	.st14{fill:#F9F9FA;}
	.st15{fill:#B97D2B;}
	.st16{fill:#558ECB;}
	.st17{fill:#2B64AF;}
	.st18{fill:#88C4EB;}
	.st19{fill:#FDDD16;}
	.st20{fill:#992120;}
	.st21{opacity:0.28;}
	.st22{enable-background:new    ;}
	.st23{fill:#3DB54A;}
	.st24{fill:#C7DF94;}
	.st25{fill:#E1ECB3;}
	.st26{fill:#019547;}
	.st27{fill:#DFBFB1;}
	.st28{fill:#9991AF;}
</style>
<g>
	<g>
		<rect x="-0.23" class="st0" width="300" height="300"/>
		<g>
			<g>
				<path class="st1" d="M92.95,202.15c-0.51,0-0.99-0.29-1.21-0.78c-0.3-0.67-0.01-1.46,0.66-1.76l6.07-2.76
					c0.67-0.31,1.46-0.01,1.77,0.66c0.3,0.67,0.01,1.46-0.66,1.76l-6.07,2.76C93.32,202.12,93.13,202.15,92.95,202.15z
					 M105.09,196.64c-0.51,0-0.99-0.29-1.21-0.78c-0.3-0.67-0.01-1.46,0.66-1.76l6.07-2.76c0.67-0.31,1.46-0.01,1.77,0.66
					c0.3,0.67,0.01,1.46-0.66,1.76l-6.07,2.76C105.46,196.6,105.27,196.64,105.09,196.64z M117.23,191.13
					c-0.51,0-0.99-0.29-1.21-0.78c-0.3-0.67-0.01-1.46,0.66-1.76l6.07-2.76c0.67-0.31,1.46-0.01,1.77,0.66
					c0.3,0.67,0.01,1.46-0.66,1.76l-6.07,2.76C117.6,191.09,117.41,191.13,117.23,191.13z M129.37,185.61
					c-0.51,0-0.99-0.29-1.21-0.78c-0.3-0.67-0.01-1.46,0.66-1.76l6.07-2.76c0.67-0.31,1.46-0.01,1.77,0.66
					c0.3,0.67,0.01,1.46-0.66,1.76l-6.07,2.76C129.74,185.57,129.55,185.61,129.37,185.61z M141.51,180.1
					c-0.51,0-0.99-0.29-1.21-0.78c-0.3-0.67-0.01-1.46,0.66-1.77l6.07-2.76c0.67-0.31,1.46-0.01,1.77,0.66
					c0.3,0.67,0.01,1.46-0.66,1.77l-6.07,2.76C141.88,180.06,141.69,180.1,141.51,180.1z M153.65,174.58
					c-0.51,0-0.99-0.29-1.21-0.78c-0.3-0.67-0.01-1.46,0.66-1.76l6.07-2.76c0.67-0.31,1.46-0.01,1.77,0.66s0.01,1.46-0.66,1.76
					l-6.07,2.76C154.02,174.55,153.83,174.58,153.65,174.58z"/>
			</g>
			<g>
				<path class="st1" d="M154.33,181.03c-0.07,0-0.14-0.01-0.21-0.02c-0.73-0.12-1.22-0.8-1.11-1.52l1.04-6.59
					c0.12-0.73,0.81-1.21,1.52-1.11c0.73,0.12,1.22,0.8,1.11,1.52l-1.04,6.59C155.54,180.57,154.97,181.03,154.33,181.03z
					 M156.4,167.86c-0.07,0-0.14-0.01-0.21-0.02c-0.73-0.11-1.22-0.8-1.11-1.52l1.04-6.59c0.11-0.73,0.81-1.22,1.52-1.11
					c0.73,0.11,1.22,0.8,1.11,1.52l-1.04,6.59C157.62,167.39,157.05,167.86,156.4,167.86z M158.48,154.69
					c-0.07,0-0.14-0.01-0.21-0.02c-0.73-0.12-1.22-0.8-1.11-1.52l1.04-6.59c0.11-0.73,0.8-1.21,1.52-1.11
					c0.73,0.12,1.22,0.8,1.11,1.52l-1.04,6.59C159.69,154.22,159.13,154.69,158.48,154.69z M160.56,141.52
					c-0.07,0-0.14-0.01-0.21-0.02c-0.73-0.12-1.22-0.8-1.11-1.52l1.04-6.59c0.12-0.73,0.81-1.21,1.52-1.11
					c0.73,0.12,1.22,0.8,1.11,1.52l-1.04,6.59C161.77,141.05,161.2,141.52,160.56,141.52z M162.64,128.35
					c-0.07,0-0.14-0.01-0.21-0.02c-0.73-0.12-1.22-0.8-1.11-1.52l1.04-6.59c0.11-0.73,0.8-1.22,1.52-1.11
					c0.73,0.12,1.22,0.8,1.11,1.52l-1.04,6.59C163.85,127.88,163.28,128.35,162.64,128.35z M164.71,115.18
					c-0.07,0-0.14-0.01-0.21-0.02c-0.73-0.12-1.22-0.8-1.11-1.52l1.04-6.59c0.11-0.73,0.8-1.22,1.52-1.11
					c0.73,0.12,1.22,0.8,1.11,1.52l-1.04,6.59C165.92,114.71,165.36,115.18,164.71,115.18z"/>
			</g>
			<g>
				<path class="st1" d="M164.44,169.33c-0.45,0-0.89-0.23-1.14-0.64c-0.38-0.63-0.18-1.45,0.45-1.83l5.69-3.47
					c0.63-0.38,1.45-0.18,1.83,0.45c0.38,0.63,0.18,1.45-0.45,1.83l-5.69,3.47C164.92,169.27,164.68,169.33,164.44,169.33z
					 M175.83,162.4c-0.45,0-0.89-0.23-1.14-0.64c-0.38-0.63-0.18-1.45,0.45-1.83l5.69-3.47c0.63-0.38,1.45-0.18,1.83,0.45
					c0.38,0.63,0.18,1.45-0.45,1.83l-5.69,3.47C176.31,162.33,176.07,162.4,175.83,162.4z M187.22,155.46
					c-0.45,0-0.89-0.23-1.14-0.64c-0.38-0.63-0.18-1.45,0.45-1.83l5.69-3.47c0.63-0.38,1.45-0.18,1.83,0.45
					c0.38,0.63,0.18,1.45-0.45,1.83l-5.69,3.47C187.69,155.4,187.45,155.46,187.22,155.46z M198.61,148.53
					c-0.45,0-0.89-0.23-1.14-0.64c-0.38-0.63-0.18-1.45,0.45-1.83l5.69-3.47c0.63-0.38,1.45-0.18,1.83,0.45
					c0.38,0.63,0.18,1.45-0.45,1.83l-5.69,3.47C199.08,148.46,198.84,148.53,198.61,148.53z M210,141.59
					c-0.45,0-0.89-0.23-1.14-0.64c-0.38-0.63-0.18-1.45,0.45-1.83l5.69-3.47c0.63-0.38,1.45-0.18,1.83,0.45
					c0.38,0.63,0.18,1.45-0.45,1.83l-5.69,3.47C210.47,141.53,210.23,141.59,210,141.59z M221.38,134.66
					c-0.45,0-0.89-0.23-1.14-0.64c-0.38-0.63-0.18-1.45,0.45-1.83l5.69-3.47c0.63-0.38,1.45-0.18,1.83,0.45
					c0.38,0.63,0.18,1.45-0.45,1.83l-5.69,3.47C221.86,134.6,221.62,134.66,221.38,134.66z"/>
			</g>
			<g>
				<path class="st1" d="M234.29,194.67c-0.14,0-0.28-0.02-0.42-0.07l-6.33-2.1c-0.7-0.23-1.08-0.99-0.85-1.69s0.99-1.07,1.69-0.85
					l6.33,2.1c0.7,0.23,1.08,0.99,0.85,1.69C235.37,194.32,234.85,194.67,234.29,194.67z M221.64,190.47
					c-0.14,0-0.28-0.02-0.42-0.07l-6.33-2.1c-0.7-0.23-1.08-0.99-0.85-1.69s0.99-1.07,1.69-0.85l6.33,2.1
					c0.7,0.23,1.08,0.99,0.85,1.69C222.72,190.12,222.2,190.47,221.64,190.47z M208.98,186.27c-0.14,0-0.28-0.02-0.42-0.07
					l-6.33-2.1c-0.7-0.23-1.08-0.99-0.84-1.69c0.23-0.7,0.99-1.07,1.69-0.84l6.33,2.1c0.7,0.23,1.08,0.99,0.85,1.69
					C210.06,185.92,209.54,186.27,208.98,186.27z M196.33,182.07c-0.14,0-0.28-0.02-0.42-0.07l-6.33-2.1
					c-0.7-0.23-1.08-0.99-0.85-1.69s0.99-1.07,1.69-0.85l6.33,2.1c0.7,0.23,1.08,0.99,0.85,1.69
					C197.41,181.71,196.89,182.07,196.33,182.07z M183.67,177.87c-0.14,0-0.28-0.02-0.42-0.07l-6.33-2.1
					c-0.7-0.23-1.08-0.99-0.85-1.69s0.99-1.07,1.69-0.85l6.33,2.1c0.7,0.23,1.08,0.99,0.84,1.69
					C184.75,177.51,184.23,177.87,183.67,177.87z M171.02,173.67c-0.14,0-0.28-0.02-0.42-0.07l-6.33-2.1
					c-0.7-0.23-1.08-0.99-0.85-1.69s0.99-1.07,1.69-0.85l6.33,2.1c0.7,0.23,1.08,0.99,0.85,1.69
					C172.1,173.31,171.58,173.67,171.02,173.67z"/>
			</g>
			<g>
				<path class="st1" d="M158.29,166.12c-0.28,0-0.56-0.09-0.81-0.27l-5.31-4.03c-0.59-0.45-0.7-1.28-0.26-1.87
					c0.45-0.59,1.28-0.7,1.87-0.26l5.31,4.03c0.59,0.45,0.7,1.28,0.26,1.87C159.1,165.94,158.7,166.12,158.29,166.12z
					 M147.68,158.05c-0.28,0-0.56-0.09-0.81-0.27l-5.31-4.03c-0.59-0.45-0.7-1.28-0.26-1.87c0.45-0.58,1.28-0.7,1.87-0.25l5.31,4.03
					c0.59,0.45,0.7,1.28,0.26,1.87C148.48,157.87,148.08,158.05,147.68,158.05z M137.06,149.99c-0.28,0-0.56-0.09-0.81-0.27
					l-5.31-4.03c-0.59-0.45-0.7-1.28-0.26-1.87c0.45-0.59,1.28-0.7,1.87-0.25l5.31,4.03c0.59,0.45,0.7,1.28,0.26,1.87
					C137.86,149.81,137.46,149.99,137.06,149.99z M126.45,141.92c-0.28,0-0.56-0.09-0.81-0.27l-5.31-4.03
					c-0.59-0.45-0.7-1.28-0.26-1.87c0.45-0.58,1.28-0.7,1.87-0.25l5.31,4.03c0.59,0.45,0.7,1.28,0.26,1.87
					C127.25,141.74,126.85,141.92,126.45,141.92z M115.83,133.85c-0.28,0-0.56-0.09-0.81-0.27l-5.31-4.03
					c-0.59-0.45-0.7-1.28-0.26-1.87c0.45-0.58,1.28-0.7,1.87-0.25l5.31,4.03c0.59,0.45,0.7,1.28,0.26,1.87
					C116.63,133.67,116.23,133.85,115.83,133.85z M105.21,125.79c-0.28,0-0.56-0.09-0.81-0.27l-5.31-4.03
					c-0.59-0.45-0.7-1.28-0.26-1.87c0.45-0.58,1.28-0.7,1.87-0.25l5.31,4.03c0.59,0.45,0.7,1.28,0.26,1.87
					C106.01,125.61,105.62,125.79,105.21,125.79z"/>
			</g>
			<g>
				<g>
					<g>
						<g>
							<path class="st2" d="M192.64,184.95h-58.55v6.12l38.12,38.12h15.43c2.76,0,5-2.24,5-5L192.64,184.95L192.64,184.95z"/>
						</g>
						<g>
							<path class="st3" d="M139.09,229.19h33.12l-38.12-38.12v33.12C134.09,226.95,136.33,229.19,139.09,229.19z"/>
						</g>
					</g>
					<g>
						<g>
							<rect x="141.69" y="198.39" class="st2" width="17.89" height="30.79"/>
						</g>
						<g>
							<rect x="140.4" y="198.39" class="st4" width="17.89" height="30.79"/>
						</g>
						<g>
							<rect x="142.32" y="200.73" class="st5" width="14.04" height="28.46"/>
						</g>
						<g>
							<rect x="169.27" y="199.77" class="st2" width="17.68" height="20.71"/>
						</g>
						<g>
							<rect x="167.9" y="198.39" class="st4" width="17.68" height="20.71"/>
						</g>
						<g>
							<rect x="169.67" y="200.47" class="st6" width="14.14" height="16.56"/>
						</g>
						<g>
							<rect x="170.47" y="201.4" class="st6" width="13.34" height="15.62"/>
						</g>
					</g>
					<g id="XMLID_3_">
						<g>
							<g>
								<path class="st4" d="M196.59,174.19c0.41,0.76,0.63,1.61,0.63,2.47v9.92h-0.08c0,2.62-2.12,4.75-4.75,4.75
									c-2.62,0-4.75-2.12-4.75-4.75h-0.09v-10.26c0-0.64-0.12-1.28-0.35-1.87l-7.14-18.38v-0.11h6.68v0.11L196.59,174.19z"/>
							</g>
							<g>
								<path class="st7" d="M187.19,174.44c0.23,0.6,0.35,1.23,0.35,1.87v10.26h-0.09c0,2.62-2.13,4.75-4.75,4.75
									s-4.75-2.12-4.75-4.75h-0.09v-10.64c0-0.39-0.05-0.79-0.14-1.17l-4.36-18.71v-0.11h6.68v0.11L187.19,174.44z"/>
							</g>
							<g>
								<path class="st4" d="M177.73,174.77c0.09,0.38,0.14,0.78,0.14,1.17v10.64h-0.08c0,2.62-2.13,4.75-4.75,4.75
									s-4.75-2.12-4.75-4.75h-0.08v-11.03c0-0.13-0.01-0.27-0.01-0.4l-1.48-19.09v-0.11h6.68v0.11L177.73,174.77z"/>
							</g>
							<g>
								<path class="st7" d="M168.18,175.15c0.01,0.13,0.01,0.27,0.01,0.4v11.03h-0.08c0,2.62-2.12,4.75-4.75,4.75
									s-4.75-2.12-4.75-4.75h-0.08v-11.03c0-0.13,0.01-0.27,0.01-0.4l1.48-19.09v-0.11h6.68v0.11L168.18,175.15z"/>
							</g>
							<g>
								<path class="st4" d="M160.02,155.95v0.11l-1.48,19.09c-0.01,0.13-0.01,0.27-0.01,0.4v11.03h-0.08
									c0,2.62-2.12,4.75-4.75,4.75s-4.75-2.12-4.75-4.75h-0.08v-10.64c0-0.39,0.05-0.79,0.14-1.17l4.35-18.71v-0.11H160.02z"/>
							</g>
							<g>
								<path class="st7" d="M153.35,155.95v0.11L149,174.77c-0.09,0.39-0.14,0.78-0.14,1.17v10.64h-0.09
									c0,2.62-2.12,4.75-4.75,4.75c-2.62,0-4.75-2.12-4.75-4.75h-0.09v-10.26c0-0.64,0.12-1.28,0.35-1.87l7.14-18.39v-0.11H153.35
									z"/>
							</g>
							<g>
								<path class="st4" d="M146.67,155.95v0.11l-7.14,18.39c-0.23,0.6-0.35,1.23-0.35,1.87v10.26h-0.08
									c0,2.62-2.13,4.75-4.75,4.75s-4.75-2.12-4.75-4.75h-0.08v-9.92c0-0.86,0.22-1.71,0.63-2.47l9.86-18.13v-0.11L146.67,155.95
									L146.67,155.95z"/>
							</g>
							<g>
								<path class="st8" d="M186.73,153.41v2.54h-6.68h-6.68h-6.68h-6.68h-6.68h-6.67h-6.67v-2.54c0-1.91,1.55-3.46,3.46-3.46h39.8
									C185.18,149.95,186.73,151.5,186.73,153.41z"/>
							</g>
						</g>
					</g>
				</g>
				<g>
					<polygon class="st4" points="183.81,205.55 170.47,216.54 170.47,213.6 183.81,202.62 					"/>
				</g>
			</g>
			<g>
				<path class="st9" d="M120.09,199.77c0,13.5-10.94,24.44-24.44,24.44s-24.44-10.94-24.44-24.44s10.94-24.44,24.44-24.44
					C109.15,175.32,120.09,186.27,120.09,199.77z"/>
				<g>
					<g>
						<path class="st8" d="M105.21,188.72c0.5-0.5,1.32-0.5,1.82,0l0,0l1.46-1.46c-0.75-0.75-1.7-1.3-2.77-1.58l-3.87-0.99
							c-1.19-0.3-2.45,0.04-3.31,0.91l-19.22,19.22c-1.36,1.36-1.36,3.55,0,4.91l3.35,3.35l22.54-22.54
							C104.71,190.03,104.71,189.22,105.21,188.72z"/>
					</g>
					<g>
						<path class="st10" d="M111.05,193.9l-0.99-3.87c-0.27-1.07-0.82-2.02-1.57-2.77l-1.46,1.46c0.5,0.5,0.5,1.32,0,1.82
							s-1.32,0.5-1.82,0l-22.54,22.54l3.35,3.35c1.36,1.36,3.55,1.36,4.91,0l19.22-19.22C111.01,196.34,111.35,195.08,111.05,193.9z
							"/>
					</g>
					<g>
						<g>
							<g>
								<path class="st11" d="M89.12,212.64c-0.13,0-0.26-0.05-0.36-0.15c-0.2-0.2-0.2-0.53,0-0.73l1.64-1.64
									c0.67-0.67,0.78-1.63,0.26-2.15l-0.2-0.2c-0.24-0.24-0.59-0.35-0.97-0.32c-0.42,0.04-0.84,0.24-1.18,0.58l-0.07,0.07
									c-1.07,1.07-2.68,1.18-3.6,0.26l-0.08-0.08c-0.92-0.92-0.8-2.54,0.27-3.6l1.16-1.16c0.2-0.2,0.53-0.2,0.73,0
									c0.2,0.2,0.2,0.53,0,0.73l-1.16,1.16c-0.67,0.67-0.78,1.63-0.26,2.15l0.08,0.08c0.52,0.52,1.48,0.4,2.15-0.26l0.07-0.07
									c1.07-1.07,2.68-1.18,3.6-0.26l0.2,0.2c0.92,0.92,0.8,2.54-0.26,3.6l-1.64,1.64C89.39,212.59,89.26,212.64,89.12,212.64z"/>
							</g>
							<g>
								<path class="st11" d="M93.06,208.7c-0.13,0-0.26-0.05-0.36-0.15l-4.25-4.25c-0.45-0.45-0.66-1.06-0.59-1.74
									c0.06-0.64,0.36-1.26,0.85-1.75c0.52-0.52,1.14-0.82,1.78-0.88c0.68-0.06,1.3,0.15,1.74,0.6l4.25,4.25
									c0.2,0.2,0.2,0.53,0,0.73s-0.53,0.2-0.73,0l-4.25-4.25c-0.49-0.49-1.41-0.38-2.04,0.25c-0.66,0.66-0.78,1.58-0.29,2.07
									l4.25,4.25c0.2,0.2,0.2,0.53,0,0.73C93.32,208.65,93.19,208.7,93.06,208.7z"/>
							</g>
							<g>
								<path class="st11" d="M97.72,204.04c-0.13,0-0.26-0.05-0.36-0.15l-5.5-5.5c-0.2-0.2-0.2-0.53,0-0.73s0.53-0.2,0.73,0
									l5.14,5.14l2.69-2.69c0.2-0.2,0.53-0.2,0.73,0c0.2,0.2,0.2,0.52,0,0.73l-3.05,3.05C97.98,203.99,97.85,204.04,97.72,204.04z
									"/>
							</g>
							<g>
								<path class="st11" d="M101.66,200.1c-0.13,0-0.26-0.05-0.36-0.15l-5.5-5.5c-0.2-0.2-0.2-0.53,0-0.73l3.05-3.05
									c0.2-0.2,0.53-0.2,0.73,0c0.2,0.2,0.2,0.53,0,0.73l-2.69,2.69l4.78,4.78l2.69-2.69c0.2-0.2,0.53-0.2,0.73,0
									c0.2,0.2,0.2,0.53,0,0.73l-3.05,3.05C101.92,200.05,101.79,200.1,101.66,200.1z"/>
							</g>
							<g>
								<path class="st11" d="M90.02,205.65c-0.13,0-0.26-0.05-0.36-0.15c-0.2-0.2-0.2-0.52,0-0.73l3.05-3.05
									c0.2-0.2,0.53-0.2,0.73,0c0.2,0.2,0.2,0.52,0,0.73l-3.05,3.05C90.28,205.6,90.15,205.65,90.02,205.65z"/>
							</g>
							<g>
								<path class="st11" d="M98.61,197.06c-0.13,0-0.26-0.05-0.36-0.15c-0.2-0.2-0.2-0.53,0-0.73l2.41-2.41
									c0.2-0.2,0.53-0.2,0.73,0s0.2,0.53,0,0.73l-2.41,2.41C98.88,197.01,98.74,197.06,98.61,197.06z"/>
							</g>
						</g>
						<g>
							<path class="st11" d="M106.78,189.04c-0.07,0-0.14-0.01-0.2-0.04c-0.26-0.11-0.38-0.41-0.27-0.67
								c0.08-0.18,1.87-4.32,3.39-5.56c1.4-1.14,2.37-0.54,2.63-0.32c0.67,0.54,0.86,1.59,0.45,2.38c-1.23,2.36-3.48,3.42-3.58,3.46
								c-0.26,0.12-0.56,0.01-0.68-0.25s-0.01-0.56,0.25-0.68c0.02-0.01,2.03-0.97,3.1-3.01c0.19-0.36,0.1-0.88-0.19-1.11
								c-0.3-0.24-0.78-0.12-1.33,0.32c-1.1,0.9-2.61,4.03-3.1,5.17C107.16,188.92,106.97,189.04,106.78,189.04z"/>
						</g>
					</g>
				</g>
			</g>
			<g>
				<path class="st9" d="M253.64,201.53c0,13.5-10.94,24.44-24.44,24.44s-24.44-10.94-24.44-24.44s10.94-24.44,24.44-24.44
					C242.69,177.09,253.64,188.03,253.64,201.53z"/>
				<g>
					<g>
						<g>
							<g>
								<rect x="212.87" y="199.48" class="st5" width="0" height="3.95"/>
							</g>
							<path class="st12" d="M240.58,200.07c-0.53-5.99-5.37-10.84-11.36-11.37c-6.11-0.55-11.42,3.29-13.14,8.72h-1.14
								c-0.38,0-0.73,0.11-1.03,0.29c-0.62,0.36-1.03,1.02-1.03,1.78v3.95c0,0.76,0.42,1.42,1.03,1.78
								c0.31,0.18,0.66,0.29,1.03,0.29h1.31c0.91,2.51,2.59,4.64,4.76,6.11v4.86c0,0.41,0.33,0.74,0.74,0.74h3.5
								c0.41,0,0.74-0.33,0.74-0.74v-2.86c0.67,0.11,1.36,0.17,2.07,0.17c0.84,0,1.66-0.08,2.45-0.24v2.93
								c0,0.41,0.33,0.74,0.74,0.74h3.5c0.41,0,0.74-0.33,0.74-0.74v-5.14C238.89,208.84,240.99,204.69,240.58,200.07z"/>
						</g>
						<g>
							<g>
								<path class="st13" d="M239.64,200.31c0,0,0.02-0.07,0.06-0.19s0.08-0.29,0.17-0.53s0.18-0.53,0.36-0.86
									c0.04-0.08,0.08-0.17,0.13-0.25c0.06-0.08,0.12-0.17,0.18-0.25c0.06-0.09,0.12-0.17,0.19-0.26c0.02-0.02,0,0,0.04-0.06
									l0.03-0.02l0.05-0.05l0.11-0.11c0.39-0.34,0.84-0.6,1.41-0.67c0.28-0.02,0.59-0.02,0.88,0.11l0.11,0.04
									c0.03,0.01,0.01,0,0.08,0.03l0.04,0.02c0.05,0.03,0.1,0.06,0.16,0.1c0.14,0.1,0.26,0.21,0.36,0.31
									c0.4,0.44,0.63,1,0.72,1.57s0.05,1.19-0.27,1.75c-0.33,0.52-0.94,0.93-1.65,0.73l-0.18-0.08l-0.09-0.04l-0.1-0.08
									l-0.19-0.16c-0.05-0.06-0.09-0.12-0.13-0.18c-0.1-0.12-0.14-0.26-0.2-0.39c-0.01-0.04-0.03-0.05-0.04-0.12l-0.02-0.1
									l-0.03-0.19c-0.07-0.54,0.1-1.09,0.37-1.48c0.27-0.41,0.62-0.7,0.95-0.94c0.33-0.23,0.7-0.4,1.05-0.39
									c0.34,0.01,0.63,0.11,0.82,0.25s0.32,0.27,0.4,0.38c0.08,0.1,0.12,0.15,0.12,0.15s-0.04-0.05-0.13-0.15
									c-0.08-0.1-0.21-0.23-0.41-0.35c-0.2-0.12-0.48-0.21-0.79-0.19c-0.32,0.01-0.65,0.18-0.96,0.42
									c-0.31,0.25-0.62,0.55-0.84,0.93c-0.22,0.39-0.33,0.84-0.25,1.3l0.04,0.19l0.02,0.09c-0.01-0.01,0.02,0.04,0.03,0.06
									c0.05,0.1,0.09,0.21,0.17,0.29c0.04,0.04,0.07,0.09,0.11,0.13c0.04,0.03,0.08,0.06,0.11,0.09l0.05,0.05l0.09,0.04l0.19,0.07
									c0.14,0.03,0.4-0.01,0.58-0.12c0.09-0.06,0.18-0.12,0.26-0.21c0.08-0.09,0.12-0.14,0.19-0.27c0.2-0.39,0.22-0.92,0.11-1.38
									c-0.1-0.47-0.32-0.9-0.62-1.19c-0.08-0.08-0.15-0.13-0.22-0.17c-0.04-0.03-0.11-0.06-0.16-0.08l-0.04-0.02
									c0.03,0.02-0.01,0-0.01,0l-0.06-0.02c-0.16-0.07-0.35-0.05-0.52-0.03c-0.35,0.05-0.68,0.28-0.89,0.48l-0.1,0.11l-0.05,0.06
									l-0.02,0.03c0.03-0.04,0,0,0,0c-0.04,0.07-0.09,0.14-0.13,0.21c-0.04,0.07-0.08,0.13-0.12,0.19
									c-0.03,0.07-0.06,0.14-0.09,0.21c-0.12,0.26-0.19,0.52-0.25,0.73c-0.06,0.21-0.1,0.4-0.13,0.52
									c-0.03,0.12-0.04,0.19-0.04,0.19c-0.07,0.28-0.35,0.45-0.63,0.39c-0.28-0.07-0.45-0.35-0.39-0.63
									C239.63,200.34,239.63,200.33,239.64,200.31L239.64,200.31z"/>
							</g>
						</g>
						<g>
							<path class="st5" d="M241.15,201.21c0,6.94-5.76,12.56-12.86,12.56s-12.86-5.62-12.86-12.56s5.76-12.56,12.86-12.56
								C235.4,188.65,241.15,194.27,241.15,201.21z"/>
						</g>
						<g>
							<path class="st5" d="M223.98,193.36v-7.52h0.05c2.73,0,4.93,2.21,4.93,4.93v2.59L223.98,193.36L223.98,193.36z"/>
						</g>
						<g>
							<path class="st12" d="M223.98,193.36v-7.52h0.01c0.82,0,1.49,2.21,1.49,4.93v2.59L223.98,193.36L223.98,193.36z"/>
						</g>
						<g>
							<circle class="st3" cx="221.01" cy="197.42" r="2.3"/>
						</g>
						<g>
							<path class="st14" d="M222.79,197.42c0,0.98-0.8,1.78-1.78,1.78s-1.78-0.8-1.78-1.78s0.8-1.78,1.78-1.78
								C222,195.64,222.79,196.43,222.79,197.42z"/>
						</g>
						<g>
							<path class="st11" d="M221.47,197.42c0,0.54-0.44,0.98-0.98,0.98s-0.97-0.44-0.97-0.98s0.44-0.98,0.97-0.98
								C221.03,196.44,221.47,196.88,221.47,197.42z"/>
						</g>
						<path class="st7" d="M228.48,207.11c-0.09,0-0.17-0.02-0.25-0.07c-0.25-0.14-0.34-0.46-0.2-0.71l5.56-10.03
							c0.14-0.25,0.46-0.34,0.71-0.2s0.34,0.46,0.2,0.71l-5.56,10.03C228.84,207.02,228.67,207.11,228.48,207.11z"/>
						<g>
							<path class="st5" d="M228.82,200.94h-0.03c-0.8,0-1.45-0.65-1.45-1.45v-1.07c0-0.8,0.65-1.45,1.45-1.45h0.03
								c0.8,0,1.45,0.65,1.45,1.45v1.07C230.26,200.3,229.62,200.94,228.82,200.94z"/>
							<path class="st7" d="M228.82,201.47h-0.03c-1.09,0-1.97-0.88-1.97-1.97v-1.07c0-1.08,0.88-1.97,1.97-1.97
								c1.11,0,2,0.88,2,1.97v1.07C230.79,200.58,229.9,201.47,228.82,201.47z M228.82,197.5c-0.54,0-0.95,0.41-0.95,0.92v1.07
								c0,0.51,0.41,0.92,0.92,0.92h0.03c0.51,0,0.92-0.41,0.92-0.92v-1.07C229.74,197.92,229.33,197.5,228.82,197.5z"/>
						</g>
					</g>
					<g>
						<path class="st5" d="M233.52,206.2h-0.03c-0.8,0-1.45-0.65-1.45-1.45v-1.07c0-0.8,0.65-1.45,1.45-1.45h0.03
							c0.8,0,1.45,0.65,1.45,1.45v1.07C234.96,205.55,234.31,206.2,233.52,206.2z"/>
						<path class="st7" d="M233.52,206.72h-0.03c-1.09,0-1.97-0.88-1.97-1.97v-1.07c0-1.09,0.88-1.97,1.97-1.97
							c1.11,0,2,0.88,2,1.97v1.07C235.49,205.83,234.6,206.72,233.52,206.72z M233.52,202.75c-0.54,0-0.95,0.41-0.95,0.92v1.07
							c0,0.51,0.41,0.92,0.92,0.92h0.03c0.51,0,0.92-0.41,0.92-0.92v-1.07C234.44,203.17,234.03,202.75,233.52,202.75z"/>
					</g>
					<g>
						<path class="st15" d="M214.57,199.72c0,0.28-0.23,0.51-0.51,0.51s-0.51-0.23-0.51-0.51s0.23-0.51,0.51-0.51
							C214.34,199.21,214.57,199.43,214.57,199.72z"/>
					</g>
				</g>
			</g>
			<g>
				<g>
					<g>
						<path class="st16" d="M149.65,236.82l-19.62,19.62c-1.62,1.62-1.62,4.26,0,5.88l22.56-22.56L149.65,236.82z"/>
					</g>
					<g>
						<path class="st17" d="M152.6,239.76l-22.56,22.56l0.06,0.06c1.63,1.63,4.26,1.63,5.88,0l19.62-19.62L152.6,239.76z"/>
					</g>
				</g>
				<g>
					<g>
						<path class="st17" d="M164.23,208.11c-10.75,0-19.47,8.72-19.47,19.47s8.72,19.47,19.47,19.47s19.47-8.72,19.47-19.47
							C183.7,216.82,174.98,208.11,164.23,208.11z M164.23,241.72c-3.9,0-7.44-1.58-10-4.14s-4.14-6.09-4.14-10
							c0-7.81,6.33-14.14,14.14-14.14c3.9,0,7.44,1.58,10,4.14s4.14,6.1,4.14,10C178.37,235.39,172.03,241.72,164.23,241.72z"/>
						<path class="st16" d="M155.91,219.26c5.52-5.52,13.72-6.28,18.32-1.68c-2.96-2.95-7.21-4.61-11.84-4.03
							c-6.3,0.79-11.39,5.88-12.19,12.18c-0.59,4.63,1.07,8.89,4.02,11.85C149.63,232.98,150.38,224.78,155.91,219.26z"/>
						<path class="st6" d="M174.22,217.58c4.6,4.6,3.84,12.8-1.68,18.32c-5.52,5.52-13.72,6.27-18.32,1.68
							c2.56,2.56,6.09,4.14,10,4.14c7.81,0,14.14-6.33,14.14-14.14C178.37,223.67,176.78,220.14,174.22,217.58z"/>
						<path class="st18" d="M172.54,235.9c5.52-5.52,6.27-13.72,1.68-18.32c-4.59-4.6-12.8-3.84-18.32,1.68
							c-5.52,5.52-6.27,13.72-1.68,18.32C158.82,242.17,167.02,241.42,172.54,235.9z"/>
					</g>
					<g>
						<g>
							<path class="st16" d="M174.56,227.97c-0.01-0.24-0.03-0.48-0.05-0.72c-0.54,2.81-1.48,4.04-3.42,6.17
								c-2.14,1.94-4.39,3.9-7.19,4.44C169.35,238.36,175.05,233.76,174.56,227.97C174.54,227.51,174.58,228.2,174.56,227.97z"/>
						</g>
					</g>
					<g>
						<g>
							<g>
								<path class="st14" d="M153.68,226.94c0.01,0.24,0.03,0.48,0.05,0.72c0.54-2.8,1.48-4.04,3.42-6.17
									c2.14-1.94,4.39-3.9,7.19-4.44C158.89,216.55,153.19,221.14,153.68,226.94C153.7,227.39,153.66,226.71,153.68,226.94z"/>
							</g>
						</g>
					</g>
				</g>
			</g>
			<g>
				<path class="st9" d="M135.18,121.11c0,13.5-10.94,24.44-24.44,24.44S86.3,134.61,86.3,121.11s10.94-24.44,24.44-24.44
					C124.24,96.66,135.18,107.61,135.18,121.11z"/>
				<g>
					<g>
						<path class="st6" d="M117.79,110.76l-1.5-2.58c-0.6-1.02-1.71-1.66-2.9-1.66c-0.59,0-1.17,0.16-1.68,0.46L93.67,117.5
							c-0.77,0.45-1.32,1.17-1.55,2.04c-0.23,0.86-0.11,1.77,0.35,2.54l6.22,10.67c0.41,0.71,1.07,1.23,1.83,1.48
							c-0.54-0.42-0.95-1-1.16-1.69l-0.21-0.7L117.79,110.76z"/>
					</g>
					<g>
						<path class="st17" d="M101.89,132.34V120c0-1.85,1.5-3.35,3.35-3.35h7.58c0.02-0.17,0.13-0.32,0.31-0.37l5.9-1.73
							c0.23-0.07,0.47,0.07,0.54,0.29l0.53,1.81h3.35l-1.1-3.73c-0.42-1.42-1.74-2.41-3.21-2.41c-0.32,0-0.64,0.05-0.95,0.14
							l-0.39,0.11l-0.85,0.25l-18.8,5.52c-0.86,0.25-1.57,0.82-2,1.61s-0.53,1.69-0.27,2.55l3.27,11.14l0.21,0.7
							c0.2,0.68,0.62,1.27,1.16,1.69c0.58,0.45,1.29,0.72,2.06,0.72c0.17,0,0.35-0.02,0.52-0.04
							C102.35,134.29,101.89,133.37,101.89,132.34z"/>
					</g>
					<g>
						<path class="st8" d="M126.13,116.65h-2.69h-3.35h-7.27h-7.58c-1.85,0-3.35,1.5-3.35,3.35v12.35c0,1.02,0.46,1.94,1.19,2.56
							c0.58,0.49,1.34,0.79,2.16,0.79h20.89c1.85,0,3.35-1.5,3.35-3.35V120C129.48,118.15,127.98,116.65,126.13,116.65z"/>
					</g>
					<g>
						<rect x="105.29" y="129.94" class="st17" width="4.7" height="1.26"/>
					</g>
					<g>
						<rect x="110.95" y="129.94" class="st17" width="4.7" height="1.26"/>
					</g>
					<g>
						<rect x="116.61" y="129.94" class="st17" width="4.7" height="1.26"/>
					</g>
					<g>
						<rect x="122.26" y="129.94" class="st17" width="4.7" height="1.26"/>
					</g>
					<g>
						<rect x="120.12" y="121.49" class="st19" width="5.28" height="4.25"/>
					</g>
					<g>
						<rect x="105.75" y="121.06" class="st18" width="11.37" height="1.71"/>
					</g>
					<g>
						<rect x="105.75" y="124.5" class="st18" width="11.37" height="1.71"/>
					</g>
				</g>
			</g>
			<g>
				<path class="st9" d="M249.2,127.13c0,13.5-10.94,24.44-24.44,24.44s-24.44-10.94-24.44-24.44s10.94-24.44,24.44-24.44
					C238.26,102.69,249.2,113.63,249.2,127.13z"/>
				<g>
					<g>
						<g>
							<rect x="211.96" y="117.1" class="st6" width="25.59" height="25.67"/>
						</g>
						<g>
							<path class="st7" d="M231.49,117.1h-6.92l5.75-5.17c1.12-1.01,2.91-0.21,2.91,1.3v2.13
								C233.23,116.32,232.45,117.1,231.49,117.1z"/>
						</g>
						<g>
							<path class="st7" d="M217.84,117.1h6.92l-5.75-5.17c-1.12-1.01-2.91-0.21-2.91,1.3v2.13
								C216.1,116.32,216.88,117.1,217.84,117.1z"/>
						</g>
						<g>
							<path class="st4" d="M227.43,117.1h-4.47c-0.48,0-0.86-0.39-0.86-0.86v-0.02c0-0.48,0.39-0.86,0.86-0.86h4.47V117.1z"/>
						</g>
						<g>
							<path class="st4" d="M222.09,115.35h4.47c0.48,0,0.86,0.39,0.86,0.86v0.02c0,0.48-0.39,0.86-0.86,0.86h-4.47V115.35z"/>
						</g>
						<g>
							<path class="st20" d="M224.57,117.1h-5.65c-0.61,0-1.11-0.5-1.11-1.11v-0.03c0-0.79,0.81-1.33,1.54-1.03L224.57,117.1z"/>
						</g>
						<g>
							<path class="st20" d="M224.76,117.1h5.65c0.61,0,1.11-0.5,1.11-1.11v-0.03c0-0.79-0.81-1.33-1.54-1.03L224.76,117.1z"/>
						</g>
						<g>
							<path class="st8" d="M226.2,117.15h-2.88c-0.78,0-1.42-0.63-1.42-1.42v-0.03c0-0.78,0.63-1.42,1.42-1.42h2.88
								c0.78,0,1.42,0.63,1.42,1.42v0.03C227.62,116.52,226.98,117.15,226.2,117.15z"/>
						</g>
					</g>
					<g class="st21">
						<rect x="212.49" y="117.1" class="st6" width="1.58" height="25.67"/>
					</g>
					<g class="st21">
						<rect x="215.76" y="117.1" class="st6" width="1.58" height="25.67"/>
					</g>
					<g class="st21">
						<rect x="219.03" y="117.1" class="st6" width="1.58" height="25.67"/>
					</g>
					<g class="st21">
						<rect x="222.3" y="117.1" class="st6" width="1.58" height="25.67"/>
					</g>
					<g class="st21">
						<rect x="225.57" y="117.1" class="st6" width="1.58" height="25.67"/>
					</g>
					<g class="st21">
						<rect x="228.83" y="117.1" class="st6" width="1.58" height="25.67"/>
					</g>
					<g class="st21">
						<rect x="232.1" y="117.1" class="st6" width="1.58" height="25.67"/>
					</g>
					<g class="st21">
						<rect x="235.37" y="117.1" class="st6" width="1.58" height="25.67"/>
					</g>
					<g>
						<rect x="222.9" y="117.1" class="st10" width="3.71" height="25.67"/>
					</g>
					<g>
						<rect x="211.96" y="128.08" class="st8" width="25.59" height="3.71"/>
					</g>
				</g>
			</g>
			<g>
				<path class="st9" d="M196.83,97.27c0,14.59-11.83,26.42-26.42,26.42s-26.42-11.83-26.42-26.42s11.83-26.42,26.42-26.42
					S196.83,82.68,196.83,97.27z"/>
				<g>
					<g>
						<g>
							<g>
								<g class="st22">
									<g>
										<g>
											<polygon class="st23" points="163.25,117.16 148.23,108.62 177.56,91.1 192.58,99.65 											"/>
										</g>
										<g>
											<path class="st23" d="M177.56,91.1l-29.33,17.52l15.01,8.55l29.33-17.52L177.56,91.1L177.56,91.1z M163.24,117.27
												l-15.14-8.62l-0.04-0.02l29.47-17.6l0.05-0.03l15.14,8.62l0.04,0.02l-29.47,17.6L163.24,117.27L163.24,117.27z"/>
										</g>
									</g>
								</g>
							</g>
							<g>
								<g class="st22">
									<g>
										<g>
											<polygon class="st23" points="163.25,117.16 148.23,108.62 177.56,91.1 192.58,99.65 											"/>
										</g>
										<g>
											<path class="st23" d="M177.56,91.1l-29.33,17.52l15.01,8.55l29.33-17.52L177.56,91.1L177.56,91.1z M163.24,117.27
												l-15.14-8.62l-0.04-0.02l29.47-17.6l0.05-0.03l15.14,8.62l0.04,0.02l-29.47,17.6L163.24,117.27L163.24,117.27z"/>
										</g>
									</g>
								</g>
							</g>
							<g>
								<g class="st22">
									<g>
										<g>
											<polygon class="st23" points="163.25,115.79 148.23,107.24 177.56,89.73 192.58,98.27 											"/>
										</g>
										<g>
											<path class="st23" d="M177.56,89.73l-29.33,17.52l15.01,8.55l29.33-17.52L177.56,89.73L177.56,89.73z M163.24,115.9
												l-15.14-8.62l-0.04-0.02l29.47-17.6l0.05-0.03l15.14,8.62l0.04,0.02l-29.47,17.6L163.24,115.9L163.24,115.9z"/>
										</g>
									</g>
								</g>
							</g>
							<g>
								<g class="st22">
									<g>
										<g>
											<polygon class="st23" points="163.25,114.42 148.23,105.87 177.56,88.36 192.58,96.9 											"/>
										</g>
										<g>
											<path class="st23" d="M177.56,88.36l-29.33,17.52l15.01,8.55l29.33-17.52L177.56,88.36L177.56,88.36z M163.24,114.52
												l-15.14-8.62l-0.04-0.02l29.47-17.6l0.05-0.03l15.14,8.62l0.04,0.02l-29.47,17.6L163.24,114.52L163.24,114.52z"/>
										</g>
									</g>
								</g>
							</g>
							<g>
								<g class="st22">
									<g>
										<g>
											<polygon class="st23" points="163.25,113.05 148.23,104.5 177.56,86.98 192.58,95.53 											"/>
										</g>
										<g>
											<path class="st23" d="M177.56,86.98l-29.33,17.52l15.01,8.55l29.33-17.52L177.56,86.98L177.56,86.98z M163.24,113.15
												l-15.14-8.62l-0.04-0.02l29.47-17.6l0.05-0.03l15.14,8.62l0.04,0.02l-29.47,17.6L163.24,113.15L163.24,113.15z"/>
										</g>
									</g>
								</g>
							</g>
							<g>
								<g class="st22">
									<g>
										<g>
											<polygon class="st23" points="163.25,111.67 148.23,103.13 177.56,85.61 192.58,94.16 											"/>
										</g>
										<g>
											<path class="st23" d="M177.56,85.61l-29.33,17.52l15.01,8.55l29.33-17.52L177.56,85.61L177.56,85.61z M163.24,111.78
												l-15.14-8.62l-0.04-0.03l29.47-17.6l0.05-0.03l15.14,8.62l0.04,0.02l-29.47,17.6L163.24,111.78L163.24,111.78z"/>
										</g>
									</g>
								</g>
							</g>
							<g>
								<g class="st22">
									<g>
										<g>
											<polygon class="st23" points="163.25,110.3 148.23,101.75 177.56,84.24 192.58,92.79 											"/>
										</g>
										<g>
											<path class="st23" d="M177.56,84.24l-29.33,17.52l15.01,8.55l29.33-17.52L177.56,84.24L177.56,84.24z M163.24,110.41
												l-15.14-8.62l-0.04-0.03l29.47-17.6l0.05-0.03l15.14,8.62l0.04,0.02l-29.47,17.6L163.24,110.41L163.24,110.41z"/>
										</g>
									</g>
								</g>
							</g>
							<g>
								<g class="st22">
									<g>
										<g>
											<polygon class="st23" points="163.25,108.93 148.23,100.38 177.56,82.87 192.58,91.41 											"/>
										</g>
										<g>
											<path class="st23" d="M177.56,82.87l-29.33,17.52l15.01,8.55l29.33-17.52L177.56,82.87L177.56,82.87z M163.24,109.03
												l-15.14-8.62l-0.04-0.03l29.47-17.6l0.05-0.03l15.14,8.62l0.04,0.02l-29.47,17.6L163.24,109.03L163.24,109.03z"/>
										</g>
									</g>
								</g>
							</g>
							<g>
								<g>
									<g class="st22">
										<g>
											<g>
												<polygon class="st24" points="163.25,107.56 148.23,99.01 177.56,81.49 192.58,90.04 												"/>
											</g>
											<g>
												<path class="st25" d="M177.56,81.49l-29.33,17.52l15.01,8.55l29.33-17.52L177.56,81.49L177.56,81.49z M163.24,107.66
													l-15.14-8.62l-0.04-0.02l29.47-17.6l0.05-0.03l15.14,8.62l0.04,0.02l-29.47,17.6L163.24,107.66L163.24,107.66z"/>
											</g>
										</g>
									</g>
								</g>
								<g>
									<g class="st22">
										<g>
											<g>
												<path class="st26" d="M164.1,103.8l1.02,0.79l1.19-0.64l-1.02-0.79c-0.01,0-0.02,0.01-0.02,0.01L164.1,103.8
													L164.1,103.8z M160.82,101.26l2.24,1.74l1.16-0.63c0.01-0.01,0.02-0.01,0.02-0.01l-2.24-1.73
													c-0.01,0.01-0.02,0.01-0.02,0.01l-0.97,0.52C160.96,101.19,160.89,101.23,160.82,101.26L160.82,101.26z M157.56,98.73
													l2.22,1.72c0.07-0.03,0.14-0.06,0.21-0.09l0.97-0.52c0.01,0,0.02-0.01,0.02-0.01l-2.24-1.74l-1,0.54
													C157.67,98.65,157.62,98.69,157.56,98.73L157.56,98.73z M155.49,97.13l1.03,0.8c0.06-0.04,0.12-0.07,0.19-0.11l1-0.54
													l-1.02-0.79L155.49,97.13L155.49,97.13z"/>
											</g>
											<g>
												<path class="st26" d="M156.15,98.21c-0.81,0.75-0.75,1.82,0.24,2.59l0.04,0.03c1.12,0.87,3.04,1.05,4.39,0.43
													c0.07-0.03,0.13-0.06,0.2-0.1l0.97-0.52c0.01-0.01,0.02-0.01,0.02-0.01c0.7-0.36,1.74-0.28,2.34,0.18l0.03,0.03
													c0.51,0.39,0.54,0.94,0.13,1.33c-0.07,0.07-0.16,0.13-0.26,0.19c-0.01,0.01-0.02,0.01-0.02,0.01l-1.16,0.63l-1.83,0.99
													l1.04,0.8l1.83-0.99l1.16-0.63c0.01-0.01,0.02-0.01,0.02-0.01c0.21-0.11,0.38-0.24,0.53-0.38
													c0.81-0.75,0.75-1.82-0.24-2.58l-0.03-0.02c-1.17-0.91-3.21-1.06-4.57-0.35c-0.01,0.01-0.02,0.01-0.02,0.01l-0.97,0.52
													c-0.07,0.04-0.13,0.07-0.21,0.09c-0.69,0.26-1.61,0.16-2.16-0.27l-0.04-0.03c-0.51-0.4-0.54-0.95-0.12-1.33
													c0.03-0.03,0.07-0.06,0.11-0.09c0.05-0.04,0.11-0.08,0.18-0.11l1-0.54l1.7-0.92l-1.04-0.8l-1.7,0.91l-1,0.54
													c-0.07,0.04-0.13,0.07-0.19,0.11C156.38,98.01,156.26,98.11,156.15,98.21L156.15,98.21z"/>
											</g>
											<g>
												<path class="st26" d="M180.84,92.91l1.04,0.8l1.83-0.99l-1.04-0.8L180.84,92.91L180.84,92.91z M180.59,88.75l1.04,0.8
													c0.7-0.36,1.74-0.28,2.34,0.18l0.03,0.02c0.51,0.4,0.54,0.94,0.12,1.33c-0.07,0.07-0.16,0.13-0.26,0.19l1.04,0.8
													c0.21-0.11,0.38-0.24,0.53-0.38c0.81-0.75,0.75-1.82-0.24-2.59l-0.03-0.02C183.98,88.19,181.94,88.04,180.59,88.75
													L180.59,88.75z M177.31,86.21l1.04,0.8l1.7-0.92l-1.04-0.8L177.31,86.21L177.31,86.21z M175.76,87.14
													c-0.81,0.75-0.75,1.82,0.24,2.58l0.04,0.03c1.12,0.87,3.04,1.05,4.39,0.43l-1.04-0.81c-0.69,0.26-1.61,0.16-2.16-0.27
													l-0.04-0.03c-0.51-0.4-0.54-0.94-0.12-1.33c0.03-0.03,0.07-0.06,0.1-0.09l-1.04-0.81
													C175.99,86.94,175.87,87.04,175.76,87.14L175.76,87.14z"/>
											</g>
											<g>
												<polygon class="st26" points="175.1,86.06 176.13,86.85 177.17,87.66 179.39,89.38 180.43,90.19 182.68,91.93 
													183.71,92.73 184.73,93.52 185.92,92.88 184.9,92.09 183.86,91.29 181.63,89.55 180.59,88.75 178.35,87.01 
													177.31,86.21 176.29,85.42 												"/>
											</g>
										</g>
									</g>
								</g>
							</g>
							<g>
								<polygon class="st27" points="167.44,87.42 182.45,96.28 173.71,101.39 158.7,92.74 								"/>
							</g>
							<g>
								<polygon class="st28" points="182.45,105.77 173.71,110.87 173.71,101.39 182.45,96.28 								"/>
							</g>
						</g>
					</g>
				</g>
			</g>
		</g>
	</g>
</g>
</svg>
