<?xml version="1.0" encoding="utf-8"?>
<!-- Generator: Adobe Illustrator 23.0.1, SVG Export Plug-In . SVG Version: 6.00 Build 0)  -->
<svg version="1.1" id="Layer_1" xmlns="http://www.w3.org/2000/svg" xmlns:xlink="http://www.w3.org/1999/xlink" x="0px" y="0px"
	 viewBox="0 0 300 300" style="enable-background:new 0 0 300 300;" xml:space="preserve">
<style type="text/css">
	.st0{fill:#82C6ED;}
	.st1{fill:#242263;}
	.st2{fill:#88C4EB;}
	.st3{fill:#E3F3F3;}
	.st4{fill:#2B64AF;}
	.st5{fill:#FFFFFF;}
	.st6{fill:#C4DF9D;}
	.st7{fill:#48A847;}
	.st8{fill:#F99C23;}
	.st9{fill:#FBDA9F;}
	.st10{fill:#FFCF82;}
	.st11{fill:#FECA74;}
	.st12{fill:#FDDD16;}
	.st13{fill:#F9F9FA;}
	.st14{opacity:0.51;}
	.st15{fill:#F04E41;}
	.st16{fill:#EE2F24;}
	.st17{fill:#A5D6F4;}
	.st18{fill:#CDE9F9;}
	.st19{fill:#558ECB;}
	.st20{fill:#C2E5F9;}
	.st21{fill:#1D7EB9;}
	.st22{fill:#E52125;}
	.st23{opacity:0.53;}
</style>
<g>
	<g>
		<rect x="0.21" y="0.46" class="st0" width="299.79" height="299.79"/>
		<g>
			<g>
				<g>
					<g>
						<path class="st1" d="M234.77,201.89H126.08c-8.2,0-14.84-6.64-14.84-14.84v-65.58c0-8.19,6.64-14.84,14.84-14.84h108.69
							c8.2,0,14.84,6.64,14.84,14.84v65.58C249.61,195.24,242.97,201.89,234.77,201.89z"/>
					</g>
					<g>
						<g>
							<path class="st2" d="M120.72,122.67c0-3.62,2.94-6.56,6.56-6.56h108.69c1.19,0,2.3,0.34,3.26,0.9
								c-1.14-1.96-3.23-3.3-5.66-3.3H124.88c-3.62,0-6.56,2.94-6.56,6.56v65.58c0,2.43,1.34,4.53,3.3,5.66
								c-0.56-0.96-0.9-2.07-0.9-3.26V122.67z"/>
						</g>
						<g>
							<path class="st2" d="M239.24,117.01c0.56,0.97,0.9,2.07,0.9,3.26v65.58c0,3.62-2.94,6.56-6.56,6.56h-108.7
								c-1.19,0-2.3-0.34-3.26-0.9c1.13,1.96,3.24,3.3,5.66,3.3h108.69c3.62,0,6.56-2.94,6.56-6.56v-65.58
								C242.54,120.24,241.2,118.14,239.24,117.01z"/>
						</g>
						<g>
							<path class="st3" d="M233.57,192.41c3.62,0,6.56-2.94,6.56-6.56v-65.58c0-1.19-0.34-2.3-0.9-3.26
								c-0.97-0.56-2.07-0.9-3.26-0.9H127.28c-3.62,0-6.56,2.94-6.56,6.56v65.58c0,1.19,0.34,2.3,0.9,3.26
								c0.96,0.56,2.07,0.9,3.26,0.9L233.57,192.41L233.57,192.41z"/>
						</g>
					</g>
					<g>
						<polygon class="st4" points="203.38,224.83 157.47,224.83 162.44,201.89 196.76,201.89 						"/>
					</g>
					<g>
						<rect x="148.19" y="224.83" class="st1" width="64.48" height="8.69"/>
					</g>
				</g>
			</g>
			<g>
				<g>
					<g>
						
							<rect x="215.71" y="199.63" transform="matrix(0.9849 -0.173 0.173 0.9849 -32.4844 43.0488)" class="st5" width="30.01" height="16.5"/>
					</g>
					<g>
						<g>
							
								<rect x="216.27" y="195.87" transform="matrix(0.9849 -0.173 0.173 0.9849 -31.8259 43.0887)" class="st6" width="30.01" height="16.5"/>
						</g>
						<g>
							<path class="st7" d="M242.68,209.98l-20.39,3.58c-0.22-1.25-1.41-2.08-2.66-1.86l-1.61-9.18c1.25-0.22,2.08-1.41,1.86-2.66
								l20.39-3.58c0.22,1.25,1.41,2.08,2.66,1.86l1.61,9.18C243.3,207.54,242.46,208.73,242.68,209.98z"/>
						</g>
					</g>
					<g>
						<path class="st8" d="M248.27,242.59h-34.83c-0.96,0-1.74-0.78-1.74-1.74v-36.69c0-0.96,0.78-1.74,1.74-1.74h34.83
							c0.96,0,1.74,0.78,1.74,1.74v36.69C250.01,241.81,249.23,242.59,248.27,242.59z"/>
					</g>
					<g>
						<g>
							<g>
								<path class="st9" d="M212.14,205.01c-0.24,0-0.43-0.19-0.43-0.43c0-0.24,0.19-0.43,0.43-0.43H213l0,0
									c0.24,0,0.43,0.19,0.43,0.43c0,0.24-0.19,0.43-0.43,0.43H212.14L212.14,205.01z"/>
							</g>
							<g>
								<path class="st9" d="M215.62,241.72c-0.24,0-0.43-0.19-0.43-0.43c0-0.24,0.19-0.43,0.43-0.43h1.72l0,0
									c0.24,0,0.43,0.19,0.43,0.43s-0.19,0.43-0.43,0.43H215.62L215.62,241.72z M219.06,241.72c-0.24,0-0.43-0.19-0.43-0.43
									c0-0.24,0.19-0.43,0.43-0.43h1.72l0,0c0.24,0,0.43,0.19,0.43,0.43c0,0.24-0.19,0.43-0.43,0.43H219.06L219.06,241.72z
									 M222.51,241.72c-0.24,0-0.43-0.19-0.43-0.43c0-0.24,0.19-0.43,0.43-0.43h1.72l0,0c0.24,0,0.43,0.19,0.43,0.43
									c0,0.24-0.19,0.43-0.43,0.43H222.51L222.51,241.72z M225.96,241.72c-0.24,0-0.43-0.19-0.43-0.43c0-0.24,0.19-0.43,0.43-0.43
									h1.72l0,0c0.24,0,0.43,0.19,0.43,0.43s-0.19,0.43-0.43,0.43H225.96L225.96,241.72z M229.4,241.72
									c-0.24,0-0.43-0.19-0.43-0.43c0-0.24,0.19-0.43,0.43-0.43h1.72l0,0c0.24,0,0.43,0.19,0.43,0.43c0,0.24-0.19,0.43-0.43,0.43
									H229.4L229.4,241.72z M232.85,241.71c-0.24,0-0.43-0.19-0.43-0.43c0-0.24,0.19-0.43,0.43-0.43h1.72l0,0
									c0.24,0,0.43,0.19,0.43,0.43c0,0.24-0.19,0.43-0.43,0.43H232.85L232.85,241.71z M236.3,241.71c-0.24,0-0.43-0.19-0.43-0.43
									c0-0.24,0.19-0.43,0.43-0.43h1.72l0,0c0.24,0,0.43,0.19,0.43,0.43c0,0.24-0.19,0.43-0.43,0.43H236.3L236.3,241.71z
									 M239.75,241.71c-0.24,0-0.43-0.19-0.43-0.43c0-0.24,0.19-0.43,0.43-0.43h1.72l0,0c0.24,0,0.43,0.19,0.43,0.43
									c0,0.24-0.19,0.43-0.43,0.43H239.75L239.75,241.71z M243.19,241.71c-0.24,0-0.43-0.19-0.43-0.43c0-0.24,0.19-0.43,0.43-0.43
									h1.72l0,0c0.24,0,0.43,0.19,0.43,0.43c0,0.24-0.19,0.43-0.43,0.43H243.19L243.19,241.71z M246.63,241.59
									c-0.19,0-0.36-0.12-0.41-0.31c-0.07-0.23,0.07-0.47,0.29-0.53c0.47-0.14,0.89-0.41,1.21-0.79c0.15-0.18,0.42-0.21,0.61-0.05
									c0.18,0.15,0.21,0.42,0.05,0.61c-0.43,0.51-0.99,0.88-1.63,1.07C246.71,241.59,246.67,241.59,246.63,241.59z M248.71,239.1
									c-0.01,0-0.03,0-0.04,0c-0.24-0.02-0.41-0.23-0.39-0.47c0.01-0.08,0.01-0.17,0.01-0.25v-1.43c0-0.24,0.19-0.43,0.43-0.43
									l0,0c0.24,0,0.43,0.19,0.43,0.43v1.43c0,0.11-0.01,0.22-0.02,0.33C249.12,238.93,248.93,239.1,248.71,239.1z M248.72,235.65
									c-0.24,0-0.43-0.19-0.43-0.43v-1.72c0-0.24,0.19-0.43,0.43-0.43l0,0c0.24,0,0.43,0.19,0.43,0.43v1.72
									C249.15,235.46,248.96,235.65,248.72,235.65L248.72,235.65z M248.72,232.2c-0.24,0-0.43-0.19-0.43-0.43v-1.72
									c0-0.24,0.19-0.43,0.43-0.43l0,0c0.24,0,0.43,0.19,0.43,0.43v1.72C249.15,232.01,248.96,232.2,248.72,232.2L248.72,232.2z
									 M248.72,228.76c-0.24,0-0.43-0.19-0.43-0.43v-1.72c0-0.24,0.19-0.43,0.43-0.43l0,0c0.24,0,0.43,0.19,0.43,0.43v1.72
									C249.15,228.56,248.95,228.76,248.72,228.76L248.72,228.76z M248.72,225.31c-0.24,0-0.43-0.19-0.43-0.43v-1.72
									c0-0.24,0.19-0.43,0.43-0.43l0,0c0.24,0,0.43,0.19,0.43,0.43v1.72C249.15,225.12,248.95,225.31,248.72,225.31L248.72,225.31
									z M248.71,221.86c-0.24,0-0.43-0.19-0.43-0.43v-1.72c0-0.24,0.19-0.43,0.43-0.43l0,0c0.24,0,0.43,0.19,0.43,0.43v1.72
									C249.14,221.67,248.95,221.86,248.71,221.86L248.71,221.86z M248.71,218.41c-0.24,0-0.43-0.19-0.43-0.43v-1.73
									c0-0.24,0.19-0.43,0.43-0.43l0,0c0.24,0,0.43,0.19,0.43,0.43v1.72C249.14,218.22,248.95,218.41,248.71,218.41L248.71,218.41
									z M248.71,214.97c-0.24,0-0.43-0.19-0.43-0.43v-1.72c0-0.24,0.19-0.43,0.43-0.43l0,0c0.24,0,0.43,0.19,0.43,0.43v1.72
									C249.14,214.77,248.95,214.97,248.71,214.97L248.71,214.97z M248.71,211.52c-0.24,0-0.43-0.19-0.43-0.43v-1.72
									c0-0.24,0.19-0.43,0.43-0.43l0,0c0.24,0,0.43,0.19,0.43,0.43v1.72C249.14,211.33,248.95,211.52,248.71,211.52L248.71,211.52
									z M248.71,208.07c-0.24,0-0.43-0.19-0.43-0.43v-1.06c0-0.18-0.03-0.35-0.09-0.51c-0.08-0.22,0.04-0.47,0.27-0.55
									c0.22-0.07,0.47,0.04,0.55,0.27c0.09,0.25,0.13,0.52,0.13,0.79v1.06C249.14,207.88,248.94,208.07,248.71,208.07
									L248.71,208.07z M247.45,205.14c-0.05,0-0.11-0.01-0.16-0.03c-0.19-0.08-0.39-0.12-0.6-0.12h-0.94l0,0
									c-0.24,0-0.43-0.19-0.43-0.43c0-0.24,0.19-0.43,0.43-0.43h0.94c0.32,0,0.63,0.06,0.93,0.18c0.22,0.09,0.32,0.34,0.23,0.56
									C247.78,205.04,247.62,205.14,247.45,205.14z M214.72,205.01c-0.24,0-0.43-0.19-0.43-0.43c0-0.24,0.19-0.43,0.43-0.43h1.72
									l0,0c0.24,0,0.43,0.19,0.43,0.43c0,0.24-0.19,0.43-0.43,0.43H214.72L214.72,205.01z M218.17,205.01
									c-0.24,0-0.43-0.19-0.43-0.43c0-0.24,0.19-0.43,0.43-0.43h1.72l0,0c0.24,0,0.43,0.19,0.43,0.43c0,0.24-0.19,0.43-0.43,0.43
									H218.17L218.17,205.01z M221.61,205.01c-0.24,0-0.43-0.19-0.43-0.43c0-0.24,0.19-0.43,0.43-0.43h1.72l0,0
									c0.24,0,0.43,0.19,0.43,0.43c0,0.24-0.19,0.43-0.43,0.43H221.61L221.61,205.01z M225.06,205.01c-0.24,0-0.43-0.19-0.43-0.43
									c0-0.24,0.19-0.43,0.43-0.43h1.72l0,0c0.24,0,0.43,0.19,0.43,0.43c0,0.24-0.19,0.43-0.43,0.43H225.06L225.06,205.01z
									 M228.51,205c-0.24,0-0.43-0.19-0.43-0.43c0-0.24,0.19-0.43,0.43-0.43h1.72l0,0c0.24,0,0.43,0.19,0.43,0.43
									c0,0.24-0.19,0.43-0.43,0.43H228.51L228.51,205z M231.96,205c-0.24,0-0.43-0.19-0.43-0.43c0-0.24,0.19-0.43,0.43-0.43h1.72
									l0,0c0.24,0,0.43,0.19,0.43,0.43c0,0.24-0.19,0.43-0.43,0.43H231.96L231.96,205z M235.4,205c-0.24,0-0.43-0.19-0.43-0.43
									c0-0.24,0.19-0.43,0.43-0.43h1.72l0,0c0.24,0,0.43,0.19,0.43,0.43c0,0.24-0.19,0.43-0.43,0.43H235.4L235.4,205z M238.85,205
									c-0.24,0-0.43-0.19-0.43-0.43c0-0.24,0.19-0.43,0.43-0.43h1.72l0,0c0.24,0,0.43,0.19,0.43,0.43s-0.19,0.43-0.43,0.43H238.85
									L238.85,205z M242.3,205c-0.24,0-0.43-0.19-0.43-0.43c0-0.24,0.19-0.43,0.43-0.43h1.72l0,0c0.24,0,0.43,0.19,0.43,0.43
									c0,0.24-0.19,0.43-0.43,0.43H242.3L242.3,205z"/>
							</g>
							<g>
								<path class="st9" d="M213.02,241.73c-0.24,0-0.43-0.19-0.43-0.43c0-0.24,0.19-0.43,0.43-0.43h0.86l0,0
									c0.24,0,0.43,0.19,0.43,0.43c0,0.24-0.19,0.43-0.43,0.43H213.02L213.02,241.73z"/>
							</g>
						</g>
					</g>
					<g>
						<g>
							<g>
								<path class="st9" d="M211.93,204.58c-0.24,0-0.43-0.19-0.43-0.43c0-0.24,0.19-0.43,0.43-0.43h0.86l0,0
									c0.24,0,0.43,0.19,0.43,0.43c0,0.24-0.19,0.43-0.43,0.43H211.93L211.93,204.58z"/>
							</g>
							<g>
								<path class="st9" d="M214.55,241.29c-0.24,0-0.43-0.19-0.43-0.43s0.19-0.43,0.43-0.43h1.74l0,0c0.24,0,0.43,0.19,0.43,0.43
									c0,0.24-0.19,0.43-0.43,0.43H214.55L214.55,241.29z M218.03,241.29c-0.24,0-0.43-0.19-0.43-0.43c0-0.24,0.19-0.43,0.43-0.43
									h1.74l0,0c0.24,0,0.43,0.19,0.43,0.43c0,0.24-0.19,0.43-0.43,0.43H218.03L218.03,241.29z M221.5,241.29
									c-0.24,0-0.43-0.19-0.43-0.43c0-0.24,0.19-0.43,0.43-0.43h1.74l0,0c0.24,0,0.43,0.19,0.43,0.43c0,0.24-0.19,0.43-0.43,0.43
									H221.5L221.5,241.29z M224.97,241.29c-0.24,0-0.43-0.19-0.43-0.43s0.19-0.43,0.43-0.43h1.74l0,0c0.24,0,0.43,0.19,0.43,0.43
									c0,0.24-0.19,0.43-0.43,0.43H224.97L224.97,241.29z M228.45,241.29c-0.24,0-0.43-0.19-0.43-0.43c0-0.24,0.19-0.43,0.43-0.43
									h1.74l0,0c0.24,0,0.43,0.19,0.43,0.43s-0.19,0.43-0.43,0.43H228.45L228.45,241.29z M231.92,241.28
									c-0.24,0-0.43-0.19-0.43-0.43c0-0.24,0.19-0.43,0.43-0.43h1.74l0,0c0.24,0,0.43,0.19,0.43,0.43c0,0.24-0.19,0.43-0.43,0.43
									H231.92L231.92,241.28z M235.39,241.28c-0.24,0-0.43-0.19-0.43-0.43c0-0.24,0.19-0.43,0.43-0.43h1.74l0,0
									c0.24,0,0.43,0.19,0.43,0.43c0,0.24-0.19,0.43-0.43,0.43H235.39L235.39,241.28z M238.86,241.28c-0.24,0-0.43-0.19-0.43-0.43
									c0-0.24,0.19-0.43,0.43-0.43h1.74l0,0c0.24,0,0.43,0.19,0.43,0.43c0,0.24-0.19,0.43-0.43,0.43H238.86L238.86,241.28z
									 M242.34,241.28c-0.24,0-0.43-0.19-0.43-0.43c0-0.24,0.19-0.43,0.43-0.43h1.74l0,0c0.24,0,0.43,0.19,0.43,0.43
									c0,0.24-0.19,0.43-0.43,0.43H242.34L242.34,241.28z M246.15,241.28h-0.34c-0.24,0-0.43-0.19-0.43-0.43
									c0-0.24,0.19-0.43,0.43-0.43h0.34c0.38,0,0.74-0.12,1.04-0.35c0.19-0.14,0.46-0.11,0.6,0.08s0.11,0.46-0.08,0.6
									C247.26,241.09,246.72,241.28,246.15,241.28z M248.28,239.37c-0.02,0-0.03,0-0.05,0c-0.24-0.03-0.41-0.24-0.38-0.47
									c0.01-0.06,0.01-0.13,0.01-0.19v-1.5c0-0.24,0.19-0.43,0.43-0.43l0,0c0.24,0,0.43,0.19,0.43,0.43v1.5
									c0,0.1,0,0.19-0.02,0.28C248.68,239.2,248.5,239.37,248.28,239.37z M248.29,235.89c-0.24,0-0.43-0.19-0.43-0.43v-1.74
									c0-0.24,0.19-0.43,0.43-0.43l0,0c0.24,0,0.43,0.19,0.43,0.43v1.74C248.72,235.7,248.53,235.89,248.29,235.89L248.29,235.89z
									 M248.29,232.42c-0.24,0-0.43-0.19-0.43-0.43v-1.74c0-0.24,0.19-0.43,0.43-0.43l0,0c0.24,0,0.43,0.19,0.43,0.43v1.74
									C248.72,232.23,248.53,232.42,248.29,232.42L248.29,232.42z M248.29,228.95c-0.24,0-0.43-0.19-0.43-0.43v-1.74
									c0-0.24,0.19-0.43,0.43-0.43l0,0c0.24,0,0.43,0.19,0.43,0.43v1.74C248.72,228.76,248.52,228.95,248.29,228.95L248.29,228.95
									z M248.28,225.47c-0.24,0-0.43-0.19-0.43-0.43v-1.74c0-0.24,0.19-0.43,0.43-0.43l0,0c0.24,0,0.43,0.19,0.43,0.43v1.74
									C248.72,225.28,248.52,225.47,248.28,225.47L248.28,225.47z M248.28,222c-0.24,0-0.43-0.19-0.43-0.43v-1.74
									c0-0.24,0.19-0.43,0.43-0.43l0,0c0.24,0,0.43,0.19,0.43,0.43v1.74C248.71,221.81,248.52,222,248.28,222L248.28,222z
									 M248.28,218.53c-0.24,0-0.43-0.19-0.43-0.43v-1.74c0-0.24,0.19-0.43,0.43-0.43l0,0c0.24,0,0.43,0.19,0.43,0.43v1.74
									C248.71,218.34,248.52,218.53,248.28,218.53L248.28,218.53z M248.28,215.06c-0.24,0-0.43-0.19-0.43-0.43v-1.74
									c0-0.24,0.19-0.43,0.43-0.43l0,0c0.24,0,0.43,0.19,0.43,0.43v1.74C248.71,214.86,248.52,215.06,248.28,215.06L248.28,215.06
									z M248.28,211.58c-0.24,0-0.43-0.19-0.43-0.43v-1.74c0-0.24,0.19-0.43,0.43-0.43l0,0c0.24,0,0.43,0.19,0.43,0.43v1.74
									C248.71,211.39,248.51,211.58,248.28,211.58L248.28,211.58z M248.28,208.11c-0.24,0-0.43-0.19-0.43-0.43v-1.71
									c-0.01-0.24,0.17-0.44,0.4-0.45c0.24-0.02,0.44,0.17,0.45,0.4c0,0.05,0,0.1,0,0.16v1.61
									C248.71,207.92,248.51,208.11,248.28,208.11L248.28,208.11z M247.44,204.91c-0.09,0-0.17-0.03-0.25-0.08
									c-0.25-0.18-0.55-0.27-0.86-0.27h-0.55c-0.24,0-0.43-0.19-0.43-0.43c0-0.24,0.19-0.43,0.43-0.43h0.55
									c0.49,0,0.96,0.15,1.36,0.43c0.19,0.14,0.24,0.4,0.11,0.6C247.71,204.85,247.58,204.91,247.44,204.91z M214.52,204.58
									c-0.24,0-0.43-0.19-0.43-0.43c0-0.24,0.19-0.43,0.43-0.43h1.74l0,0c0.24,0,0.43,0.19,0.43,0.43c0,0.24-0.19,0.43-0.43,0.43
									H214.52L214.52,204.58z M217.99,204.58c-0.24,0-0.43-0.19-0.43-0.43c0-0.24,0.19-0.43,0.43-0.43h1.74l0,0
									c0.24,0,0.43,0.19,0.43,0.43c0,0.24-0.19,0.43-0.43,0.43H217.99L217.99,204.58z M221.47,204.58c-0.24,0-0.43-0.19-0.43-0.43
									c0-0.24,0.19-0.43,0.43-0.43h1.74l0,0c0.24,0,0.43,0.19,0.43,0.43c0,0.24-0.19,0.43-0.43,0.43H221.47L221.47,204.58z
									 M224.94,204.57c-0.24,0-0.43-0.19-0.43-0.43c0-0.24,0.19-0.43,0.43-0.43h1.74l0,0c0.24,0,0.43,0.19,0.43,0.43
									c0,0.24-0.19,0.43-0.43,0.43H224.94L224.94,204.57z M228.41,204.57c-0.24,0-0.43-0.19-0.43-0.43c0-0.24,0.19-0.43,0.43-0.43
									h1.74l0,0c0.24,0,0.43,0.19,0.43,0.43c0,0.24-0.19,0.43-0.43,0.43H228.41L228.41,204.57z M231.89,204.57
									c-0.24,0-0.43-0.19-0.43-0.43c0-0.24,0.19-0.43,0.43-0.43h1.74l0,0c0.24,0,0.43,0.19,0.43,0.43c0,0.24-0.19,0.43-0.43,0.43
									H231.89L231.89,204.57z M235.36,204.57c-0.24,0-0.43-0.19-0.43-0.43c0-0.24,0.19-0.43,0.43-0.43h1.74l0,0
									c0.24,0,0.43,0.19,0.43,0.43c0,0.24-0.19,0.43-0.43,0.43H235.36L235.36,204.57z M238.83,204.57c-0.24,0-0.43-0.19-0.43-0.43
									c0-0.24,0.19-0.43,0.43-0.43h1.74l0,0c0.24,0,0.43,0.19,0.43,0.43c0,0.24-0.19,0.43-0.43,0.43H238.83L238.83,204.57z
									 M242.31,204.57c-0.24,0-0.43-0.19-0.43-0.43c0-0.24,0.19-0.43,0.43-0.43h1.74l0,0c0.24,0,0.43,0.19,0.43,0.43
									c0,0.24-0.19,0.43-0.43,0.43H242.31L242.31,204.57z"/>
							</g>
							<g>
								<path class="st9" d="M211.94,241.3c-0.24,0-0.43-0.19-0.43-0.43c0-0.24,0.19-0.43,0.43-0.43h0.86l0,0
									c0.24,0,0.43,0.19,0.43,0.43c0,0.24-0.19,0.43-0.43,0.43H211.94L211.94,241.3z"/>
							</g>
						</g>
					</g>
					<g>
						<path class="st10" d="M250.61,228.3h-17.05c-1.02,0-1.84-0.86-1.84-1.92v-4.47c0-1.06,0.82-1.92,1.84-1.92h17.05
							c1.02,0,1.84,0.86,1.84,1.92v4.47C252.45,227.44,251.63,228.3,250.61,228.3z"/>
					</g>
					<g>
						<path class="st11" d="M250.54,227.44h-17.76c-1.06,0-1.92-0.86-1.92-1.92v-4.47c0-1.06,0.86-1.92,1.92-1.92h17.76
							c1.06,0,1.92,0.86,1.92,1.92v4.47C252.45,226.58,251.6,227.44,250.54,227.44z"/>
					</g>
					<g>
						<path class="st12" d="M237.82,223.29c0,1.35-1.09,2.44-2.44,2.44s-2.44-1.09-2.44-2.44s1.09-2.44,2.44-2.44
							C236.73,220.85,237.82,221.94,237.82,223.29z"/>
					</g>
					<g>
						<path class="st13" d="M237.05,223.29c0,0.93-0.75,1.68-1.68,1.68s-1.68-0.75-1.68-1.68s0.75-1.68,1.68-1.68
							S237.05,222.36,237.05,223.29z"/>
					</g>
				</g>
				<g class="st14">
					<rect x="214.07" y="202.41" class="st8" width="4.73" height="40.17"/>
				</g>
			</g>
			<g>
				<g>
					<g>
						<path class="st15" d="M200.55,154.7v5.37c0,2.6-2.11,4.71-4.71,4.71h-27.52c-2.6,0-4.71-2.11-4.71-4.71v-5.37h-3.13v5.37
							c0,4.33,3.51,7.85,7.85,7.85h27.52c4.33,0,7.85-3.51,7.85-7.85v-5.37H200.55z"/>
					</g>
					<g>
						<path class="st16" d="M163.6,149.05c0-2.6,2.11-4.71,4.71-4.71h27.52c2.6,0,4.71,2.11,4.71,4.71v5.65h3.13v-5.65
							c0-4.33-3.51-7.85-7.85-7.85H168.3c-4.33,0-7.85,3.51-7.85,7.85v5.65h3.13v-5.65H163.6z"/>
					</g>
					<g>
						<path class="st17" d="M163.6,160.07c0,2.6,2.11,4.71,4.71,4.71h27.52c2.6,0,4.71-2.11,4.71-4.71v-5.37H163.6V160.07z"/>
					</g>
					<g>
						<path class="st18" d="M195.84,144.33h-27.52c-2.6,0-4.71,2.11-4.71,4.71v5.65h36.95v-5.65
							C200.55,146.45,198.44,144.33,195.84,144.33z"/>
					</g>
				</g>
				<g>
					<g>
						<g>
							<path class="st1" d="M172.58,154.29h-2.88c-0.32,0-0.59-0.26-0.59-0.59v-6.07c0-0.32,0.26-0.59,0.59-0.59h2.88
								c2.16,0,3.91,1.61,3.91,3.59C176.49,152.68,174.73,154.29,172.58,154.29z M170.28,153.11h2.29c1.51,0,2.73-1.09,2.73-2.42
								c0-1.39-1.23-2.48-2.73-2.48h-2.29V153.11z"/>
						</g>
						<g>
							<path class="st1" d="M173.34,162.08h-3.64c-0.32,0-0.59-0.26-0.59-0.59v-7.79c0-0.32,0.26-0.59,0.59-0.59h3.64
								c2.16,0,3.91,1.61,3.91,3.59v1.78C177.25,160.47,175.49,162.08,173.34,162.08z M170.28,160.9h3.05
								c1.51,0,2.73-1.08,2.73-2.42v-1.78c0-1.33-1.23-2.42-2.73-2.42h-3.05V160.9z"/>
						</g>
					</g>
					<g>
						<path class="st1" d="M182.16,162.08c-2.26,0-4.04-1.64-4.04-3.65v-10.8c0-0.32,0.26-0.59,0.59-0.59
							c0.32,0,0.59,0.26,0.59,0.59v10.8c0,1.36,1.25,2.48,2.8,2.48c1.61,0,2.87-1.11,2.87-2.48v-10.8c0-0.32,0.26-0.59,0.59-0.59
							c0.32,0,0.59,0.26,0.59,0.59v10.8C186.13,160.44,184.35,162.08,182.16,162.08z"/>
					</g>
					<g>
						<g>
							<path class="st1" d="M191.7,155.15c-0.22,0-0.43-0.13-0.53-0.33l-3.42-6.93c-0.14-0.29-0.02-0.64,0.27-0.79
								c0.29-0.14,0.64-0.02,0.79,0.27l2.89,5.86l2.89-5.86c0.14-0.29,0.5-0.41,0.79-0.27s0.41,0.5,0.27,0.79l-3.42,6.93
								C192.13,155.02,191.93,155.15,191.7,155.15z"/>
						</g>
						<g>
							<path class="st1" d="M191.7,162.08c-0.32,0-0.59-0.26-0.59-0.59v-6.93c0-0.32,0.26-0.59,0.59-0.59
								c0.32,0,0.59,0.26,0.59,0.59v6.93C192.29,161.81,192.03,162.08,191.7,162.08z"/>
						</g>
					</g>
				</g>
				<g>
					<polygon class="st5" points="186.83,164.07 191.86,176.39 193.67,174.58 198.55,179.46 202.22,175.8 197.33,170.92 
						199.14,169.11 					"/>
					<path class="st1" d="M198.55,180.05c-0.15,0-0.3-0.06-0.42-0.17l-4.47-4.47l-1.39,1.39c-0.14,0.14-0.33,0.2-0.53,0.16
						c-0.19-0.04-0.35-0.17-0.43-0.35l-5.03-12.31c-0.09-0.22-0.04-0.47,0.13-0.64s0.42-0.22,0.64-0.13l12.31,5.03
						c0.18,0.07,0.31,0.24,0.35,0.43c0.04,0.19-0.02,0.39-0.16,0.53l-1.39,1.39l4.47,4.47c0.23,0.23,0.23,0.6,0,0.83l-3.66,3.66
						C198.86,179.99,198.71,180.05,198.55,180.05z M193.67,173.99c0.16,0,0.31,0.06,0.42,0.17l4.47,4.47l2.83-2.83l-4.47-4.47
						c-0.23-0.23-0.23-0.6,0-0.83l1.18-1.18l-10.2-4.17l4.17,10.2l1.18-1.18C193.36,174.05,193.51,173.99,193.67,173.99z"/>
				</g>
				<g>
					<path class="st16" d="M171.64,137.83c-0.15,0-0.3-0.06-0.42-0.17l-7.12-7.12c-0.23-0.23-0.23-0.6,0-0.83s0.6-0.23,0.83,0
						l7.12,7.12c0.23,0.23,0.23,0.6,0,0.83C171.94,137.77,171.79,137.83,171.64,137.83z"/>
				</g>
				<g>
					<path class="st16" d="M191.56,137.83c-0.15,0-0.3-0.06-0.42-0.17c-0.23-0.23-0.23-0.6,0-0.83l7.12-7.12
						c0.23-0.23,0.6-0.23,0.83,0s0.23,0.6,0,0.83l-7.12,7.12C191.86,137.77,191.71,137.83,191.56,137.83z"/>
				</g>
				<g>
					<path class="st16" d="M181.6,136.34c-0.32,0-0.59-0.26-0.59-0.59v-10.78c0-0.32,0.26-0.59,0.59-0.59
						c0.32,0,0.59,0.26,0.59,0.59v10.78C182.19,136.08,181.93,136.34,181.6,136.34z"/>
				</g>
				<g>
					<path class="st16" d="M164.53,180.04c-0.15,0-0.3-0.06-0.42-0.17c-0.23-0.23-0.23-0.6,0-0.83l7.12-7.12
						c0.23-0.23,0.6-0.23,0.83,0s0.23,0.6,0,0.83l-7.12,7.12C164.83,179.98,164.68,180.04,164.53,180.04z"/>
				</g>
				<g>
					<path class="st16" d="M181.6,185.2c-0.32,0-0.59-0.26-0.59-0.59v-10.78c0-0.32,0.26-0.59,0.59-0.59c0.32,0,0.59,0.26,0.59,0.59
						v10.78C182.19,184.93,181.93,185.2,181.6,185.2z"/>
				</g>
			</g>
			<g>
				<g>
					<g>
						<path class="st16" d="M128.23,181.83c-0.51,0-0.92-0.41-0.92-0.92v-9.24c0-7.82-5.91-11.39-11.4-11.39s-11.4,3.56-11.4,11.39
							v9.24c0,0.51-0.41,0.92-0.92,0.92c-0.51,0-0.92-0.41-0.92-0.92v-9.24c0-8.68,6.66-13.22,13.24-13.22
							c6.58,0,13.24,4.54,13.24,13.22v9.24C129.15,181.42,128.74,181.83,128.23,181.83z"/>
					</g>
				</g>
				<polygon class="st19" points="147.26,233.15 136.18,236.74 132.51,179.58 143.59,177.19 				"/>
				<path class="st20" d="M130.88,239.8H92.42c-5.27,0-9.44-4.45-9.1-9.7l3.04-47.25h50.57l3.04,47.25
					C140.32,235.35,136.15,239.8,130.88,239.8z"/>
				<g>
					<g>
						<path class="st16" d="M111.66,228.07c-9.25,0-16.77-7.51-16.77-16.75c0-9.23,7.52-16.75,16.77-16.75v1.84
							c-8.23,0-14.93,6.69-14.93,14.91s6.7,14.91,14.93,14.91V228.07z"/>
					</g>
					<g>
						<path class="st16" d="M111.66,228.07c-4.96,0-8.85-7.36-8.85-16.75s3.89-16.75,8.85-16.75v1.84c-3.8,0-7.01,6.83-7.01,14.91
							s3.21,14.91,7.01,14.91V228.07z"/>
					</g>
					<g>
						<rect x="110.74" y="195.49" class="st16" width="1.84" height="31.66"/>
					</g>
					<g>
						<path class="st16" d="M111.66,228.07v-1.84c3.8,0,7.01-6.83,7.01-14.91s-3.21-14.91-7.01-14.91v-1.84
							c4.96,0,8.84,7.36,8.84,16.75S116.62,228.07,111.66,228.07z"/>
					</g>
					<g>
						<path class="st16" d="M111.66,228.07v-1.84c8.23,0,14.93-6.69,14.93-14.91s-6.7-14.91-14.93-14.91v-1.84
							c9.25,0,16.77,7.51,16.77,16.75C128.43,220.55,120.91,228.07,111.66,228.07z"/>
					</g>
					<g>
						<g>
							<rect x="95.79" y="210.4" class="st16" width="31.7" height="1.84"/>
						</g>
					</g>
					<g>
						<path class="st16" d="M111.66,205.78c-4.89,0-9.77-1.05-13.49-3.16l0.91-1.6c6.94,3.93,18.22,3.93,25.16,0l0.91,1.6
							C121.43,204.73,116.54,205.78,111.66,205.78z"/>
					</g>
					<g>
						<path class="st16" d="M124.24,221.19c-6.94-3.93-18.23-3.93-25.16,0l-0.91-1.6c7.44-4.21,19.54-4.21,26.98,0L124.24,221.19z"
							/>
					</g>
				</g>
				<g>
					<polygon class="st4" points="86.36,182.84 93.42,182.84 93.42,180.02 					"/>
					<polygon class="st21" points="135.52,180.49 135.52,182.84 136.94,182.84 					"/>
					<polygon class="st4" points="143.59,177.19 93.02,177.19 93.42,180.02 93.42,182.84 135.52,182.84 135.52,180.49 					"/>
				</g>
				<g>
					<g>
						<path class="st16" d="M123.96,188.65c-0.51,0-0.92-0.41-0.92-0.92v-14.12c0-7.82-5.91-11.39-11.4-11.39
							c-5.49,0-11.4,3.56-11.4,11.39v14.12c0,0.51-0.41,0.92-0.92,0.92c-0.51,0-0.92-0.41-0.92-0.92v-14.12
							c0-8.68,6.66-13.22,13.24-13.22s13.24,4.54,13.24,13.22v14.12C124.88,188.23,124.47,188.65,123.96,188.65z"/>
					</g>
				</g>
			</g>
			<g>
				<g>
					<rect x="174.86" y="222.82" class="st1" width="6.17" height="3.39"/>
					<rect x="173.14" y="219.4" class="st4" width="1.42" height="3.95"/>
					<rect x="174.56" y="219.4" class="st5" width="1.42" height="3.95"/>
					<rect x="175.98" y="219.4" class="st2" width="1.42" height="3.95"/>
					<rect x="177.41" y="219.4" class="st19" width="1.42" height="3.95"/>
					<rect x="178.83" y="219.4" class="st4" width="1.42" height="3.95"/>
					<rect x="180.25" y="219.4" class="st1" width="1.42" height="3.95"/>
					<rect x="181.67" y="219.4" class="st4" width="1.42" height="3.95"/>
				</g>
				
					<rect x="192.8" y="230.71" transform="matrix(0.7071 -0.7071 0.7071 0.7071 -106.6669 205.9524)" class="st2" width="4.95" height="2.05"/>
				
					<rect x="191.35" y="229.26" transform="matrix(0.7071 -0.7071 0.7071 0.7071 -106.0686 204.5022)" class="st19" width="4.95" height="2.05"/>
				<path class="st4" d="M199.97,247.61c0,12.07-9.78,21.85-21.85,21.85s-21.85-9.78-21.85-21.85s9.78-21.85,21.85-21.85
					C190.19,225.76,199.97,235.55,199.97,247.61z"/>
				<g>
					<g>
						<path class="st2" d="M164.01,261.73c3.62,3.62,8.61,5.85,14.11,5.85c11.01,0,19.96-8.96,19.96-19.96
							c0-5.5-2.24-10.5-5.85-14.11L164.01,261.73z"/>
						<path class="st19" d="M178.12,227.65c-11.01,0-19.96,8.96-19.96,19.96c0,5.5,2.24,10.5,5.85,14.11l28.22-28.22
							C188.61,229.89,183.62,227.65,178.12,227.65z"/>
					</g>
				</g>
				<path class="st3" d="M178.12,265.69c-9.97,0-18.08-8.11-18.08-18.08c0-9.97,8.11-18.08,18.08-18.08s18.08,8.11,18.08,18.08
					C196.2,257.58,188.09,265.69,178.12,265.69z"/>
				<g>
					<path class="st22" d="M178.12,249.06c-0.37,0-0.74-0.14-1.02-0.42c-0.57-0.57-0.57-1.48,0-2.05l9.37-9.37
						c0.57-0.57,1.48-0.57,2.05,0s0.57,1.48,0,2.05l-9.37,9.37C178.86,248.92,178.49,249.06,178.12,249.06z"/>
				</g>
				<g>
					<g>
						<path class="st2" d="M177.16,248.57c0.24,0.24,0.58,0.4,0.95,0.4c0.74,0,1.35-0.61,1.35-1.35c0-0.37-0.15-0.71-0.39-0.95
							L177.16,248.57z"/>
						<path class="st19" d="M178.12,246.26c-0.74,0-1.35,0.61-1.35,1.35c0,0.37,0.15,0.71,0.4,0.95l1.91-1.91
							C178.83,246.42,178.49,246.26,178.12,246.26z"/>
					</g>
				</g>
			</g>
			<g class="st23">
				<polygon class="st5" points="240.14,133.02 120.72,160.62 120.72,148.72 240.14,121.71 				"/>
			</g>
		</g>
	</g>
</g>
</svg>
