<?xml version="1.0" encoding="utf-8"?>
<!-- Generator: Adobe Illustrator 23.0.1, SVG Export Plug-In . SVG Version: 6.00 Build 0)  -->
<svg version="1.1" id="Layer_1" xmlns="http://www.w3.org/2000/svg" xmlns:xlink="http://www.w3.org/1999/xlink" x="0px" y="0px"
	 viewBox="0 0 300 300" style="enable-background:new 0 0 300 300;" xml:space="preserve">
<style type="text/css">
	.st0{fill:#FFFDF4;}
	.st1{fill:#EE2A24;}
	.st2{fill:#F15C51;}
	.st3{fill:#FFF7EE;}
	.st4{fill:#FBB042;}
	.st5{fill:#97D9F0;}
	.st6{fill:#E7F6FC;}
	.st7{fill:#03C0DE;}
	.st8{fill:#D1EDF8;}
	.st9{fill:#79D0EB;}
	.st10{fill:#FDC178;}
	.st11{fill:#272629;}
	.st12{fill:#D3EEF9;}
	.st13{fill:#EF453B;}
	.st14{fill:#EC2C25;}
	.st15{fill:#DA1F26;}
	.st16{fill:#F15955;}
	.st17{fill:#B9E4F0;}
	.st18{fill:#A8DDE4;}
	.st19{fill:#1D3B6C;}
	.st20{fill:#9CD9E3;}
	.st21{fill:#D86527;}
	.st22{fill:#EE3724;}
	.st23{fill:#F8A495;}
	.st24{fill:#992F20;}
	.st25{fill:#F4816B;}
	.st26{fill:#242263;}
	.st27{fill:#88C4EB;}
	.st28{fill:#2B64AF;}
	.st29{fill:#FFFFFF;}
	.st30{fill:#EE2F24;}
	.st31{fill:#F04E41;}
	.st32{fill:#881A1A;}
	.st33{fill:#E52125;}
	.st34{fill:#992120;}
	.st35{fill:#B3DBF4;}
	.st36{fill:#FFE5C0;}
	.st37{opacity:0.31;}
	.st38{fill:#F9F9FA;}
	.st39{fill:#9A5324;}
	.st40{fill:#EF3F2D;}
	.st41{fill:#F26B5A;}
	.st42{fill:#F15E5F;}
	.st43{fill:#ED2224;}
</style>
<g>
	<g>
		<g>
			<defs>
				<rect id="SVGID_1_" x="-1.93" y="1.35" width="299.9" height="298.65"/>
			</defs>
			<use xlink:href="#SVGID_1_"  style="overflow:visible;fill:#FFE475;"/>
			<clipPath id="SVGID_2_">
				<use xlink:href="#SVGID_1_"  style="overflow:visible;"/>
			</clipPath>
		</g>
		<g>
			<path class="st0" d="M152.12,256.6c-1.83,0-3.68-0.06-5.5-0.19c-0.73-0.05-1.29-0.68-1.24-1.42c0.05-0.73,0.7-1.28,1.42-1.23
				c2.17,0.15,4.38,0.21,6.54,0.17c0.01,0,0.01,0,0.02,0c0.73,0,1.32,0.58,1.33,1.31c0.01,0.73-0.58,1.34-1.31,1.35
				C152.97,256.6,152.54,256.6,152.12,256.6z M160.02,256.21c-0.68,0-1.25-0.51-1.33-1.19c-0.07-0.73,0.46-1.38,1.19-1.46
				c2.17-0.22,4.35-0.54,6.48-0.94c0.73-0.14,1.42,0.34,1.56,1.06c0.14,0.72-0.34,1.41-1.06,1.55c-2.2,0.42-4.46,0.74-6.7,0.97
				C160.11,256.2,160.06,256.21,160.02,256.21z M140.1,255.68c-0.07,0-0.14-0.01-0.21-0.02c-2.23-0.35-4.46-0.8-6.64-1.33
				c-0.71-0.18-1.15-0.9-0.97-1.61c0.18-0.71,0.9-1.15,1.61-0.97c2.1,0.52,4.26,0.95,6.41,1.29c0.73,0.11,1.22,0.79,1.11,1.52
				C141.31,255.21,140.74,255.68,140.1,255.68z M173.09,253.73c-0.58,0-1.12-0.38-1.28-0.97c-0.2-0.71,0.21-1.44,0.92-1.64
				c2.09-0.59,4.18-1.27,6.22-2.04c0.69-0.26,1.46,0.08,1.72,0.77c0.26,0.69-0.09,1.45-0.78,1.71c-2.11,0.79-4.27,1.5-6.44,2.11
				C173.33,253.72,173.21,253.73,173.09,253.73z M127.18,252.5c-0.14,0-0.29-0.02-0.43-0.07c-2.13-0.72-4.25-1.55-6.32-2.46
				c-0.67-0.3-0.98-1.08-0.68-1.75c0.3-0.67,1.08-0.97,1.76-0.68c1.99,0.88,4.04,1.67,6.1,2.37c0.7,0.24,1.07,0.99,0.83,1.69
				C128.25,252.15,127.73,252.5,127.18,252.5z M185.54,249.04c-0.5,0-0.97-0.28-1.2-0.75c-0.32-0.66-0.04-1.45,0.62-1.77
				c1.96-0.94,3.9-1.97,5.77-3.08c0.63-0.37,1.45-0.17,1.83,0.47c0.37,0.63,0.17,1.44-0.47,1.82c-1.94,1.14-3.94,2.21-5.97,3.19
				C185.93,249,185.73,249.04,185.54,249.04z M115,247.14c-0.22,0-0.44-0.05-0.64-0.16c-1.97-1.08-3.92-2.26-5.79-3.51
				c-0.61-0.41-0.78-1.23-0.37-1.84c0.41-0.61,1.24-0.77,1.85-0.36c1.81,1.2,3.69,2.34,5.59,3.39c0.64,0.35,0.88,1.16,0.52,1.8
				C115.92,246.89,115.47,247.14,115,247.14z M196.98,242.29c-0.42,0-0.82-0.19-1.08-0.55c-0.43-0.6-0.29-1.43,0.31-1.85
				c1.77-1.26,3.5-2.62,5.15-4.02c0.56-0.48,1.4-0.41,1.88,0.15c0.48,0.56,0.41,1.4-0.15,1.87c-1.71,1.45-3.5,2.85-5.33,4.16
				C197.52,242.2,197.25,242.29,196.98,242.29z M103.93,239.77c-0.29,0-0.59-0.1-0.83-0.29c-1.76-1.4-3.48-2.9-5.1-4.44
				c-0.53-0.51-0.55-1.35-0.04-1.88c0.51-0.53,1.35-0.55,1.88-0.04c1.57,1.49,3.23,2.93,4.93,4.29c0.58,0.46,0.67,1.29,0.21,1.87
				C104.71,239.6,104.32,239.77,103.93,239.77z M207.1,233.67c-0.34,0-0.68-0.13-0.93-0.38c-0.52-0.51-0.53-1.35-0.02-1.88
				c1.53-1.55,3-3.18,4.39-4.84c0.47-0.56,1.31-0.64,1.88-0.18c0.57,0.47,0.65,1.3,0.18,1.87c-1.43,1.72-2.96,3.41-4.54,5.01
				C207.79,233.54,207.44,233.67,207.1,233.67z M94.29,230.63c-0.37,0-0.74-0.15-1-0.45c-1.5-1.69-2.93-3.45-4.26-5.24
				c-0.44-0.59-0.31-1.42,0.28-1.86c0.59-0.44,1.43-0.31,1.86,0.28c1.29,1.73,2.67,3.44,4.12,5.07c0.49,0.55,0.44,1.39-0.12,1.87
				C94.92,230.52,94.61,230.63,94.29,230.63z M215.58,223.46c-0.26,0-0.53-0.08-0.76-0.24c-0.61-0.42-0.76-1.24-0.34-1.85
				c1.24-1.78,2.41-3.64,3.49-5.52c0.37-0.64,1.18-0.86,1.82-0.49c0.64,0.36,0.86,1.17,0.5,1.81c-1.11,1.94-2.33,3.86-3.61,5.71
				C216.42,223.26,216.01,223.46,215.58,223.46z M86.38,219.98c-0.45,0-0.89-0.22-1.14-0.63c-1.18-1.91-2.29-3.89-3.3-5.89
				c-0.33-0.66-0.06-1.45,0.59-1.78c0.66-0.33,1.46-0.06,1.79,0.59c0.97,1.93,2.04,3.85,3.18,5.69c0.39,0.62,0.19,1.44-0.44,1.83
				C86.85,219.91,86.61,219.98,86.38,219.98z M222.19,211.95c-0.19,0-0.38-0.04-0.56-0.12c-0.67-0.31-0.96-1.1-0.65-1.76
				c0.91-1.96,1.75-3.99,2.48-6.03c0.25-0.69,1.01-1.05,1.71-0.8c0.69,0.25,1.05,1.01,0.8,1.7c-0.76,2.11-1.63,4.22-2.57,6.25
				C223.17,211.66,222.69,211.95,222.19,211.95z M80.41,208.13c-0.53,0-1.03-0.32-1.24-0.84c-0.83-2.08-1.58-4.23-2.22-6.37
				c-0.21-0.7,0.19-1.44,0.89-1.65c0.71-0.21,1.45,0.19,1.66,0.89c0.62,2.07,1.35,4.15,2.15,6.16c0.27,0.68-0.06,1.45-0.75,1.72
				C80.74,208.1,80.57,208.13,80.41,208.13z M226.7,199.48c-0.11,0-0.23-0.01-0.34-0.04c-0.71-0.19-1.14-0.91-0.95-1.62
				c0.56-2.09,1.02-4.24,1.4-6.37c0.13-0.72,0.82-1.2,1.54-1.08c0.72,0.13,1.21,0.81,1.09,1.53c-0.38,2.21-0.87,4.42-1.44,6.59
				C227.83,199.08,227.29,199.48,226.7,199.48z M76.59,195.44c-0.62,0-1.17-0.43-1.3-1.06c-0.45-2.19-0.82-4.43-1.08-6.66
				c-0.09-0.73,0.44-1.39,1.17-1.47c0.74-0.09,1.39,0.43,1.48,1.16c0.26,2.15,0.61,4.32,1.05,6.43c0.15,0.72-0.31,1.42-1.04,1.57
				C76.77,195.43,76.68,195.44,76.59,195.44z M228.97,186.42c-0.04,0-0.08,0-0.11,0c-0.73-0.06-1.28-0.71-1.21-1.44
				c0.18-2.15,0.28-4.34,0.28-6.51c0-1.63-0.05-3.27-0.16-4.88c-0.05-0.73,0.51-1.36,1.25-1.41c0.72-0.05,1.37,0.51,1.41,1.24
				c0.11,1.67,0.16,3.37,0.16,5.05c0,2.25-0.1,4.52-0.29,6.74C230.24,185.9,229.66,186.42,228.97,186.42z M75.03,182.28
				c-0.72,0-1.31-0.57-1.33-1.29c-0.03-0.84-0.04-1.68-0.04-2.53c0-1.39,0.04-2.81,0.11-4.22c0.04-0.73,0.68-1.3,1.4-1.26
				c0.74,0.04,1.3,0.66,1.26,1.4c-0.07,1.36-0.11,2.73-0.11,4.08c0,0.82,0.01,1.63,0.04,2.44c0.02,0.73-0.55,1.34-1.29,1.37
				C75.05,182.28,75.04,182.28,75.03,182.28z M75.74,169.05c-0.06,0-0.12,0-0.19-0.01c-0.73-0.1-1.24-0.77-1.14-1.5
				c0.31-2.23,0.73-4.46,1.23-6.64c0.17-0.71,0.89-1.16,1.6-1c0.72,0.17,1.16,0.88,1,1.59c-0.49,2.1-0.89,4.25-1.19,6.41
				C76.96,168.57,76.39,169.05,75.74,169.05z M228.38,168.23c-0.65,0-1.22-0.47-1.32-1.13c-0.32-2.13-0.74-4.29-1.26-6.4
				c-0.17-0.71,0.27-1.43,0.98-1.6c0.72-0.17,1.44,0.27,1.61,0.98c0.53,2.18,0.97,4.41,1.3,6.62c0.11,0.72-0.39,1.4-1.12,1.51
				C228.52,168.23,228.45,168.23,228.38,168.23z M78.72,156.13c-0.14,0-0.27-0.02-0.41-0.07c-0.7-0.23-1.08-0.97-0.86-1.67
				c0.69-2.13,1.49-4.25,2.37-6.33c0.29-0.68,1.07-0.99,1.75-0.71c0.68,0.29,1,1.06,0.71,1.74c-0.85,2-1.62,4.06-2.28,6.11
				C79.8,155.77,79.28,156.13,78.72,156.13z M225.27,155.35c-0.56,0-1.08-0.35-1.26-0.91c-0.69-2.05-1.48-4.1-2.35-6.08
				c-0.29-0.67,0.02-1.45,0.69-1.75c0.68-0.29,1.46,0.02,1.75,0.69c0.9,2.05,1.72,4.17,2.43,6.29c0.23,0.7-0.14,1.45-0.84,1.68
				C225.55,155.33,225.41,155.35,225.27,155.35z M83.9,143.92c-0.21,0-0.42-0.05-0.62-0.15c-0.65-0.34-0.9-1.15-0.55-1.79
				c1.05-1.98,2.21-3.94,3.43-5.82c0.4-0.62,1.23-0.79,1.84-0.39c0.62,0.4,0.8,1.22,0.4,1.83c-1.18,1.82-2.29,3.71-3.31,5.63
				C84.84,143.66,84.38,143.92,83.9,143.92z M219.96,143.2c-0.47,0-0.93-0.25-1.17-0.69c-1.03-1.9-2.16-3.78-3.37-5.59
				c-0.4-0.61-0.24-1.44,0.38-1.84c0.61-0.4,1.44-0.24,1.85,0.38c1.24,1.88,2.42,3.82,3.48,5.79c0.35,0.64,0.11,1.45-0.54,1.8
				C220.39,143.15,220.17,143.2,219.96,143.2z M91.12,132.78c-0.29,0-0.57-0.09-0.81-0.28c-0.58-0.45-0.69-1.28-0.24-1.86
				c1.38-1.77,2.85-3.51,4.38-5.15c0.5-0.54,1.34-0.57,1.88-0.08c0.54,0.5,0.57,1.34,0.07,1.88c-1.47,1.59-2.89,3.26-4.23,4.98
				C91.91,132.6,91.52,132.78,91.12,132.78z M212.62,132.15c-0.39,0-0.78-0.17-1.05-0.5c-1.34-1.69-2.78-3.35-4.28-4.93
				c-0.51-0.53-0.48-1.37,0.06-1.88c0.53-0.5,1.38-0.48,1.88,0.06c1.55,1.64,3.04,3.35,4.43,5.11c0.46,0.57,0.36,1.41-0.22,1.86
				C213.2,132.05,212.91,132.15,212.62,132.15z M100.15,123.04c-0.36,0-0.72-0.15-0.98-0.43c-0.5-0.54-0.46-1.38,0.09-1.87
				c1.66-1.51,3.41-2.97,5.19-4.33c0.59-0.45,1.42-0.34,1.87,0.25c0.45,0.58,0.34,1.41-0.25,1.86c-1.72,1.32-3.41,2.72-5.02,4.18
				C100.79,122.92,100.47,123.04,100.15,123.04z M203.49,122.5c-0.32,0-0.63-0.11-0.89-0.34c-1.62-1.44-3.32-2.83-5.06-4.13
				c-0.59-0.44-0.71-1.27-0.27-1.86c0.44-0.59,1.27-0.71,1.87-0.27c1.8,1.35,3.57,2.78,5.24,4.28c0.55,0.49,0.59,1.33,0.1,1.87
				C204.22,122.35,203.86,122.5,203.49,122.5z M110.71,114.98c-0.44,0-0.87-0.22-1.12-0.61c-0.4-0.62-0.21-1.44,0.41-1.83
				c1.9-1.21,3.87-2.34,5.86-3.38c0.66-0.34,1.46-0.09,1.8,0.56c0.34,0.65,0.09,1.45-0.56,1.79c-1.92,1-3.83,2.1-5.66,3.26
				C111.21,114.91,110.96,114.98,110.71,114.98z M192.84,114.55c-0.24,0-0.48-0.07-0.7-0.2c-1.85-1.15-3.77-2.23-5.7-3.2
				c-0.66-0.33-0.92-1.13-0.58-1.78c0.33-0.65,1.13-0.92,1.79-0.58c2,1.01,3.99,2.13,5.9,3.32c0.62,0.39,0.82,1.21,0.43,1.83
				C193.72,114.33,193.29,114.55,192.84,114.55z M122.51,108.85c-0.52,0-1.02-0.31-1.23-0.82c-0.28-0.68,0.04-1.45,0.72-1.74
				c2.07-0.86,4.21-1.64,6.36-2.32c0.71-0.22,1.45,0.17,1.67,0.86c0.22,0.7-0.17,1.45-0.87,1.67c-2.07,0.66-4.14,1.41-6.14,2.24
				C122.85,108.82,122.68,108.85,122.51,108.85z M180.97,108.54c-0.17,0-0.33-0.03-0.5-0.1c-2.02-0.81-4.1-1.54-6.17-2.17
				c-0.7-0.21-1.1-0.96-0.89-1.66c0.21-0.7,0.95-1.1,1.66-0.88c2.15,0.65,4.3,1.41,6.39,2.25c0.68,0.27,1.01,1.05,0.74,1.73
				C182,108.23,181.5,108.54,180.97,108.54z M135.19,104.84c-0.61,0-1.16-0.42-1.3-1.04c-0.16-0.72,0.29-1.43,1.01-1.59
				c2.19-0.49,4.44-0.89,6.67-1.19c0.75-0.09,1.4,0.41,1.5,1.14c0.1,0.73-0.41,1.39-1.14,1.49c-2.16,0.29-4.32,0.67-6.44,1.15
				C135.38,104.83,135.28,104.84,135.19,104.84z M168.25,104.67c-0.09,0-0.18-0.01-0.28-0.03c-2.12-0.45-4.29-0.81-6.45-1.08
				c-0.73-0.09-1.25-0.75-1.16-1.48c0.09-0.73,0.77-1.23,1.49-1.16c2.24,0.28,4.49,0.65,6.68,1.12c0.72,0.15,1.18,0.86,1.03,1.57
				C169.41,104.24,168.86,104.67,168.25,104.67z M148.37,103.07c-0.71,0-1.3-0.55-1.33-1.26c-0.04-0.73,0.53-1.35,1.27-1.39
				c2.24-0.11,4.53-0.12,6.78-0.04c0.74,0.03,1.31,0.64,1.28,1.38c-0.03,0.73-0.61,1.31-1.38,1.28c-2.18-0.08-4.38-0.07-6.55,0.03
				C148.42,103.07,148.4,103.07,148.37,103.07z"/>
		</g>
		<g>
			<g>
				<g>
					<path class="st0" d="M123.8,241.42c0,10.08-8.21,18.25-18.33,18.25s-18.33-8.17-18.33-18.25c0-10.08,8.21-18.25,18.33-18.25
						S123.8,231.34,123.8,241.42z"/>
				</g>
				<g>
					<g>
						<g>
							<g>
								<path class="st1" d="M111.48,253.51h-12c-1.78,0-3.21-1.24-3.21-2.77v-5.55h18.42v5.55
									C114.69,252.26,113.25,253.51,111.48,253.51z"/>
							</g>
						</g>
						<g>
							<g>
								<path class="st2" d="M112.44,247.75H98.52c-1.55,0-2.65-1.29-2.2-2.57l1.35-3.82h15.62l1.35,3.82
									C115.09,246.46,113.98,247.75,112.44,247.75z"/>
							</g>
						</g>
						<g>
							<g>
								<path class="st3" d="M98.52,246.78c-0.38,0-0.72-0.15-0.94-0.41c-0.22-0.26-0.29-0.59-0.18-0.9l1.11-3.13h13.95l1.11,3.13
									c0.11,0.31,0.05,0.64-0.18,0.9c-0.22,0.26-0.57,0.41-0.94,0.41H98.52z"/>
							</g>
						</g>
						<g>
							<g>
								<g>
									<path class="st2" d="M110,229.33h-9.05c-1.82,0-3.29,1.27-3.29,2.84v9.2h15.62v-9.2C113.29,230.6,111.82,229.33,110,229.33
										z M112.16,240.39H98.8v-8.23c0-1.03,0.97-1.86,2.16-1.86H110c1.19,0,2.16,0.84,2.16,1.86V240.39z"/>
								</g>
							</g>
							<g>
								<g>
									<path class="st3" d="M110,230.31h-9.05c-1.19,0-2.16,0.84-2.16,1.86v8.23h13.36v-8.23
										C112.16,231.14,111.19,230.31,110,230.31z"/>
								</g>
							</g>
						</g>
						<g>
							<g>
								<path class="st4" d="M111.67,244.14h-1.12c0-2.71-2.27-4.92-5.06-4.92c-2.79,0-5.06,2.21-5.06,4.92h-1.12
									c0-3.32,2.78-6.01,6.19-6.01C108.89,238.13,111.67,240.83,111.67,244.14z"/>
							</g>
						</g>
					</g>
					<g>
						<g>
							<g>
								<polygon class="st5" points="104.28,236.2 104.02,235.67 102.66,235.67 103.18,236.2 105.44,238.51 								"/>
							</g>
						</g>
						<g>
							<g>
								<polygon class="st6" points="105.44,234.15 103.86,234.12 104.02,235.67 								"/>
							</g>
						</g>
						<g>
							<g>
								<polygon class="st7" points="104.02,235.67 104.28,236.2 105.44,238.51 106.55,236.2 106.8,235.67 								"/>
							</g>
						</g>
						<g>
							<g>
								<polygon class="st8" points="106.8,235.67 106.55,236.2 105.44,238.51 107.71,236.2 108.23,235.67 								"/>
							</g>
						</g>
						<g>
							<g>
								<polygon class="st8" points="106.89,234.12 105.44,234.15 106.8,235.67 								"/>
							</g>
						</g>
						<g>
							<g>
								<polygon class="st5" points="106.8,235.67 105.44,234.15 104.02,235.67 								"/>
							</g>
						</g>
						<g>
							<g>
								<polygon class="st9" points="103.86,234.12 102.66,235.67 104.02,235.67 								"/>
							</g>
						</g>
						<g>
							<g>
								<polygon class="st7" points="108.23,235.67 106.89,234.12 106.8,235.67 								"/>
							</g>
						</g>
					</g>
				</g>
			</g>
			<g>
				<g>
					<path class="st0" d="M117.23,144.76c0,12.15-9.89,21.99-22.09,21.99c-12.2,0-22.09-9.85-22.09-21.99
						c0-12.15,9.89-21.99,22.09-21.99C107.34,122.77,117.23,132.62,117.23,144.76z"/>
				</g>
				<g>
					<g>
						<g>
							<rect x="75.69" y="145.81" class="st10" width="1.22" height="1.42"/>
						</g>
					</g>
					<g>
						<g>
							<rect x="113.38" y="145.81" class="st10" width="1.22" height="1.42"/>
						</g>
					</g>
					<g>
						<g>
							<g>
								<g>
									<path class="st11" d="M105.97,148c0,1.15-0.94,2.08-2.09,2.08c-1.16,0-2.09-0.93-2.09-2.08c0-1.15,0.94-2.08,2.09-2.08
										C105.03,145.91,105.97,146.85,105.97,148z"/>
								</g>
							</g>
							<g>
								<g>
									<g>
										<g>
											<path class="st4" d="M103.87,149.42c-0.77,0-1.4-0.64-1.4-1.42c0-0.78,0.63-1.42,1.4-1.42c0.77,0,1.4,0.64,1.4,1.42
												C105.27,148.78,104.64,149.42,103.87,149.42z M103.87,146.94c-0.57,0-1.03,0.47-1.03,1.05c0,0.58,0.46,1.05,1.03,1.05
												c0.57,0,1.03-0.47,1.03-1.05C104.9,147.42,104.44,146.94,103.87,146.94z"/>
										</g>
									</g>
								</g>
								<g>
									<g>
										<g>
											<rect x="103.69" y="148" class="st4" width="0.37" height="1.24"/>
										</g>
									</g>
									<g>
										<g>
											<polygon class="st4" points="104.97,148.55 103.81,148.17 103.93,147.82 105.09,148.21 											"/>
										</g>
									</g>
									<g>
										<g>
											<polygon class="st4" points="104.02,148.1 103.72,147.89 104.44,146.89 104.74,147.1 											"/>
										</g>
									</g>
									<g>
										<g>
											<polygon class="st4" points="103.72,148.1 103.01,147.1 103.31,146.89 104.02,147.89 											"/>
										</g>
									</g>
									<g>
										<g>
											<polygon class="st4" points="102.77,148.55 102.66,148.21 103.81,147.82 103.93,148.17 											"/>
										</g>
									</g>
								</g>
							</g>
						</g>
						<g>
							<g>
								<g>
									<polygon class="st12" points="92.03,139.44 87.57,143.54 89.99,143.43 92.17,139.44 									"/>
								</g>
							</g>
							<g>
								<g>
									<polygon class="st11" points="93.01,139.54 92.17,139.44 89.99,143.43 90.88,143.45 									"/>
								</g>
							</g>
						</g>
						<g>
							<g>
								<polygon class="st10" points="106.8,141.91 105.8,142.74 106.17,143.39 93.4,143.08 								"/>
							</g>
						</g>
						<g>
							<g>
								<g>
									<path class="st11" d="M87,148c0,1.15-0.94,2.08-2.09,2.08s-2.09-0.93-2.09-2.08c0-1.15,0.94-2.08,2.09-2.08
										S87,146.85,87,148z"/>
								</g>
							</g>
							<g>
								<g>
									<g>
										<g>
											<path class="st4" d="M84.9,149.42c-0.77,0-1.4-0.64-1.4-1.42c0-0.78,0.63-1.42,1.4-1.42c0.77,0,1.4,0.64,1.4,1.42
												C86.3,148.78,85.67,149.42,84.9,149.42z M84.9,146.94c-0.57,0-1.03,0.47-1.03,1.05c0,0.58,0.46,1.05,1.03,1.05
												c0.57,0,1.03-0.47,1.03-1.05C85.94,147.42,85.47,146.94,84.9,146.94z"/>
										</g>
									</g>
								</g>
								<g>
									<g>
										<g>
											<rect x="84.72" y="148" class="st4" width="0.37" height="1.24"/>
										</g>
									</g>
									<g>
										<g>
											<polygon class="st4" points="86,148.55 84.85,148.17 84.96,147.82 86.12,148.21 											"/>
										</g>
									</g>
									<g>
										<g>
											<polygon class="st4" points="85.05,148.1 84.75,147.89 85.47,146.89 85.77,147.1 											"/>
										</g>
									</g>
									<g>
										<g>
											<polygon class="st4" points="84.75,148.1 84.04,147.1 84.34,146.89 85.05,147.89 											"/>
										</g>
									</g>
									<g>
										<g>
											<polygon class="st4" points="83.8,148.55 83.69,148.21 84.85,147.82 84.96,148.17 											"/>
										</g>
									</g>
								</g>
							</g>
						</g>
						<g>
							<g>
								<g>
									<path class="st13" d="M88.29,142.95l-0.61-0.01l-10.31,0.68c-0.95-0.05-1.7,0.71-1.5,1.53l12.42,0.19V142.95z"/>
								</g>
							</g>
							<g>
								<g>
									<path class="st14" d="M88.29,145.92v-0.59l-12.42-0.19l0.4,1.23c0.23,1.24,1.25,2.14,2.43,2.14h3.78v-0.96
										c0-0.97,0.89-1.75,1.98-1.75h0.67c1.06,0,2.02,0.57,2.43,1.43l1.07,0C88.42,146.85,88.29,146.4,88.29,145.92z"/>
								</g>
							</g>
							<g>
								<g>
									<path class="st13" d="M97.94,145.48l16.05,0.24l-0.01-0.55c-0.11-0.42-0.46-0.71-0.86-0.72l-6.95-1.06l-8.23-0.2h0V145.48z
										"/>
								</g>
							</g>
							<g>
								<g>
									<path class="st13" d="M88.63,147.24l-1.07,0l0.6,1.28h2.43C89.76,148.47,89.03,147.97,88.63,147.24z"/>
								</g>
							</g>
							<g>
								<g>
									<path class="st15" d="M95.64,148.51h5.59l0.56-1.07h1.97c1.34,0,1.89-0.15,2.96,0.54h6.41c0.41,0,0.73-0.28,0.86-0.65
										l-16.4-0.06C97.18,147.98,96.47,148.47,95.64,148.51z"/>
								</g>
							</g>
							<g>
								<g>
									<path class="st14" d="M113.99,145.72l-16.05-0.24v0.44c0,0.49-0.13,0.95-0.36,1.35l16.4,0.06c0-0.01,0-0.01,0.01-0.02
										l0.02-0.59L113.99,145.72z"/>
								</g>
							</g>
							<g>
								<g>
									<path class="st13" d="M90.72,148.52h4.79c0.04,0,0.09,0,0.13-0.01h-5.05C90.64,148.52,90.68,148.52,90.72,148.52z"/>
								</g>
							</g>
							<g>
								<g>
									<polygon class="st13" points="88.29,142.87 88.29,142.95 97.94,143.19 									"/>
								</g>
							</g>
							<g>
								<g>
									<path class="st13" d="M88.29,145.92c0,0.48,0.12,0.93,0.34,1.32l8.96,0.03c0.22-0.39,0.36-0.85,0.36-1.35v-0.44l-9.65-0.15
										V145.92z"/>
								</g>
							</g>
							<g>
								<g>
									<path class="st14" d="M97.59,147.27l-8.96-0.03c0.4,0.73,1.13,1.23,1.96,1.28h5.05C96.47,148.47,97.18,147.98,97.59,147.27
										z"/>
								</g>
							</g>
							<g>
								<g>
									<polygon class="st16" points="97.94,145.48 97.94,143.19 97.94,143.19 88.29,142.95 88.29,145.33 									"/>
								</g>
							</g>
						</g>
					</g>
				</g>
			</g>
			<g>
				<g>
					<ellipse class="st0" cx="206.89" cy="123.87" rx="21.93" ry="21.83"/>
				</g>
				<g>
					<g>
						<g>
							<path class="st17" d="M206.92,113.93l-3.18,3.17l-5.37-5.35l1.87-1.86c0.73-0.72,1.91-0.72,2.63,0L206.92,113.93z"/>
						</g>
					</g>
					<g>
						<g>
							<path class="st18" d="M194.18,113.91l4.88-2.63c1.17-0.63,2.6-0.5,3.63,0.33l3.39,2.72l4.44,2.93c0,0,11.42,7.61,11.45,7.62
								c2.19,0.28,3.83,2.13,3.83,4.33v0.34h-35.25l1.51-12.53C192.22,115.69,193.01,114.54,194.18,113.91z"/>
						</g>
					</g>
					<g>
						<g>
							<path class="st17" d="M202.3,118.38l1.69,1.69c0.79,0.79,0.79,2.07,0,2.86l-6.5,6.47h-6.95l0.96-7.7l8.54-3.74
								C200.81,117.62,201.71,117.79,202.3,118.38z"/>
						</g>
					</g>
					<g>
						<g>
							<path class="st12" d="M209.03,115.39l-5.52,5.49c-0.7,0.7-1.84,0.7-2.54,0l-0.03-0.03c-0.7-0.7-0.7-1.83,0-2.53l5.52-5.49
								L209.03,115.39z"/>
						</g>
					</g>
					<g>
						<g>
							<g>
								<polygon class="st19" points="209.25,119.46 208.81,119.14 210.31,117.09 210.74,117.41 								"/>
							</g>
						</g>
						<g>
							<g>
								<polygon class="st19" points="210.74,120.48 210.31,120.16 211.8,118.12 212.24,118.43 								"/>
							</g>
						</g>
						<g>
							<g>
								<polygon class="st19" points="212.24,121.51 211.8,121.19 213.3,119.14 213.74,119.46 								"/>
							</g>
						</g>
						<g>
							<g>
								<polygon class="st19" points="213.74,122.53 213.3,122.21 214.79,120.16 215.23,120.48 								"/>
							</g>
						</g>
						<g>
							<g>
								<polygon class="st19" points="215.23,123.55 214.79,123.24 216.29,121.19 216.73,121.51 								"/>
							</g>
						</g>
						<g>
							<g>
								<polygon class="st19" points="216.73,124.58 216.29,124.26 217.78,122.21 218.22,122.53 								"/>
							</g>
						</g>
						<g>
							<g>
								<polygon class="st19" points="218.22,125.6 217.78,125.28 219.28,123.24 219.72,123.55 								"/>
							</g>
						</g>
					</g>
					<g>
						<g>
							<polygon class="st19" points="209.42,122.31 205.33,126.39 204.36,125.43 208.46,121.35 							"/>
						</g>
					</g>
					<g>
						<g>
							<polygon class="st19" points="212.77,123.88 208.67,127.97 207.7,127 211.8,122.92 							"/>
						</g>
					</g>
					<g>
						<g>
							<g>
								<path class="st12" d="M225.03,126.73l-11.77,0.66l-10.82-2.78l-4.95,4.92h28.3v-0.34
									C225.8,128.28,225.52,127.44,225.03,126.73z"/>
							</g>
						</g>
					</g>
					<g>
						<g>
							<rect x="190.55" y="129.15" class="st20" width="35.25" height="2.41"/>
						</g>
					</g>
				</g>
			</g>
			<g>
				<g>
					<path class="st0" d="M238.1,222.63c0,11.46-9.33,20.76-20.85,20.76s-20.85-9.29-20.85-20.76c0-11.46,9.33-20.76,20.85-20.76
						S238.1,211.17,238.1,222.63z"/>
				</g>
				<g>
					<g>
						<path class="st21" d="M205.35,213.8c0.6-1.22,2.26-2.11,3.75-1.96c1.85-0.49-0.88,1.16,2.18,1.48
							c1.43-0.05,2.51-1.13,3.43-1.44c0.93-0.43,1.69-0.09,2.67-0.04c1.91-0.85,3.34,0.66,6.19,1.51c3-0.29,0.22-1.98,2.09-1.51
							c1.43-0.13,2.97,0.71,3.52,1.9c0.12,0.21,0.2,0.43,0.27,0.65c0.1-0.15,0.2-0.29,0.3-0.42c0.01-0.01,0.02-0.02,0.02-0.03
							c-0.06-0.17-0.13-0.33-0.22-0.48c-0.13-0.24-0.3-0.49-0.51-0.73c-0.68-0.9-2.09-1.36-3.39-1.28
							c-1.25,0.02-0.86-0.05-0.87,0.42c0.02,0.38-0.18,1.05-1.29,0.96c-1.11-0.07-1.99-0.86-2.92-1.27
							c-1.05-0.53-2.02-0.15-3.21-0.1c-1.19-0.04-2.11-0.44-3.13,0.09c-0.9,0.4-1.77,1.19-2.9,1.26c-1.12,0.09-1.35-0.58-1.35-0.96
							c-0.03-0.46,0.35-0.37-0.9-0.39c-1.29-0.07-2.74,0.35-3.48,1.23c-0.26,0.28-0.47,0.57-0.63,0.84
							c-0.09,0.15-0.16,0.3-0.23,0.46c0.1,0.14,0.21,0.29,0.31,0.44C205.14,214.2,205.23,213.99,205.35,213.8z"/>
					</g>
					<g>
						<path class="st22" d="M225.66,211.84c-1.87-0.47,0.92,1.21-2.09,1.51c-2.85-0.85-4.28-2.36-6.19-1.51
							c-0.97-0.05-1.74-0.39-2.67,0.04c-0.92,0.31-2,1.39-3.43,1.44c-3.06-0.32-0.33-1.97-2.18-1.48c-1.48-0.15-3.15,0.74-3.75,1.96
							c-0.12,0.19-0.21,0.4-0.28,0.61c0.71,1.05,1.46,2.62,1.64,4.89c0.15,1.93,0.24,3.85,0.29,5.34c6.81-0.85,13.69-0.85,20.5,0
							c0.05-1.49,0.14-3.41,0.29-5.34c0.18-2.28,0.94-3.86,1.65-4.91c-0.07-0.23-0.15-0.45-0.27-0.65
							C228.63,212.55,227.09,211.71,225.66,211.84z"/>
					</g>
					<g>
						<path class="st23" d="M202.33,217.55c-0.74,0-1.33-0.59-1.33-1.33c0-0.73,0.6-1.33,1.33-1.33c0.7,0,1.7,0.83,1.92,1.85
							c0.31,1.48,0.89,3.47,0.66,4.97c-0.11,0.73-0.44,2.92-0.44,2.92c-0.02,0.12-0.03,0.24-0.04,0.36
							c0.86-0.13,1.72-0.25,2.58-0.36c-0.05-1.49-0.14-3.41-0.29-5.34c-0.18-2.27-0.93-3.83-1.64-4.89
							c-0.11-0.16-0.21-0.31-0.31-0.44v0c-0.49-0.65-1.56-1.2-2.43-1.2c-1.34,0-2.43,1.08-2.43,2.42c0,1.33,1.09,2.42,2.43,2.42
							c0.19,0,0.38-0.03,0.56-0.07l-0.04-0.08C202.69,217.52,202.51,217.55,202.33,217.55z"/>
					</g>
					<g>
						<polygon class="st23" points="204.36,226.89 204.35,227.43 204.36,227.43 204.36,227.28 						"/>
					</g>
					<g>
						<path class="st21" d="M204.36,226.58V225c0.02,0,0.04-0.01,0.06-0.01c0.01-0.12,0.02-0.24,0.04-0.36c0,0,0.33-2.19,0.44-2.92
							c0.23-1.5-0.35-3.49-0.66-4.97c-0.22-1.02-1.22-1.85-1.92-1.85c-0.74,0-1.33,0.59-1.33,1.33c0,0.73,0.6,1.33,1.33,1.33
							c0.18,0,0.36-0.04,0.52-0.11l0.04,0.08l0.18,0.38c0.55,1.13,0.74,2.38,0.55,3.62l-0.44,2.92c-0.06,0.37-0.08,0.74-0.08,1.12
							l0.22,8.45h0.87l0.17-6.58l0.01-0.54V226.58z M202.33,217.05c-0.44,0-0.79-0.35-0.79-0.79c0-0.43,0.35-0.79,0.79-0.79
							c0.44,0,0.79,0.35,0.79,0.79C203.12,216.7,202.77,217.05,202.33,217.05z"/>
					</g>
					<g>
						<path class="st23" d="M232.18,212.77c-0.86,0-1.91,0.54-2.4,1.17c-0.01,0.01-0.02,0.02-0.02,0.03c-0.1,0.13-0.2,0.27-0.3,0.42
							c-0.71,1.06-1.47,2.63-1.65,4.91c-0.15,1.93-0.24,3.85-0.29,5.34c0.86,0.11,1.72,0.23,2.58,0.36
							c-0.01-0.12-0.02-0.24-0.04-0.36c0,0-0.33-2.19-0.44-2.92c-0.23-1.5,0.34-3.49,0.66-4.97c0.22-1.02,1.22-1.85,1.92-1.85
							c0.74,0,1.33,0.59,1.33,1.33c0,0.73-0.6,1.33-1.33,1.33c-0.18,0-0.36-0.04-0.52-0.11l-0.04,0.08
							c0.18,0.04,0.37,0.07,0.56,0.07c1.34,0,2.43-1.08,2.43-2.42C234.61,213.85,233.52,212.77,232.18,212.77z"/>
					</g>
					<g>
						<polygon class="st23" points="230.13,226.58 230.13,227.28 230.13,227.43 230.16,227.43 230.13,226.45 						"/>
					</g>
					<g>
						<path class="st21" d="M232.18,217.55c0.74,0,1.33-0.59,1.33-1.33c0-0.73-0.6-1.33-1.33-1.33c-0.7,0-1.7,0.83-1.92,1.85
							c-0.31,1.48-0.89,3.47-0.66,4.97c0.11,0.73,0.44,2.92,0.44,2.92c0.02,0.12,0.03,0.24,0.04,0.36c0.02,0,0.04,0.01,0.05,0.01
							v1.45l0.02,0.98l0.17,6.58h0.87l0.22-8.45c0-0.37-0.03-0.75-0.08-1.12l-0.44-2.92c-0.19-1.24,0-2.49,0.55-3.62l0.18-0.38
							l0.04-0.08C231.82,217.52,232,217.55,232.18,217.55z M231.4,216.26c0-0.43,0.35-0.79,0.79-0.79c0.44,0,0.79,0.35,0.79,0.79
							c0,0.43-0.35,0.79-0.79,0.79C231.75,217.05,231.4,216.7,231.4,216.26z"/>
					</g>
					<g>
						<polygon class="st24" points="204.36,227.28 204.36,227.43 204.36,228.69 230.13,228.69 230.13,227.43 230.13,227.28 						
							"/>
					</g>
					<g>
						<path class="st22" d="M204.36,226.58v0.31v0.4h25.77v-0.7C221.54,226.58,212.95,226.58,204.36,226.58z"/>
					</g>
					<g>
						<path class="st25" d="M207,224.63c-0.86,0.11-1.72,0.22-2.58,0.36c-0.02,0-0.04,0.01-0.06,0.01v1.58c8.59,0,17.18,0,25.77,0
							v-0.13V225c-0.02,0-0.03-0.01-0.05-0.01c-0.86-0.13-1.72-0.25-2.58-0.36C220.7,223.79,213.81,223.79,207,224.63z"/>
					</g>
					<g>
						<path class="st24" d="M203.12,216.26c0-0.43-0.35-0.79-0.79-0.79c-0.44,0-0.79,0.35-0.79,0.79c0,0.43,0.35,0.79,0.79,0.79
							C202.77,217.05,203.12,216.7,203.12,216.26z"/>
					</g>
					<g>
						<path class="st24" d="M232.98,216.26c0-0.43-0.35-0.79-0.79-0.79c-0.43,0-0.79,0.35-0.79,0.79c0,0.43,0.35,0.79,0.79,0.79
							C232.62,217.05,232.98,216.7,232.98,216.26z"/>
					</g>
				</g>
			</g>
			<g>
				<g>
					<g>
						<g>
							<g>
								<path class="st26" d="M174.71,248.46h-44.09c-2.58,0-4.67-2.08-4.67-4.65v-69.17c0-2.57,2.09-4.65,4.67-4.65h44.09
									c2.58,0,4.67,2.08,4.67,4.65v69.17C179.38,246.37,177.29,248.46,174.71,248.46z"/>
							</g>
						</g>
						<g>
							<g>
								<path class="st27" d="M131.74,233.42v-53.01c0-2.57,2.09-4.65,4.67-4.65h32.5c2.58,0,4.67,2.08,4.67,4.65v53.01
									c0,2.57-2.09,4.65-4.67,4.65h-32.5C133.83,238.07,131.74,235.99,131.74,233.42z"/>
							</g>
						</g>
						<g>
							<g>
								<rect x="136.33" y="241.43" class="st28" width="7.58" height="4.35"/>
							</g>
						</g>
						<g>
							<g>
								<rect x="149.54" y="241.43" class="st28" width="7.58" height="4.35"/>
							</g>
						</g>
					</g>
					<g>
						<g>
							<g id="XMLID_2_">
								<g>
									<g>
										<g>
											<path class="st29" d="M183.06,166.85c0.38,0.69,0.58,1.47,0.58,2.25v9.03h-0.08c0,2.39-1.94,4.32-4.35,4.32
												c-2.4,0-4.34-1.94-4.34-4.32h-0.08v-9.35c0-0.58-0.11-1.16-0.32-1.71l-6.53-16.75v-0.1h6.11v0.1L183.06,166.85z"/>
										</g>
									</g>
									<g>
										<g>
											<path class="st30" d="M174.46,167.08c0.21,0.55,0.32,1.12,0.32,1.71v9.35h-0.08c0,2.39-1.95,4.32-4.35,4.32
												c-2.4,0-4.34-1.94-4.34-4.32h-0.08v-9.69c0-0.36-0.04-0.72-0.13-1.07l-3.99-17.05v-0.1h6.11v0.1L174.46,167.08z"/>
										</g>
									</g>
									<g>
										<g>
											<path class="st29" d="M165.81,167.37c0.08,0.35,0.13,0.71,0.13,1.07v9.69h-0.08c0,2.39-1.95,4.32-4.34,4.32
												c-2.4,0-4.35-1.94-4.35-4.32h-0.08v-10.05c0-0.12-0.01-0.24-0.01-0.37l-1.36-17.39v-0.1h6.11v0.1L165.81,167.37z"/>
										</g>
									</g>
									<g>
										<g>
											<path class="st30" d="M157.07,167.72c0.01,0.12,0.01,0.24,0.01,0.37v10.05h-0.08c0,2.39-1.94,4.32-4.34,4.32
												c-2.4,0-4.35-1.94-4.35-4.32h-0.08v-10.05c0-0.12,0.01-0.24,0.01-0.37l1.36-17.39v-0.1h6.11v0.1L157.07,167.72z"/>
										</g>
									</g>
									<g>
										<g>
											<path class="st29" d="M149.61,150.23v0.1l-1.36,17.39c-0.01,0.12-0.01,0.24-0.01,0.37v10.05h-0.08
												c0,2.39-1.94,4.32-4.34,4.32c-2.4,0-4.35-1.94-4.35-4.32h-0.08v-9.69c0-0.36,0.04-0.72,0.12-1.07l3.98-17.05v-0.1H149.61
												z"/>
										</g>
									</g>
									<g>
										<g>
											<path class="st30" d="M143.5,150.23v0.1l-3.98,17.05c-0.08,0.35-0.12,0.71-0.12,1.07v9.69h-0.08
												c0,2.39-1.94,4.32-4.35,4.32c-2.4,0-4.34-1.94-4.34-4.32h-0.08v-9.35c0-0.58,0.11-1.16,0.32-1.71l6.53-16.75v-0.1H143.5z
												"/>
										</g>
									</g>
									<g>
										<g>
											<path class="st29" d="M137.39,150.23v0.1l-6.53,16.75c-0.21,0.54-0.32,1.12-0.32,1.71v9.35h-0.08
												c0,2.39-1.95,4.32-4.35,4.32c-2.4,0-4.34-1.94-4.34-4.32h-0.08v-9.03c0-0.79,0.2-1.56,0.58-2.25l9.02-16.52v-0.1H137.39z
												"/>
										</g>
									</g>
									<g>
										<g>
											<path class="st31" d="M174.04,147.91v2.31h-6.11h-6.11h-6.11h-6.11h-6.11h-6.1h-6.1v-2.31c0-1.74,1.42-3.15,3.17-3.15
												h36.42C172.62,144.76,174.04,146.17,174.04,147.91z"/>
										</g>
									</g>
								</g>
							</g>
						</g>
					</g>
					<g>
						<g>
							<g>
								<g>
									<path class="st32" d="M156.28,193.4c-0.36-0.36-0.95-0.36-1.31,0l-0.01,0.01c-0.36,0.36-0.36,0.95,0,1.31l6.76,6.69h2.66
										L156.28,193.4z"/>
								</g>
							</g>
							<g>
								<g>
									<path class="st30" d="M168.98,202.29h-30.31c-0.92,0-1.66,0.74-1.66,1.66v0.03c0,0.92,0.75,1.66,1.66,1.66h30.31
										c0.92,0,1.66-0.74,1.66-1.66v-0.03C170.65,203.03,169.9,202.29,168.98,202.29z"/>
								</g>
								<g>
									<path class="st30" d="M168.98,206.48h-30.31c-1.39,0-2.52-1.13-2.52-2.51c0-1.42,1.13-2.54,2.52-2.54h30.31
										c1.39,0,2.52,1.12,2.52,2.51C171.5,205.36,170.37,206.48,168.98,206.48z M138.67,203.14c-0.45,0-0.81,0.36-0.81,0.81
										c0,0.48,0.36,0.84,0.81,0.84h30.31c0.45,0,0.81-0.36,0.81-0.81c0-0.48-0.36-0.84-0.81-0.84H138.67z"/>
								</g>
							</g>
							<g>
								<g>
									<path class="st31" d="M137.53,203.94c-0.29,0-0.53-0.24-0.53-0.52c0-0.32,0.24-0.56,0.53-0.56h30.32
										c0.29,0,0.53,0.24,0.53,0.52c0,0.32-0.24,0.56-0.53,0.56H137.53z"/>
								</g>
							</g>
						</g>
						<g>
							<g>
								<g>
									<path class="st33" d="M153.49,208.1c0-0.07,0.03-0.13,0.08-0.19c0.07-0.07,0.17-0.11,0.32-0.11c0,0,0.01,0,0.01,0
										c0.24,0.01,0.44,0.19,0.44,0.38l0,0.81h4.63l0.12-0.95c0.05-0.14,0.22-0.24,0.41-0.24c0.04,0,0.08,0,0.13,0.02
										c0.12,0.03,0.22,0.09,0.27,0.18c0.03,0.05,0.05,0.12,0.03,0.21c-0.01,0.02-0.01,0.04-0.01,0.07l-0.09,0.71h4.76l0.27-0.92
										c0.04-0.15,0.22-0.26,0.41-0.26c0.04,0,0.08,0,0.14,0.02c0.12,0.03,0.22,0.09,0.27,0.18c0.03,0.05,0.05,0.12,0.03,0.21
										l-0.23,0.77h3.32l0.67-2.55c-0.16,0.03-0.32,0.05-0.49,0.05h-30.31c-0.1,0-0.19-0.02-0.28-0.03l2.54,2.53h1.44l-0.23-0.77
										c-0.03-0.09,0-0.16,0.03-0.21c0.05-0.09,0.15-0.16,0.29-0.19c0.04-0.01,0.08-0.01,0.12-0.01c0.2,0,0.37,0.11,0.41,0.26
										l0.27,0.92h4.76l-0.09-0.71c0-0.02-0.01-0.04-0.01-0.07c-0.02-0.09,0-0.16,0.03-0.21c0.05-0.09,0.15-0.16,0.29-0.19
										c0.22-0.05,0.46,0.05,0.52,0.22l0.12,0.95h4.62L153.49,208.1z"/>
								</g>
							</g>
							<g>
								<g>
									<path class="st30" d="M165.48,209l-2.87,9.81c-0.04,0.15-0.22,0.26-0.41,0.26c-0.04,0-0.08,0-0.14-0.02
										c-0.12-0.03-0.22-0.09-0.27-0.18c-0.03-0.05-0.05-0.12-0.03-0.21l2.83-9.66h-4.76l-1.27,9.84
										c-0.06,0.14-0.22,0.24-0.41,0.24c-0.04,0-0.08,0-0.14-0.02c-0.12-0.03-0.22-0.09-0.27-0.18c-0.03-0.05-0.05-0.12-0.03-0.21
										c0.01-0.02,0.01-0.04,0.01-0.07l1.24-9.6h-4.63l0.01,9.79c0,0.1-0.05,0.16-0.09,0.2c-0.07,0.06-0.17,0.1-0.28,0.1v0.43l0,0
										l-0.05-0.43c-0.24-0.01-0.44-0.19-0.44-0.39l-0.01-9.7h-4.62l1.17,9.08l0.07,0.52c0,0.02,0.01,0.04,0.01,0.07
										c0.03,0.09,0,0.16-0.03,0.21c-0.05,0.09-0.15,0.16-0.29,0.19c-0.22,0.05-0.46-0.05-0.52-0.22l-0.22-1.73l-1.05-8.1h-4.76
										l0.96,3.28l1.87,6.39c0.03,0.09,0,0.16-0.03,0.21c-0.05,0.09-0.15,0.16-0.29,0.19c-0.23,0.05-0.48-0.06-0.53-0.25
										l-2.28-7.78l-0.59-2.03h-1.44l-2.54-2.53l3.54,13.54c0.27,1.02,1.2,1.74,2.26,1.74h9.54h9.74c0.22,0,1.9,0,2.33-1.38
										c0.03-0.1,0.07-0.19,0.09-0.29l2.9-11.08H165.48z"/>
								</g>
							</g>
						</g>
						<g>
							<g>
								<g>
									<path class="st34" d="M150.8,193.4l-8.1,8.02h1.33l8.07-8.03C151.73,193.05,151.16,193.05,150.8,193.4z"/>
								</g>
							</g>
							<g>
								<g>
									<path class="st32" d="M152.11,193.41c-0.01-0.01-0.01-0.01-0.02-0.02l-8.07,8.03h1.33l6.76-6.69
										c0.36-0.36,0.37-0.94,0-1.31L152.11,193.41z"/>
								</g>
							</g>
						</g>
						<g>
							<g>
								<g>
									<path class="st34" d="M156.28,193.4l8.1,8.02h-1.33l-8.07-8.03C155.35,193.05,155.92,193.05,156.28,193.4z"/>
								</g>
							</g>
							<g>
								<g>
									<path class="st32" d="M154.97,193.41c0.01-0.01,0.01-0.01,0.02-0.02l8.07,8.03h-1.33l-6.76-6.69
										c-0.36-0.36-0.37-0.94,0-1.31L154.97,193.41z"/>
								</g>
							</g>
						</g>
					</g>
					<g>
						<g>
							<g>
								<polygon class="st28" points="184.29,235.79 162.71,238.21 165.7,212.84 184.33,231.39 								"/>
							</g>
						</g>
						<g>
							<g>
								<g>
									<g>
										<rect x="165.69" y="259.32" class="st35" width="27.96" height="10.7"/>
									</g>
								</g>
								<g>
									<g>
										<path class="st28" d="M161.69,300v-26.82c0-1.74,1.42-3.16,3.17-3.16h29.04c1.75,0,3.17,1.41,3.17,3.16V300H161.69z"/>
									</g>
								</g>
							</g>
							<g>
								<g>
									<path class="st36" d="M189.69,231.91h-0.08c-2.18,0-3.95,1.76-3.95,3.94c0-2.17-1.77-3.94-3.95-3.94h-0.08
										c-2.18,0-3.95,1.76-3.95,3.94c0-2.17-1.77-3.94-3.95-3.94h-0.08c-2.18,0-3.95,1.76-3.95,3.94v-20.47
										c0-2.18-1.77-3.94-3.95-3.94h-0.08c-2.18,0-3.95,1.76-3.95,3.94v36.08c0,4.35,3.54,7.88,7.91,7.88h0.08h7.99h7.99h0.08
										c4.37,0,7.91-3.53,7.91-7.88v-15.6C193.65,233.67,191.88,231.91,189.69,231.91z"/>
								</g>
							</g>
							<g>
								<g>
									<rect x="169.6" y="259.32" class="st35" width="12.17" height="10.7"/>
								</g>
							</g>
						</g>
					</g>
				</g>
				<g class="st37">
					<g>
						<polygon class="st38" points="173.59,190.18 131.74,205.9 131.74,196.86 173.59,181.14 						"/>
					</g>
				</g>
			</g>
			<g>
				<g>
					<ellipse class="st0" cx="228.13" cy="175.9" rx="20" ry="19.92"/>
				</g>
				<g>
					<g>
						<g>
							<g>
								<path class="st39" d="M218.46,173.89c-3.39,0-6.15,2.75-6.15,6.13c0,3.38,2.76,6.13,6.15,6.13s6.15-2.75,6.15-6.13
									C224.61,176.64,221.85,173.89,218.46,173.89z M218.46,185.71c-3.16,0-5.72-2.55-5.72-5.7c0-3.15,2.56-5.7,5.72-5.7
									c3.16,0,5.72,2.55,5.72,5.7C224.18,183.16,221.62,185.71,218.46,185.71z"/>
							</g>
						</g>
						<g>
							<g>
								<path class="st40" d="M218.46,174.32c-3.16,0-5.72,2.55-5.72,5.7c0,3.15,2.56,5.7,5.72,5.7c3.16,0,5.72-2.55,5.72-5.7
									C224.18,176.87,221.62,174.32,218.46,174.32z M218.46,185.29c-2.92,0-5.29-2.36-5.29-5.27c0-2.91,2.37-5.27,5.29-5.27
									s5.3,2.36,5.3,5.27C223.75,182.92,221.37,185.29,218.46,185.29z"/>
							</g>
						</g>
					</g>
					<g>
						<g>
							<g>
								<g>
									<path class="st39" d="M237.8,173.89c-3.39,0-6.15,2.75-6.15,6.13c0,3.38,2.76,6.13,6.15,6.13c3.39,0,6.15-2.75,6.15-6.13
										C243.95,176.64,241.2,173.89,237.8,173.89z M237.8,185.71c-3.16,0-5.72-2.55-5.72-5.7c0-3.15,2.56-5.7,5.72-5.7
										c3.16,0,5.72,2.55,5.72,5.7C243.53,183.16,240.96,185.71,237.8,185.71z"/>
								</g>
							</g>
							<g>
								<g>
									<path class="st40" d="M237.8,174.32c-3.16,0-5.72,2.55-5.72,5.7c0,3.15,2.56,5.7,5.72,5.7c3.16,0,5.72-2.55,5.72-5.7
										C243.53,176.87,240.96,174.32,237.8,174.32z M237.8,185.29c-2.92,0-5.29-2.36-5.29-5.27c0-2.91,2.38-5.27,5.29-5.27
										c2.92,0,5.3,2.36,5.3,5.27C243.1,182.92,240.72,185.29,237.8,185.29z"/>
								</g>
							</g>
						</g>
						<g>
							<g>
								<path class="st41" d="M237.8,180.33c-0.15,0-0.29-0.11-0.32-0.27l-2.14-12.7c-0.03-0.17,0.09-0.34,0.26-0.37
									c0.18-0.03,0.34,0.09,0.37,0.26l2.14,12.7c0.03,0.17-0.09,0.34-0.26,0.37C237.84,180.33,237.82,180.33,237.8,180.33z"/>
							</g>
						</g>
					</g>
					<g>
						<g>
							<path class="st41" d="M225.98,180.97c-0.15,0-0.28-0.1-0.31-0.25l-2.18-10.32c-0.04-0.17,0.07-0.34,0.25-0.38
								c0.17-0.04,0.34,0.07,0.38,0.25l2.18,10.32c0.04,0.17-0.08,0.34-0.25,0.38C226.03,180.97,226.01,180.97,225.98,180.97z"/>
						</g>
					</g>
					<g>
						<g>
							<path class="st41" d="M225.98,181.08c-0.02,0-0.04,0-0.06,0l-7.23-0.96c-0.16-0.02-0.29-0.13-0.35-0.28
								c-0.05-0.15-0.02-0.32,0.09-0.43l5.92-6.35c0.06-0.07,0.15-0.11,0.24-0.13l11.44-2.13c0.19-0.03,0.38,0.06,0.46,0.23
								c0.09,0.17,0.05,0.37-0.09,0.5l-10.13,9.44C226.2,181.04,226.09,181.08,225.98,181.08z M219.63,179.38l6.21,0.82l8.91-8.3
								l-9.86,1.83L219.63,179.38z"/>
						</g>
					</g>
					<g>
						<g>
							<path class="st40" d="M231.39,170.04c-0.2,0-0.38-0.14-0.42-0.34c-0.05-0.23,0.1-0.46,0.33-0.51
								c2.72-0.58,3.79-1.18,3.93-2.2c0.02-0.13-0.02-0.19-0.06-0.23c-0.3-0.3-1.38-0.29-2.01-0.19c-0.24,0.04-0.45-0.12-0.49-0.36
								c-0.04-0.23,0.12-0.45,0.36-0.49c0.33-0.05,2.03-0.27,2.75,0.43c0.26,0.25,0.36,0.58,0.31,0.96
								c-0.24,1.66-1.94,2.35-4.6,2.92C231.45,170.04,231.42,170.04,231.39,170.04z"/>
						</g>
					</g>
					<g>
						<g>
							<path class="st39" d="M220.62,170c0,0,0.31-0.23,0.77-0.39c0.23-0.09,0.5-0.16,0.79-0.2c0.14-0.01,0.29-0.05,0.44-0.05
								c0.15,0,0.3-0.01,0.45-0.01c0.3,0.02,0.61,0.05,0.89,0.12c0.28,0.06,0.55,0.15,0.77,0.25c0.45,0.19,0.75,0.44,0.75,0.44
								l0.02,0.02c0.02,0.01,0.02,0.04,0.01,0.05c-0.01,0.01-0.02,0.01-0.03,0.01c0,0-1.22-0.02-2.43-0.03
								c-1.21-0.06-2.43-0.12-2.43-0.12c-0.02,0-0.04-0.02-0.04-0.04c0-0.01,0.01-0.02,0.01-0.03L220.62,170z"/>
						</g>
					</g>
				</g>
			</g>
			<g>
				<g>
					<path class="st0" d="M94.36,188.61c0,9.72-7.91,17.59-17.66,17.59c-9.76,0-17.66-7.88-17.66-17.59
						c0-9.71,7.91-17.59,17.66-17.59C86.45,171.02,94.36,178.9,94.36,188.61z"/>
				</g>
				<g>
					<g>
						<g>
							<rect x="77.34" y="182.34" class="st26" width="0.06" height="11.05"/>
						</g>
					</g>
					<g>
						<g>
							<path class="st35" d="M73.04,193.4v-6.82c0-2.34,1.9-4.24,4.26-4.24H76.4c-3.83,0-6.94,3.09-6.94,6.91v4.15h1.36H73.04z"/>
						</g>
					</g>
					<g>
						<g>
							<path class="st26" d="M85.88,189.53h0.02v-0.28c0-3.82-3.11-6.91-6.94-6.91h-1.52c2.35,0,4.26,1.9,4.26,4.24v6.82h1.75v-1.45
								C83.45,190.61,84.54,189.53,85.88,189.53z"/>
						</g>
					</g>
					<g>
						<g>
							<polygon class="st35" points="74.23,193.4 74.2,193.4 71.97,193.4 70.83,193.4 70.83,194.88 77.37,194.88 77.37,193.4 
								76.46,193.4 							"/>
						</g>
					</g>
					<g>
						<g>
							<polygon class="st28" points="80.52,193.4 80.49,193.4 78.41,193.4 77.34,193.4 77.34,194.88 83.45,194.88 83.45,193.4 
								82.6,193.4 							"/>
						</g>
					</g>
					<g>
						<g>
							<path class="st33" d="M73.04,193.4h-1.73h-7.06h-0.8c-0.41,0-0.74,0.33-0.74,0.74v0.01c0,0.41,0.33,0.74,0.74,0.74h0.8h8.8
								V193.4z"/>
						</g>
					</g>
					<g>
						<g>
							<polygon class="st33" points="83.45,194.88 85.9,194.88 85.9,194.88 85.9,193.4 83.45,193.4 							"/>
						</g>
					</g>
					<g>
						<g>
							<path class="st28" d="M81.7,193.4v-6.82c0-2.34-1.91-4.24-4.26-4.24H77.4v11.05H81.7z"/>
						</g>
					</g>
					<g>
						<g>
							<path class="st27" d="M73.04,186.58v6.82h4.3v-11.05H77.3C74.95,182.34,73.04,184.24,73.04,186.58z"/>
						</g>
					</g>
				</g>
			</g>
			<g>
				<g>
					<path class="st0" d="M166.04,102.63c0,11.02-8.97,19.96-20.04,19.96c-11.07,0-20.05-8.94-20.05-19.96s8.97-19.96,20.05-19.96
						C157.07,82.67,166.04,91.61,166.04,102.63z"/>
				</g>
				<g>
					<g>
						<g>
							<path class="st40" d="M149.31,92.58h7.76v6.35h-3.4v15.71H146V98.93v-2.37v-0.97C147.83,95.59,149.31,94.24,149.31,92.58z"/>
						</g>
						<g>
							<rect x="157.08" y="92.58" class="st42" width="0.71" height="6.35"/>
						</g>
						<g>
							<rect x="159.97" y="89.35" class="st43" width="0.17" height="0.32"/>
						</g>
						<g>
							<rect x="146" y="114.64" class="st42" width="7.68" height="1.28"/>
						</g>
					</g>
					<g>
						<g>
							<path class="st41" d="M142.68,92.58h-7.76v6.35h3.4v15.71H146V98.93v-2.37v-0.97C144.16,95.59,142.68,94.24,142.68,92.58z"/>
						</g>
						<g>
							<rect x="134.21" y="92.58" class="st42" width="0.71" height="6.35"/>
						</g>
						<g>
							<rect x="131.85" y="89.35" class="st43" width="0.17" height="0.32"/>
						</g>
						<g>
							<rect x="138.31" y="114.64" class="st42" width="7.68" height="1.28"/>
						</g>
					</g>
				</g>
			</g>
		</g>
	</g>
</g>
</svg>
