<?xml version="1.0" encoding="utf-8"?>
<!-- Generator: Adobe Illustrator 23.0.1, SVG Export Plug-In . SVG Version: 6.00 Build 0)  -->
<svg version="1.1" id="Layer_1" xmlns="http://www.w3.org/2000/svg" xmlns:xlink="http://www.w3.org/1999/xlink" x="0px" y="0px"
	 viewBox="0 0 300 300" style="enable-background:new 0 0 300 300;" xml:space="preserve">
<style type="text/css">
	.st0{fill:#2A9FD9;}
	.st1{fill:#FFF8DD;}
	.st2{fill:#DAF0FC;}
	.st3{enable-background:new    ;}
	.st4{fill:#F99C23;}
	.st5{fill:#B97D2B;}
	.st6{fill:#FFCF82;}
	.st7{fill:#242263;}
	.st8{fill:#88C4EB;}
	.st9{fill:#558ECB;}
	.st10{fill:#2B64AF;}
	.st11{fill:#B3DBF4;}
	.st12{fill:#CBE9FA;}
	.st13{fill:#F9F9FA;}
	.st14{fill:#DFF3FD;}
	.st15{fill:#FDDD16;}
	.st16{fill:#E0E0DF;}
	.st17{opacity:0.31;}
</style>
<g>
	<g>
		<rect x="-0.96" y="-0.46" class="st0" width="300.96" height="300.96"/>
		<g>
			<path class="st1" d="M130.24,242.5c-0.02,0-0.04,0-0.06,0c-2.27-0.1-4.56-0.33-6.79-0.66c-0.73-0.11-1.24-0.79-1.13-1.52
				c0.11-0.73,0.79-1.22,1.52-1.13c2.14,0.32,4.33,0.53,6.52,0.63c0.74,0.03,1.31,0.66,1.27,1.4
				C131.54,241.94,130.95,242.5,130.24,242.5z M136.92,242.47c-0.71,0-1.3-0.55-1.33-1.27c-0.04-0.74,0.53-1.37,1.27-1.41
				c2.17-0.11,4.36-0.34,6.51-0.68c0.74-0.1,1.41,0.39,1.53,1.12c0.11,0.73-0.39,1.41-1.12,1.53c-2.24,0.35-4.52,0.59-6.78,0.71
				C136.97,242.47,136.94,242.47,136.92,242.47z M117.03,240.54c-0.11,0-0.22-0.01-0.33-0.04c-2.2-0.56-4.39-1.23-6.52-2.01
				c-0.69-0.25-1.05-1.02-0.8-1.72c0.25-0.69,1.02-1.05,1.72-0.8c2.04,0.75,4.15,1.4,6.26,1.93c0.72,0.18,1.15,0.91,0.97,1.63
				C118.18,240.14,117.63,240.54,117.03,240.54z M150.11,240.42c-0.59,0-1.14-0.4-1.29-1c-0.19-0.71,0.24-1.45,0.96-1.63
				c2.1-0.55,4.2-1.21,6.24-1.98c0.69-0.26,1.46,0.09,1.72,0.79c0.26,0.69-0.09,1.46-0.79,1.72c-2.13,0.8-4.32,1.49-6.5,2.06
				C150.33,240.4,150.22,240.42,150.11,240.42z M104.49,235.96c-0.2,0-0.39-0.04-0.58-0.13c-2.04-0.99-4.05-2.1-5.98-3.29
				c-0.63-0.39-0.82-1.21-0.43-1.84c0.39-0.63,1.21-0.82,1.84-0.43c1.85,1.14,3.78,2.2,5.74,3.15c0.66,0.32,0.94,1.12,0.62,1.79
				C105.47,235.68,104.99,235.96,104.49,235.96z M162.62,235.74c-0.49,0-0.97-0.27-1.2-0.74c-0.33-0.66-0.06-1.46,0.61-1.79
				c1.95-0.97,3.87-2.04,5.71-3.2c0.63-0.39,1.45-0.2,1.84,0.42c0.39,0.63,0.21,1.45-0.42,1.84c-1.92,1.2-3.92,2.32-5.95,3.33
				C163.02,235.7,162.82,235.74,162.62,235.74z M93.13,228.95c-0.28,0-0.57-0.09-0.81-0.28c-1.8-1.38-3.55-2.86-5.2-4.42
				c-0.54-0.51-0.56-1.35-0.06-1.89c0.51-0.54,1.35-0.56,1.89-0.06c1.59,1.49,3.26,2.92,4.99,4.24c0.59,0.45,0.7,1.29,0.25,1.88
				C93.93,228.77,93.53,228.95,93.13,228.95z M173.92,228.65c-0.4,0-0.79-0.18-1.06-0.52c-0.45-0.58-0.35-1.42,0.23-1.88
				c1.71-1.33,3.38-2.77,4.96-4.28c0.54-0.51,1.38-0.49,1.89,0.04s0.49,1.38-0.04,1.89c-1.64,1.57-3.38,3.06-5.16,4.45
				C174.5,228.55,174.21,228.65,173.92,228.65z M83.41,219.8c-0.37,0-0.75-0.16-1.01-0.46c-1.48-1.71-2.9-3.51-4.21-5.36
				c-0.43-0.6-0.28-1.44,0.32-1.86c0.6-0.43,1.44-0.28,1.86,0.32c1.26,1.78,2.62,3.52,4.04,5.15c0.48,0.56,0.42,1.4-0.13,1.89
				C84.03,219.69,83.72,219.8,83.41,219.8z M183.58,219.43c-0.31,0-0.62-0.11-0.87-0.32c-0.56-0.48-0.63-1.33-0.15-1.89
				c1.42-1.66,2.77-3.4,4-5.18c0.42-0.61,1.26-0.76,1.86-0.34c0.61,0.42,0.76,1.26,0.34,1.86c-1.29,1.85-2.69,3.67-4.17,5.4
				C184.33,219.27,183.95,219.43,183.58,219.43z M75.71,208.9c-0.47,0-0.92-0.24-1.17-0.68c-1.11-1.97-2.14-4.02-3.04-6.1
				c-0.3-0.68,0.01-1.47,0.69-1.76c0.68-0.3,1.47,0.01,1.76,0.69c0.87,1.99,1.85,3.96,2.92,5.86c0.36,0.64,0.14,1.46-0.51,1.82
				C76.16,208.84,75.93,208.9,75.71,208.9z M191.2,208.47c-0.22,0-0.44-0.05-0.65-0.17c-0.65-0.36-0.88-1.17-0.52-1.82
				c1.06-1.9,2.03-3.88,2.88-5.88c0.29-0.68,1.08-1,1.76-0.7c0.68,0.29,0.99,1.08,0.7,1.76c-0.89,2.08-1.9,4.14-3,6.12
				C192.12,208.22,191.67,208.47,191.2,208.47z M70.36,196.67c-0.57,0-1.09-0.36-1.27-0.93c-0.69-2.15-1.28-4.37-1.75-6.59
				c-0.15-0.72,0.31-1.43,1.03-1.59c0.72-0.15,1.43,0.31,1.59,1.03c0.45,2.13,1.02,4.26,1.68,6.33c0.23,0.7-0.16,1.46-0.86,1.68
				C70.63,196.64,70.49,196.67,70.36,196.67z M196.46,196.19c-0.13,0-0.27-0.02-0.4-0.06c-0.7-0.22-1.1-0.97-0.88-1.68
				c0.65-2.08,1.2-4.21,1.63-6.34c0.15-0.72,0.85-1.19,1.58-1.04c0.72,0.15,1.19,0.85,1.04,1.58c-0.45,2.22-1.02,4.44-1.7,6.61
				C197.55,195.83,197.03,196.19,196.46,196.19z M67.59,183.61c-0.68,0-1.25-0.51-1.33-1.19c-0.24-2.25-0.37-4.54-0.39-6.81
				c-0.01-0.74,0.59-1.34,1.33-1.35h0.01c0.73,0,1.33,0.59,1.34,1.33c0.02,2.18,0.14,4.38,0.37,6.54c0.08,0.74-0.45,1.39-1.19,1.47
				C67.69,183.6,67.64,183.61,67.59,183.61z M199.13,183.11c-0.04,0-0.09,0-0.13-0.01c-0.74-0.07-1.27-0.73-1.2-1.46
				c0.22-2.15,0.33-4.35,0.33-6.54c0-0.32,0-0.65-0.01-0.97c-0.01-0.74,0.58-1.35,1.32-1.36c0.01,0,0.01,0,0.02,0
				c0.73,0,1.33,0.59,1.34,1.32c0.01,0.34,0.01,0.67,0.01,1.01c0,2.28-0.11,4.57-0.34,6.81
				C200.39,182.6,199.81,183.11,199.13,183.11z M67.49,170.26c-0.04,0-0.08,0-0.13-0.01c-0.74-0.07-1.28-0.72-1.21-1.46
				c0.21-2.26,0.54-4.53,0.97-6.75c0.14-0.72,0.84-1.2,1.57-1.06c0.72,0.14,1.2,0.85,1.06,1.57c-0.42,2.13-0.73,4.31-0.93,6.48
				C68.76,169.74,68.18,170.26,67.49,170.26z M199.02,168.78c-0.67,0-1.25-0.5-1.33-1.18c-0.25-2.16-0.61-4.34-1.08-6.46
				c-0.16-0.72,0.3-1.44,1.02-1.59c0.72-0.16,1.43,0.3,1.59,1.02c0.48,2.21,0.86,4.47,1.12,6.73c0.08,0.73-0.44,1.4-1.18,1.48
				C199.12,168.78,199.07,168.78,199.02,168.78z M70.06,157.16c-0.13,0-0.26-0.02-0.39-0.06c-0.71-0.22-1.11-0.96-0.89-1.67
				c0.66-2.16,1.44-4.32,2.32-6.41c0.28-0.68,1.07-1,1.75-0.72s1,1.07,0.72,1.75c-0.84,2.01-1.59,4.08-2.22,6.16
				C71.17,156.79,70.64,157.16,70.06,157.16z M196.15,155.75c-0.56,0-1.09-0.36-1.27-0.92c-0.68-2.06-1.47-4.11-2.36-6.11
				c-0.3-0.67,0-1.47,0.68-1.77c0.67-0.3,1.47,0,1.77,0.68c0.93,2.07,1.75,4.22,2.46,6.36c0.23,0.7-0.15,1.46-0.85,1.69
				C196.43,155.73,196.29,155.75,196.15,155.75z M75.23,144.85c-0.22,0-0.44-0.05-0.64-0.16c-0.65-0.35-0.89-1.17-0.53-1.81
				c1.08-1.99,2.28-3.94,3.56-5.82c0.42-0.61,1.25-0.77,1.86-0.35s0.77,1.25,0.35,1.86c-1.23,1.8-2.38,3.68-3.42,5.59
				C76.16,144.6,75.7,144.85,75.23,144.85z M190.72,143.56c-0.46,0-0.91-0.24-1.16-0.67c-1.08-1.88-2.27-3.74-3.54-5.51
				c-0.43-0.6-0.29-1.44,0.31-1.87c0.6-0.43,1.44-0.29,1.87,0.31c1.32,1.84,2.56,3.77,3.69,5.73c0.37,0.64,0.15,1.46-0.49,1.83
				C191.17,143.5,190.94,143.56,190.72,143.56z M82.77,133.83c-0.3,0-0.61-0.1-0.86-0.31c-0.57-0.48-0.64-1.32-0.16-1.88
				c1.46-1.73,3.03-3.41,4.65-4.98c0.53-0.51,1.38-0.5,1.89,0.03s0.5,1.38-0.03,1.89c-1.56,1.52-3.07,3.13-4.47,4.79
				C83.52,133.67,83.15,133.83,82.77,133.83z M182.93,132.71c-0.37,0-0.74-0.15-1-0.45c-1.44-1.63-2.98-3.21-4.57-4.69
				c-0.54-0.5-0.57-1.35-0.07-1.89s1.35-0.57,1.89-0.07c1.66,1.54,3.27,3.18,4.76,4.88c0.49,0.55,0.43,1.4-0.12,1.89
				C183.56,132.6,183.25,132.71,182.93,132.71z M92.36,124.54c-0.4,0-0.79-0.17-1.05-0.51c-0.46-0.58-0.36-1.42,0.22-1.88
				c1.78-1.41,3.65-2.74,5.55-3.95c0.62-0.4,1.45-0.21,1.85,0.41s0.21,1.45-0.41,1.85c-1.83,1.17-3.62,2.45-5.33,3.8
				C92.94,124.44,92.65,124.54,92.36,124.54z M173.14,123.63c-0.28,0-0.56-0.09-0.8-0.27c-1.74-1.31-3.56-2.55-5.42-3.68
				c-0.63-0.38-0.83-1.21-0.45-1.84s1.2-0.83,1.84-0.45c1.93,1.17,3.83,2.46,5.64,3.83c0.59,0.45,0.71,1.28,0.26,1.87
				C173.94,123.45,173.54,123.63,173.14,123.63z M103.61,117.36c-0.49,0-0.96-0.27-1.2-0.74c-0.33-0.66-0.07-1.46,0.59-1.8
				c2.02-1.02,4.12-1.95,6.24-2.76c0.69-0.26,1.46,0.08,1.73,0.77c0.26,0.69-0.08,1.46-0.77,1.73c-2.03,0.78-4.05,1.67-5.99,2.65
				C104.02,117.31,103.81,117.36,103.61,117.36z M161.73,116.7c-0.19,0-0.39-0.04-0.57-0.13c-1.97-0.94-4-1.78-6.05-2.51
				c-0.7-0.25-1.06-1.01-0.81-1.71s1.01-1.06,1.71-0.81c2.13,0.76,4.25,1.64,6.3,2.61c0.67,0.32,0.95,1.12,0.63,1.78
				C162.71,116.42,162.23,116.7,161.73,116.7z M116.08,112.59c-0.59,0-1.13-0.39-1.29-0.99c-0.19-0.71,0.23-1.45,0.94-1.64
				c2.18-0.59,4.43-1.07,6.67-1.44c0.73-0.11,1.42,0.38,1.54,1.1c0.12,0.73-0.38,1.42-1.11,1.54c-2.15,0.35-4.3,0.82-6.4,1.38
				C116.31,112.58,116.19,112.59,116.08,112.59z M149.15,112.22c-0.11,0-0.21-0.01-0.32-0.04c-2.11-0.52-4.27-0.93-6.43-1.24
				c-0.73-0.1-1.24-0.78-1.14-1.51s0.77-1.25,1.51-1.14c2.25,0.32,4.5,0.75,6.7,1.29c0.72,0.18,1.16,0.9,0.98,1.62
				C150.3,111.81,149.75,112.22,149.15,112.22z M129.25,110.44c-0.7,0-1.29-0.55-1.33-1.26c-0.05-0.74,0.52-1.37,1.25-1.42
				c2.26-0.14,4.56-0.16,6.82-0.08c0.74,0.03,1.31,0.65,1.29,1.39c-0.03,0.74-0.67,1.35-1.39,1.29c-2.17-0.08-4.38-0.06-6.55,0.07
				C129.3,110.44,129.28,110.44,129.25,110.44z"/>
		</g>
		<g>
			<g>
				<defs>
					<rect id="SVGID_1_" x="10.22" y="8.9" width="289.78" height="291.36"/>
				</defs>
				<clipPath id="SVGID_2_">
					<use xlink:href="#SVGID_1_"  style="overflow:visible;"/>
				</clipPath>
			</g>
		</g>
		<g>
			<path class="st2" d="M107.17,121.52c0,15.01-12.17,27.18-27.18,27.18s-27.18-12.17-27.18-27.18s12.17-27.18,27.18-27.18
				S107.17,106.51,107.17,121.52z"/>
			<g>
				<g>
					<g class="st3">
						<g>
							<g>
								<polygon class="st4" points="80.03,121.58 80.03,143.49 60.98,132.48 60.98,110.56 								"/>
							</g>
						</g>
						<g>
							<g>
								<polygon class="st5" points="99,110.57 99,132.48 80.03,143.49 80.03,121.58 								"/>
							</g>
						</g>
						<g>
							<g>
								<polygon class="st4" points="86.94,103.57 67.95,114.59 70.3,115.95 89.29,104.93 								"/>
							</g>
							<g>
								<polygon class="st6" points="80.03,99.55 60.98,110.56 67.95,114.59 86.94,103.57 								"/>
							</g>
							<g>
								<polygon class="st4" points="89.29,104.93 70.3,115.95 72.46,117.2 91.44,106.18 								"/>
							</g>
							<g>
								<polygon class="st6" points="99,110.57 91.44,106.18 72.46,117.2 80.03,121.58 								"/>
							</g>
						</g>
						<g>
							<g>
								<polygon class="st7" points="82.47,138.16 82.47,139.77 90.1,135.42 90.09,133.81 								"/>
							</g>
							<g>
								<polygon class="st7" points="83.4,136.08 84.82,135.26 84.81,131.48 85.59,131.03 84.02,129.3 82.47,132.83 83.39,132.3 
																	"/>
							</g>
							<g>
								<polygon class="st7" points="87.76,133.81 89.2,132.99 89.19,129.21 89.95,128.76 88.39,127.03 86.84,130.56 87.75,130.03 
																	"/>
							</g>
						</g>
						<g>
							<polygon class="st5" points="67.96,114.59 67.96,122.71 72.48,125.31 72.48,117.19 							"/>
						</g>
					</g>
				</g>
				<g>
					<polygon class="st4" points="78.18,113.88 69.19,113.88 72.18,112.17 81.12,112.17 					"/>
				</g>
				<g>
					<polygon class="st4" points="83.02,111.07 74.03,111.07 75.52,110.2 84.51,110.2 					"/>
				</g>
			</g>
		</g>
		<g>
			<g>
				<path class="st8" d="M178.84,147.1c2.26,7.48-1.49,9.37-1.49,9.37l-10.87-15.67l11.46,4.56L178.84,147.1z"/>
			</g>
			<g>
				<path class="st8" d="M86.83,196.81c-2.26-7.48,1.49-9.37,1.49-9.37l10.87,15.67l-11.46-4.56L86.83,196.81z"/>
			</g>
			<g>
				<g>
					<path class="st9" d="M179.4,173.21c0,25.33-20.54,45.87-45.87,45.87s-45.87-20.54-45.87-45.87s20.54-45.87,45.87-45.87
						C158.86,127.35,179.4,147.88,179.4,173.21z"/>
					<path class="st7" d="M133.53,220.45c-26.04,0-47.23-21.19-47.23-47.23s21.19-47.23,47.23-47.23s47.23,21.19,47.23,47.23
						S159.57,220.45,133.53,220.45z M133.53,128.71c-24.54,0-44.5,19.96-44.5,44.5s19.96,44.5,44.5,44.5s44.5-19.96,44.5-44.5
						S158.07,128.71,133.53,128.71z"/>
				</g>
				<g>
					<path class="st10" d="M133.53,127.35c25.33,0,45.87,20.54,45.87,45.87s-20.54,45.87-45.87,45.87V127.35z"/>
					<path class="st7" d="M133.53,220.45c-0.75,0-1.37-0.61-1.37-1.37c0-0.75,0.61-1.37,1.37-1.37c24.54,0,44.5-19.96,44.5-44.5
						s-19.96-44.5-44.5-44.5c-0.75,0-1.37-0.61-1.37-1.37s0.61-1.36,1.37-1.36c26.04,0,47.23,21.19,47.23,47.23
						C180.76,199.26,159.57,220.45,133.53,220.45z"/>
				</g>
				<g>
					<path class="st9" d="M158.82,173.21c0,25.24-11.32,45.7-25.29,45.7s-25.29-20.46-25.29-45.7s11.32-45.7,25.29-45.7
						C147.5,127.52,158.82,147.98,158.82,173.21z"/>
					<path class="st7" d="M133.53,220.27c-14.7,0-26.66-21.11-26.66-47.06s11.96-47.06,26.66-47.06s26.66,21.11,26.66,47.06
						S148.23,220.27,133.53,220.27z M133.53,128.88c-13.19,0-23.92,19.89-23.92,44.33s10.73,44.33,23.92,44.33
						s23.93-19.89,23.93-44.33C157.46,148.77,146.72,128.88,133.53,128.88z"/>
				</g>
				<g>
					<path class="st10" d="M133.53,127.52c13.97,0,25.29,20.46,25.29,45.7s-11.32,45.7-25.29,45.7V127.52z"/>
					<path class="st7" d="M133.53,220.27c-0.75,0-1.37-0.61-1.37-1.37s0.61-1.36,1.37-1.36c13.19,0,23.93-19.89,23.93-44.33
						s-10.73-44.33-23.93-44.33c-0.75,0-1.37-0.61-1.37-1.37c0-0.75,0.61-1.37,1.37-1.37c14.7,0,26.66,21.11,26.66,47.06
						C160.19,199.16,148.23,220.27,133.53,220.27z"/>
				</g>
				<g>
					<path class="st9" d="M87.66,173.21h91.73H87.66z"/>
					<path class="st7" d="M179.4,174.58H87.66c-0.75,0-1.37-0.61-1.37-1.37c0-0.75,0.61-1.37,1.37-1.37h91.73
						c0.75,0,1.36,0.61,1.36,1.37C180.76,173.97,180.15,174.58,179.4,174.58z"/>
				</g>
				<g>
					<path class="st9" d="M95.62,147.4h75.82H95.62z"/>
					<path class="st7" d="M171.44,148.76H95.62c-0.75,0-1.37-0.61-1.37-1.37c0-0.75,0.61-1.36,1.37-1.36h75.82
						c0.75,0,1.36,0.61,1.36,1.36C172.81,148.15,172.19,148.76,171.44,148.76z"/>
				</g>
				<g>
					<path class="st9" d="M95.62,198.64h75.82H95.62z"/>
					<path class="st7" d="M171.44,200.01H95.62c-0.75,0-1.37-0.61-1.37-1.37s0.61-1.37,1.37-1.37h75.82c0.75,0,1.36,0.61,1.36,1.37
						S172.19,200.01,171.44,200.01z"/>
				</g>
				<g>
					<path class="st9" d="M133.53,127.35v91.73V127.35z"/>
					<path class="st7" d="M133.53,220.45c-0.75,0-1.37-0.61-1.37-1.37v-91.73c0-0.75,0.61-1.36,1.37-1.36
						c0.75,0,1.37,0.61,1.37,1.36v91.73C134.9,219.83,134.28,220.45,133.53,220.45z"/>
				</g>
			</g>
			<g>
				<g id="XMLID_8_">
					<g>
						<path class="st11" d="M178.57,146.54c0.09,0.13,0.16,0.27,0.2,0.42C178.71,146.85,178.66,146.72,178.57,146.54z"/>
					</g>
					<g>
						<path class="st12" d="M164.5,133.78c7.08,0,12.65,9.99,14.01,12.67c-4.22-6.08-38.75,5.33-38.75,5.33
							S156.31,133.78,164.5,133.78z"/>
					</g>
				</g>
			</g>
			<g>
				<g id="XMLID_7_">
					<g>
						<path class="st11" d="M87.1,197.38c-0.09-0.13-0.16-0.27-0.2-0.42C86.95,197.07,87.01,197.2,87.1,197.38z"/>
					</g>
					<g>
						<path class="st12" d="M101.17,210.14c-7.08,0-12.65-9.99-14.01-12.67c4.22,6.08,38.75-5.33,38.75-5.33
							S109.36,210.14,101.17,210.14z"/>
					</g>
				</g>
			</g>
			<g>
				<g>
					<path class="st13" d="M172.38,165.93l-11.44,5.2l-31.52-28.97c-0.64-0.58-1.56-0.74-2.35-0.39l-0.04,0.02
						c-1.25,0.55-1.69,2.1-0.91,3.23l22.03,31.92l-7.77,3.53l-16.77,9.66l-8.11-6.09c-1.18-0.89-2.74-1.07-4.09-0.47l-0.19,0.08
						l10.25,10.88l62.93-27.76C183.16,163.94,175.22,164.68,172.38,165.93z"/>
				</g>
				<g>
					<path class="st14" d="M184.45,166.88l-0.05-0.1l-62.93,27.76l1.1,14.91l0.19-0.08c1.35-0.59,2.27-1.87,2.42-3.34l0.99-10.09
						l18.64-5.91l7.65-3.26l8.66,37.8c0.31,1.33,1.75,2.06,3,1.51l0.04-0.02c0.79-0.35,1.3-1.13,1.3-2l-0.06-42.81l11.57-4.93
						C179.8,175.07,185.7,169.72,184.45,166.88z"/>
				</g>
			</g>
		</g>
		<g>
			<path class="st2" d="M103.05,228.81c0,12.43-10.07,22.5-22.5,22.5s-22.5-10.07-22.5-22.5s10.08-22.5,22.5-22.5
				C92.98,206.31,103.05,216.38,103.05,228.81z"/>
			<g>
				<g>
					<path class="st7" d="M94.23,224.66c-0.37-0.45-0.92-0.71-1.5-0.71H73.74l-1.49-4.16c-0.31-0.88-1.15-1.46-2.08-1.46h-8.29
						c-0.28,0-0.5,0.23-0.5,0.5c0,0.28,0.23,0.51,0.5,0.51h0.49h7.8c0.5,0,0.96,0.32,1.13,0.79l4.7,13.16v-0.01l1,2.77
						c0.28,0.77,1.01,1.29,1.83,1.29h1.83l0,0l0,0h10.15c0.92,0,1.72-0.65,1.9-1.56l1.61-7.97c0.04-0.07,0.07-0.15,0.07-0.24
						c0-0.02-0.01-0.04-0.01-0.05l0.25-1.25C94.74,225.7,94.6,225.11,94.23,224.66z M90.81,236.34h-0.84l0.33-1.68h1.61l-0.19,0.93
						C91.63,236.02,91.25,236.34,90.81,236.34z M77.95,235.72l-0.38-1.06h1.97l0.46,1.68h-1.17
						C78.43,236.34,78.08,236.09,77.95,235.72z M93.45,225.3c0.18,0.22,0.25,0.5,0.19,0.77l-0.2,1h-1.66l0.41-2.11h0.53
						C93.01,224.96,93.27,225.08,93.45,225.3z M87.64,236.34l0.16-1.68h1.47l-0.33,1.68H87.64z M85.6,236.34l-0.1-1.68h1.29
						l-0.16,1.68H85.6z M83.39,236.34l-0.3-1.68h1.4l0.1,1.68H83.39z M81.04,236.34l-0.46-1.68h1.48l0.3,1.68H81.04z M80.34,224.96
						l0.38,2.11H78.5l-0.58-2.11H80.34z M83.93,224.96l0.12,2.11h-2.32l-0.38-2.11H83.93z M91.17,224.96l-0.41,2.11h-2.25l0.2-2.11
						H91.17z M87.19,230.36h-1.93l-0.13-2.28h2.28L87.19,230.36z M84.24,230.36h-1.92l-0.41-2.28h2.19L84.24,230.36z M82.5,231.37
						h1.8l0.13,2.28h-1.52L82.5,231.37z M85.31,231.37h1.78l-0.21,2.28h-1.44L85.31,231.37z M88.2,230.36l0.21-2.28h2.14l-0.45,2.28
						H88.2z M80.89,228.08l0.41,2.28h-1.89l-0.62-2.28H80.89z M78.36,230.36h-2.33l-0.81-2.28h2.51L78.36,230.36z M77.21,233.65
						l-0.81-2.28h2.24l0.62,2.28H77.21z M79.68,231.37h1.8l0.41,2.28h-1.58L79.68,231.37z M87.89,233.65l0.21-2.28h1.81l-0.45,2.28
						H87.89z M87.49,227.07h-2.43l-0.12-2.11h2.74L87.49,227.07z M92.11,233.65h-1.62l0.45-2.28h1.63L92.11,233.65z M92.77,230.36
						h-1.64l0.45-2.28h1.65L92.77,230.36z M76.88,224.96l0.58,2.11h-2.6l-0.75-2.11H76.88z"/>
				</g>
				<g>
					<circle class="st11" cx="80.17" cy="241.01" r="2.83"/>
					<path class="st7" d="M80.17,244.34c-1.84,0-3.33-1.49-3.33-3.33s1.49-3.33,3.33-3.33c1.84,0,3.33,1.49,3.33,3.33
						C83.5,242.84,82.01,244.34,80.17,244.34z M80.17,238.67c-1.29,0-2.33,1.05-2.33,2.33s1.05,2.33,2.33,2.33
						c1.29,0,2.33-1.05,2.33-2.33S81.46,238.67,80.17,238.67z"/>
				</g>
				<g>
					<path class="st11" d="M91.93,241.01c0-1.56-1.27-2.83-2.83-2.83c-1.56,0-2.83,1.27-2.83,2.83s1.27,2.83,2.83,2.83
						S91.93,242.57,91.93,241.01z"/>
					<path class="st7" d="M89.09,244.34c-1.84,0-3.33-1.49-3.33-3.33s1.49-3.33,3.33-3.33c1.84,0,3.33,1.49,3.33,3.33
						C92.43,242.84,90.93,244.34,89.09,244.34z M89.09,238.67c-1.29,0-2.33,1.05-2.33,2.33s1.05,2.33,2.33,2.33
						c1.29,0,2.33-1.05,2.33-2.33S90.38,238.67,89.09,238.67z"/>
				</g>
				<g>
					<path class="st7" d="M80.17,239c-1.11,0-2.01,0.9-2.01,2.01s0.9,2.01,2.01,2.01s2.01-0.9,2.01-2.01S81.28,239,80.17,239z"/>
					<path class="st11" d="M80.17,243.51c-1.38,0-2.51-1.12-2.51-2.51s1.12-2.51,2.51-2.51c1.38,0,2.51,1.12,2.51,2.51
						S81.56,243.51,80.17,243.51z M80.17,239.49c-0.83,0-1.51,0.68-1.51,1.51s0.68,1.51,1.51,1.51s1.51-0.68,1.51-1.51
						S81.01,239.49,80.17,239.49z"/>
				</g>
				<g>
					<path class="st7" d="M91.11,241.01c0-1.11-0.9-2.01-2.01-2.01s-2.01,0.9-2.01,2.01s0.9,2.01,2.01,2.01
						C90.2,243.02,91.11,242.12,91.11,241.01z"/>
					<path class="st11" d="M89.09,243.51c-1.38,0-2.51-1.12-2.51-2.51s1.13-2.51,2.51-2.51c1.38,0,2.51,1.12,2.51,2.51
						S90.48,243.51,89.09,243.51z M89.09,239.49c-0.83,0-1.51,0.68-1.51,1.51s0.68,1.51,1.51,1.51s1.51-0.68,1.51-1.51
						S89.93,239.49,89.09,239.49z"/>
				</g>
			</g>
		</g>
		<g>
			<ellipse class="st2" cx="208.38" cy="223.66" rx="37.22" ry="37.22"/>
			<g>
				<g>
					<path class="st8" d="M230.26,224.7h-7.82c-1,0-1.81-0.81-1.81-1.81v-4.31c0-1,0.81-1.81,1.81-1.81h6.62
						c0.81,0,1.53,0.54,1.74,1.32l1.2,4.31C232.32,223.56,231.45,224.7,230.26,224.7z"/>
				</g>
				<g>
					<rect x="221.78" y="228.12" class="st15" width="2.47" height="1.04"/>
				</g>
				<g>
					<g>
						<g>
							<path class="st15" d="M238.44,234.41h-1.26v-4.22h1.26c0.75,0,1.36,0.61,1.36,1.36v1.49
								C239.8,233.8,239.19,234.41,238.44,234.41z"/>
						</g>
						<g>
							<path class="st8" d="M236.5,225.01l-1.1-0.6l-2.01-7.06c-0.45-1.57-1.61-2.62-2.9-2.62h-11.93v9.68v4.75h-34.54v9.95h34.54
								h7.71h6.38h2.9c1.37,0,2.49-1.44,2.49-3.23v-7.89C238.03,226.69,237.43,225.52,236.5,225.01z"/>
						</g>
						<g>
							<path class="st11" d="M222.44,225.61c-1.5,0-2.72-1.22-2.72-2.72v-4.31c0-1.5,1.22-2.72,2.72-2.72h6.62
								c1.22,0,2.29,0.82,2.62,1.99l1.2,4.31c0.23,0.83,0.06,1.69-0.45,2.37c-0.52,0.68-1.31,1.08-2.17,1.08H222.44z"/>
						</g>
						<g>
							<g>
								<path class="st7" d="M219.45,233.91c-2.86,0-5.2,2.33-5.2,5.2c0,2.86,2.33,5.2,5.2,5.2c2.81,0.08,5.11-2.2,5.2-5.2
									C224.74,236.24,222.32,233.91,219.45,233.91z M219.45,241.43c-1.28,0-2.33-1.04-2.33-2.33c0-1.28,1.04-2.33,2.33-2.33
									c1.29,0,2.33,1.05,2.33,2.33C221.78,240.39,220.74,241.43,219.45,241.43z"/>
							</g>
							<g>
								<path class="st16" d="M219.45,236.78c-1.28,0-2.33,1.05-2.33,2.33s1.04,2.33,2.33,2.33c1.29,0,2.33-1.04,2.33-2.33
									C221.78,237.82,220.74,236.78,219.45,236.78z"/>
							</g>
						</g>
						<g>
							<rect x="184.02" y="206.67" class="st4" width="34.54" height="22.49"/>
						</g>
						<g>
							<path class="st11" d="M219.45,233.91c2.87,0,5.29,2.33,5.2,5.2h2.15c0-4.06-3.29-7.35-7.35-7.35c-4.06,0-7.35,3.29-7.35,7.35
								h2.15C214.25,236.24,216.59,233.91,219.45,233.91z"/>
						</g>
						<g>
							<g>
								<path class="st7" d="M195.04,233.91c-2.86,0-5.2,2.33-5.2,5.2c0,2.86,2.33,5.2,5.2,5.2c2.81,0.08,5.11-2.2,5.2-5.2
									C200.32,236.24,197.9,233.91,195.04,233.91z M195.04,241.43c-1.28,0-2.33-1.04-2.33-2.33c0-1.28,1.04-2.33,2.33-2.33
									c1.29,0,2.33,1.05,2.33,2.33C197.37,240.39,196.32,241.43,195.04,241.43z"/>
							</g>
							<g>
								<path class="st16" d="M195.04,236.78c-1.28,0-2.33,1.05-2.33,2.33s1.04,2.33,2.33,2.33c1.29,0,2.33-1.04,2.33-2.33
									C197.37,237.82,196.32,236.78,195.04,236.78z"/>
							</g>
						</g>
						<g>
							<path class="st11" d="M195.04,233.91c2.87,0,5.28,2.33,5.2,5.2h2.15c0-4.06-3.29-7.35-7.35-7.35c-4.06,0-7.35,3.29-7.35,7.35
								h2.15C189.84,236.24,192.17,233.91,195.04,233.91z"/>
						</g>
						<g class="st17">
							<rect x="184.02" y="206.67" class="st6" width="5.17" height="22.49"/>
						</g>
						<g class="st17">
							<rect x="193.81" y="206.67" class="st6" width="5.17" height="22.49"/>
						</g>
						<g class="st17">
							<rect x="203.59" y="206.67" class="st6" width="5.17" height="22.49"/>
						</g>
						<g class="st17">
							<rect x="213.38" y="206.67" class="st6" width="5.17" height="22.49"/>
						</g>
					</g>
					<g>
						<rect x="184.02" y="227.34" class="st11" width="34.54" height="1.84"/>
					</g>
				</g>
			</g>
		</g>
		<g>
			<g>
				<path class="st2" d="M173.97,172.27c0,0.88-0.71,1.59-1.59,1.59c-0.88,0-1.59-0.71-1.59-1.59c0-0.88,0.71-1.59,1.59-1.59
					C173.25,170.68,173.97,171.39,173.97,172.27z"/>
				<path class="st7" d="M172.37,174.37c-1.15,0-2.1-0.94-2.1-2.1c0-1.15,0.94-2.1,2.1-2.1s2.1,0.94,2.1,2.1
					S173.53,174.37,172.37,174.37z M172.37,171.18c-0.6,0-1.09,0.49-1.09,1.09c0,0.6,0.49,1.09,1.09,1.09c0.6,0,1.09-0.49,1.09-1.09
					C173.46,171.67,172.97,171.18,172.37,171.18z"/>
			</g>
			<g>
				<path class="st2" d="M166.75,175.4c0,0.88-0.71,1.59-1.59,1.59c-0.88,0-1.59-0.71-1.59-1.59c0-0.88,0.71-1.59,1.59-1.59
					C166.04,173.8,166.75,174.51,166.75,175.4z"/>
				<path class="st7" d="M165.16,177.49c-1.16,0-2.1-0.94-2.1-2.1s0.94-2.1,2.1-2.1c1.15,0,2.1,0.94,2.1,2.1
					C167.25,176.55,166.31,177.49,165.16,177.49z M165.16,174.3c-0.6,0-1.09,0.49-1.09,1.09c0,0.6,0.49,1.09,1.09,1.09
					c0.6,0,1.09-0.49,1.09-1.09C166.25,174.79,165.76,174.3,165.16,174.3z"/>
			</g>
			<g>
				<path class="st2" d="M159.54,178.52c0,0.88-0.71,1.59-1.59,1.59c-0.88,0-1.59-0.71-1.59-1.59s0.71-1.59,1.59-1.59
					C158.83,176.93,159.54,177.64,159.54,178.52z"/>
				<path class="st7" d="M157.95,180.62c-1.16,0-2.1-0.94-2.1-2.1s0.94-2.1,2.1-2.1c1.15,0,2.1,0.94,2.1,2.1
					C160.04,179.67,159.1,180.62,157.95,180.62z M157.95,177.43c-0.6,0-1.09,0.49-1.09,1.09c0,0.6,0.49,1.09,1.09,1.09
					c0.6,0,1.09-0.49,1.09-1.09S158.55,177.43,157.95,177.43z"/>
			</g>
			<g>
				<path class="st2" d="M152.33,181.64c0,0.88-0.71,1.59-1.59,1.59c-0.88,0-1.59-0.71-1.59-1.59c0-0.88,0.71-1.59,1.59-1.59
					C151.61,180.05,152.33,180.76,152.33,181.64z"/>
				<path class="st7" d="M150.73,183.74c-1.15,0-2.1-0.94-2.1-2.1c0-1.15,0.94-2.1,2.1-2.1s2.1,0.94,2.1,2.1
					S151.89,183.74,150.73,183.74z M150.73,180.55c-0.6,0-1.09,0.49-1.09,1.09c0,0.6,0.49,1.09,1.09,1.09c0.6,0,1.09-0.49,1.09-1.09
					C151.83,181.04,151.34,180.55,150.73,180.55z"/>
			</g>
		</g>
	</g>
</g>
</svg>
