<?xml version="1.0" encoding="utf-8"?>
<!-- Generator: Adobe Illustrator 23.0.1, SVG Export Plug-In . SVG Version: 6.00 Build 0)  -->
<svg version="1.1" id="Layer_1" xmlns="http://www.w3.org/2000/svg" xmlns:xlink="http://www.w3.org/1999/xlink" x="0px" y="0px"
	 viewBox="0 0 375 170" style="enable-background:new 0 0 375 170;" xml:space="preserve">
<style type="text/css">
	.st0{opacity:0.5;clip-path:url(#SVGID_2_);}
	.st1{fill:#A267F4;}
</style>
<g>
	<defs>
		<rect id="SVGID_1_" width="375" height="169"/>
	</defs>
	<clipPath id="SVGID_2_">
		<use xlink:href="#SVGID_1_"  style="overflow:visible;"/>
	</clipPath>
	<g class="st0">
		<path class="st1" d="M377.28,143.04l0.04,0.23c-3.52,1.09-7.11,1.99-10.75,2.69c-2.62,0.5-5.27,0.9-7.94,1.2
			c-11.99,1.34-24.45,0.57-37.02-2.27c-25.5-5.77-43.39-20.14-62.33-35.35c-21.43-17.21-43.59-35-77.91-39.58
			c-41.28-5.51-75.82,16.76-109.21,38.29c-4.82,3.11-9.82,6.33-14.7,9.38C37.88,129.83,19.1,135.12,6.8,137.4
			c-4.66,0.86-8.76,1.37-12.14,1.67l-0.04-0.22c3.37-0.3,7.48-0.81,12.14-1.68c12.27-2.28,31.02-7.55,50.58-19.75
			c4.88-3.04,9.87-6.26,14.7-9.37c33.43-21.55,68-43.84,109.36-38.33c34.39,4.59,56.57,22.41,78.03,39.63
			c18.92,15.2,36.79,29.55,62.24,35.31C344.57,149.85,363.56,147.26,377.28,143.04z"/>
	</g>
	<g class="st0">
		<path class="st1" d="M378.28,148.2l0.06,0.32c-3.26,1-6.81,1.91-10.64,2.64c-12.35,2.37-27.57,2.94-45.09-1.02
			c-25.51-5.77-43.4-20.14-62.35-35.36c-21.42-17.2-43.58-34.99-77.9-39.57c-41.26-5.51-75.79,16.75-109.17,38.28
			c-4.83,3.11-9.82,6.33-14.71,9.38C33.1,138.71,8.81,143.12-4.33,144.31L-4.39,144c13.09-1.18,37.34-5.57,62.71-21.39
			c4.88-3.05,9.87-6.26,14.7-9.37c33.44-21.56,68.01-43.85,109.39-38.33c34.4,4.59,56.59,22.41,78.05,39.64
			c18.92,15.19,36.79,29.54,62.23,35.3C345.57,155.01,364.56,152.43,378.28,148.2z"/>
	</g>
	<g class="st0">
		<path class="st1" d="M379.27,153.37l0.08,0.41c-3.26,1-6.81,1.91-10.64,2.65c-12.35,2.37-27.59,2.94-45.1-1.02
			c-25.52-5.77-43.42-20.15-62.38-35.37c-21.42-17.2-43.57-34.98-77.87-39.56c-41.24-5.5-75.76,16.75-109.14,38.28
			c-4.82,3.11-9.82,6.33-14.7,9.37c-25.4,15.84-49.69,20.25-62.83,21.44l-0.08-0.41c13.09-1.18,37.33-5.57,62.69-21.38
			c4.88-3.04,9.87-6.26,14.7-9.38c33.45-21.56,68.03-43.86,109.43-38.34c34.42,4.59,56.61,22.41,78.07,39.64
			c18.91,15.19,36.78,29.54,62.2,35.29C346.58,160.18,365.56,157.59,379.27,153.37z"/>
	</g>
	<g class="st0">
		<path class="st1" d="M380.26,158.54l0.1,0.51c-3.26,1-6.81,1.91-10.64,2.64c-12.36,2.37-27.59,2.95-45.12-1.02
			c-25.53-5.78-43.44-20.16-62.39-35.38c-21.41-17.19-43.55-34.97-77.85-39.55c-41.22-5.5-75.74,16.75-109.11,38.26
			c-4.83,3.12-9.82,6.33-14.71,9.38c-25.4,15.84-49.7,20.25-62.85,21.45l-0.1-0.51c13.08-1.18,37.32-5.57,62.67-21.38
			c4.88-3.04,9.87-6.26,14.7-9.37c33.45-21.57,68.05-43.87,109.46-38.35c34.43,4.59,56.63,22.42,78.1,39.66
			c18.91,15.19,36.77,29.52,62.19,35.28C347.58,165.34,366.56,162.76,380.26,158.54z"/>
	</g>
	<g class="st0">
		<path class="st1" d="M381.25,163.7l0.12,0.6c-3.26,1-6.81,1.91-10.64,2.64c-12.37,2.38-27.61,2.95-45.14-1.02
			c-25.54-5.78-43.45-20.16-62.42-35.39c-21.41-17.19-43.54-34.96-77.82-39.54c-41.21-5.5-75.71,16.75-109.08,38.26
			c-4.83,3.12-9.82,6.33-14.71,9.38c-25.4,15.84-49.71,20.26-62.87,21.46l-0.12-0.6c13.07-1.18,37.3-5.57,62.66-21.37
			c4.88-3.04,9.87-6.26,14.7-9.37C109.41,107.18,144,84.87,185.44,90.4c34.45,4.59,56.65,22.42,78.12,39.67
			c18.91,15.18,36.76,29.52,62.17,35.27C348.59,170.51,367.55,167.92,381.25,163.7z"/>
	</g>
</g>
</svg>
