<?xml version="1.0" encoding="utf-8"?>
<!-- Generator: Adobe Illustrator 23.0.1, SVG Export Plug-In . SVG Version: 6.00 Build 0)  -->
<svg version="1.1" id="Layer_1" xmlns="http://www.w3.org/2000/svg" xmlns:xlink="http://www.w3.org/1999/xlink" x="0px" y="0px"
	 viewBox="0 0 308 661" style="enable-background:new 0 0 308 661;" xml:space="preserve">
<style type="text/css">
	.st0{opacity:0.42;clip-path:url(#SVGID_2_);}
	.st1{fill:url(#SVGID_3_);}
	.st2{fill:url(#SVGID_4_);}
	.st3{opacity:0.54;clip-path:url(#SVGID_2_);}
	.st4{fill:#FFFFFF;}
	.st5{opacity:0.65;clip-path:url(#SVGID_2_);}
	.st6{opacity:0.32;clip-path:url(#SVGID_2_);}
	.st7{opacity:0.15;clip-path:url(#SVGID_2_);}
	.st8{opacity:0.21;clip-path:url(#SVGID_2_);}
</style>
<g>
	<defs>
		<rect id="SVGID_1_" width="308" height="661"/>
	</defs>
	<clipPath id="SVGID_2_">
		<use xlink:href="#SVGID_1_"  style="overflow:visible;"/>
	</clipPath>
	<g class="st0">
		<linearGradient id="SVGID_3_" gradientUnits="userSpaceOnUse" x1="-254" y1="331" x2="148" y2="331">
			<stop  offset="0" style="stop-color:#7B1FA2"/>
			<stop  offset="1" style="stop-color:#AB6AFF"/>
		</linearGradient>
		<circle class="st1" cx="-53" cy="331" r="201"/>
	</g>
	<g class="st0">
		<linearGradient id="SVGID_4_" gradientUnits="userSpaceOnUse" x1="-233" y1="331" x2="73" y2="331">
			<stop  offset="0" style="stop-color:#7B1FA2"/>
			<stop  offset="1" style="stop-color:#AB6AFF"/>
		</linearGradient>
		<circle class="st2" cx="-80" cy="331" r="153"/>
	</g>
	<g id="XMLID_267_" class="st3">
		<path id="XMLID_268_" class="st4" d="M25.32,60.22c-0.03-0.01-0.06,0-0.09,0c-0.03,0-0.05-0.01-0.08,0
			c-0.02,0.01-0.04,0.03-0.07,0.04c-0.03,0.02-0.06,0.02-0.08,0.05L11.9,74.01c-0.08,0.08-0.11,0.2-0.08,0.32l5.38,18.27
			c0.03,0.08,0.09,0.14,0.16,0.18c0.02,0.01,0.04,0.03,0.07,0.04l0,0l0,0l18.44,4.4c0.11,0.03,0.23-0.01,0.31-0.09l13.11-13.7l0,0
			l0,0c0.04-0.04,0.07-0.09,0.08-0.15c0,0,0-0.01,0-0.02c0-0.01-0.01-0.02-0.01-0.03c0-0.04,0.01-0.08,0-0.12l-5.39-18.27
			c-0.03-0.11-0.12-0.2-0.23-0.22L25.32,60.22z M12.5,74.32l12.59-13.16l1.86,6.3l3.32,11.26L17.67,91.88L12.5,74.32z M35.85,96.55
			l-17.71-4.23l12.59-13.15l4.64,1.11l13.07,3.12L35.85,96.55z M48.6,82.77l-15.26-3.64l-2.46-0.59l-5.17-17.56l17.72,4.23
			L48.6,82.77z"/>
	</g>
	<g id="XMLID_1_" class="st5">
		<path id="XMLID_2_" class="st4" d="M159.58,594.48c-0.03-0.01-0.06-0.01-0.08-0.02c-0.03-0.01-0.05-0.02-0.08-0.02
			c-0.03,0-0.05,0.01-0.07,0.02c-0.03,0.01-0.06,0.01-0.09,0.02l-16.36,9.59c-0.1,0.06-0.16,0.17-0.16,0.28l0.18,19.05
			c0,0.09,0.05,0.16,0.11,0.22c0.02,0.02,0.03,0.04,0.06,0.06l0,0l0,0l16.53,9.28c0.1,0.05,0.22,0.05,0.32,0l16.35-9.59l0,0l0,0
			c0.05-0.03,0.09-0.07,0.12-0.12c0,0,0-0.01,0.01-0.01c0.01-0.01,0-0.02,0-0.03c0.02-0.04,0.03-0.07,0.03-0.12l-0.18-19.05
			c0-0.12-0.06-0.22-0.16-0.28L159.58,594.48z M143.39,604.54l15.71-9.21l0.06,6.57l0.11,11.74l-15.71,9.21L143.39,604.54z
			 M159.77,632.3l-15.88-8.91l15.71-9.21l4.16,2.33l11.72,6.58L159.77,632.3z M175.8,622.54l-13.68-7.67l-2.21-1.24l-0.17-18.3
			l15.88,8.91L175.8,622.54z"/>
	</g>
	<g class="st6">
		<path id="XMLID_218_" class="st4" d="M91.02,528.43c-0.01-0.81-0.68-1.46-1.49-1.45c-0.81,0.01-1.45,0.68-1.44,1.49
			c0.01,0.81,0.68,1.46,1.48,1.45C90.39,529.91,91.04,529.25,91.02,528.43z"/>
		<path id="XMLID_217_" class="st4" d="M39.02,529.13c-0.01-0.81-0.67-1.46-1.48-1.45c-0.81,0.01-1.45,0.68-1.44,1.49
			c0.01,0.81,0.67,1.46,1.48,1.45C38.38,530.6,39.03,529.94,39.02,529.13z"/>
		<path id="XMLID_216_" class="st4" d="M47.63,524.68c-0.01-0.81-0.68-1.46-1.49-1.45c-0.81,0.01-1.45,0.68-1.44,1.49
			c0.01,0.81,0.67,1.46,1.48,1.45S47.64,525.49,47.63,524.68z"/>
		<path id="XMLID_215_" class="st4" d="M30.29,524.91c-0.01-0.81-0.67-1.46-1.48-1.45c-0.81,0.01-1.46,0.68-1.45,1.49
			c0.01,0.81,0.68,1.46,1.49,1.45C29.66,526.39,30.3,525.72,30.29,524.91z"/>
		<path id="XMLID_214_" class="st4" d="M73.69,528.67c-0.01-0.81-0.68-1.46-1.49-1.45c-0.81,0.01-1.45,0.68-1.44,1.49
			c0.01,0.81,0.67,1.46,1.48,1.45C73.05,530.14,73.7,529.48,73.69,528.67z"/>
		<path id="XMLID_213_" class="st4" d="M65.08,533.12c-0.01-0.81-0.68-1.46-1.49-1.45c-0.81,0.01-1.46,0.68-1.44,1.49
			c0.01,0.81,0.67,1.46,1.48,1.45C64.44,534.59,65.09,533.93,65.08,533.12z"/>
		<path id="XMLID_212_" class="st4" d="M56.36,528.9c-0.01-0.81-0.68-1.46-1.49-1.45c-0.81,0.01-1.45,0.68-1.44,1.49
			c0.01,0.81,0.67,1.46,1.48,1.45C55.72,530.37,56.37,529.71,56.36,528.9z"/>
		<path id="XMLID_211_" class="st4" d="M64.96,524.45c-0.01-0.81-0.68-1.46-1.49-1.45c-0.81,0.01-1.46,0.68-1.44,1.49
			c0.01,0.81,0.67,1.46,1.48,1.45C64.33,525.92,64.98,525.26,64.96,524.45z"/>
		<path id="XMLID_210_" class="st4" d="M82.41,532.88c-0.01-0.81-0.68-1.46-1.49-1.45c-0.81,0.01-1.45,0.68-1.44,1.49
			c0.01,0.81,0.67,1.46,1.48,1.45C81.78,534.36,82.43,533.69,82.41,532.88z"/>
		<path id="XMLID_209_" class="st4" d="M82.3,524.22c-0.01-0.81-0.68-1.46-1.49-1.45c-0.81,0.01-1.45,0.68-1.44,1.49
			c0.01,0.81,0.67,1.46,1.48,1.45C81.66,525.69,82.31,525.03,82.3,524.22z"/>
		<path id="XMLID_208_" class="st4" d="M90.92,520.91c-0.01-0.96-0.68-1.73-1.49-1.71c-0.81,0.01-1.45,0.8-1.44,1.75
			c0.01,0.96,0.68,1.73,1.49,1.71C90.29,522.65,90.94,521.87,90.92,520.91z"/>
		<path id="XMLID_207_" class="st4" d="M47.51,516.01c-0.01-0.81-0.68-1.46-1.49-1.45c-0.81,0.01-1.45,0.68-1.44,1.49
			c0.01,0.81,0.67,1.46,1.48,1.45C46.88,517.49,47.53,516.82,47.51,516.01z"/>
		<path id="XMLID_206_" class="st4" d="M30.17,516.24c-0.01-0.81-0.67-1.46-1.48-1.45c-0.81,0.01-1.46,0.68-1.45,1.49
			c0.01,0.81,0.68,1.46,1.49,1.45C29.54,517.72,30.19,517.05,30.17,516.24z"/>
		<path id="XMLID_205_" class="st4" d="M73.57,520c-0.01-0.81-0.68-1.46-1.49-1.45c-0.81,0.01-1.45,0.68-1.44,1.49
			c0.01,0.81,0.67,1.46,1.48,1.45C72.94,521.47,73.58,520.81,73.57,520z"/>
		<path id="XMLID_204_" class="st4" d="M99.63,523.99c-0.01-0.81-0.68-1.46-1.49-1.45c-0.81,0.01-1.45,0.68-1.44,1.49
			c0.01,0.81,0.68,1.46,1.48,1.45C99,525.46,99.64,524.8,99.63,523.99z"/>
		<path id="XMLID_203_" class="st4" d="M56.24,520.23c-0.01-0.81-0.68-1.46-1.49-1.45c-0.81,0.01-1.45,0.68-1.44,1.49
			c0.01,0.81,0.67,1.46,1.48,1.45C55.6,521.71,56.25,521.04,56.24,520.23z"/>
		<path id="XMLID_202_" class="st4" d="M38.9,520.46c-0.01-0.81-0.67-1.46-1.48-1.45c-0.81,0.01-1.45,0.68-1.44,1.49
			c0.01,0.81,0.67,1.46,1.48,1.45C38.27,521.94,38.91,521.27,38.9,520.46z"/>
		<path id="XMLID_201_" class="st4" d="M73.81,537.33c-0.01-0.81-0.68-1.46-1.49-1.45c-0.81,0.01-1.45,0.68-1.44,1.49
			c0.01,0.81,0.67,1.46,1.48,1.45C73.17,538.81,73.82,538.14,73.81,537.33z"/>
		<path id="XMLID_200_" class="st4" d="M30.41,533.58c-0.01-0.81-0.67-1.46-1.48-1.45c-0.81,0.01-1.46,0.68-1.45,1.49
			c0.01,0.81,0.68,1.46,1.49,1.45C29.77,535.05,30.42,534.39,30.41,533.58z"/>
		<path id="XMLID_199_" class="st4" d="M30.64,550.91c-0.01-0.81-0.67-1.45-1.48-1.44c-0.81,0.01-1.46,0.68-1.45,1.48
			c0.01,0.81,0.68,1.46,1.49,1.45C30,552.39,30.65,551.72,30.64,550.91z"/>
		<path id="XMLID_198_" class="st4" d="M56.59,546.23c-0.01-0.81-0.68-1.45-1.49-1.44c-0.81,0.01-1.45,0.67-1.44,1.48
			c0.01,0.81,0.67,1.46,1.48,1.45C55.95,547.71,56.6,547.04,56.59,546.23z"/>
		<path id="XMLID_197_" class="st4" d="M47.86,542.01c-0.01-0.81-0.68-1.45-1.49-1.44c-0.81,0.01-1.45,0.67-1.44,1.48
			c0.01,0.81,0.67,1.46,1.48,1.45C47.22,543.49,47.87,542.83,47.86,542.01z"/>
		<path id="XMLID_196_" class="st4" d="M47.98,550.68c-0.01-0.81-0.68-1.45-1.49-1.44c-0.81,0.01-1.45,0.68-1.44,1.48
			c0.01,0.81,0.67,1.46,1.48,1.45S47.99,551.49,47.98,550.68z"/>
		<path id="XMLID_195_" class="st4" d="M39.25,546.46c-0.01-0.81-0.67-1.45-1.48-1.44c-0.81,0.01-1.45,0.68-1.44,1.48
			c0.01,0.81,0.67,1.46,1.48,1.45C38.61,547.94,39.26,547.27,39.25,546.46z"/>
		<path id="XMLID_194_" class="st4" d="M39.13,537.8c-0.01-0.81-0.67-1.46-1.48-1.45c-0.81,0.01-1.45,0.68-1.44,1.49
			c0.01,0.81,0.67,1.46,1.48,1.45C38.5,539.27,39.14,538.61,39.13,537.8z"/>
		<path id="XMLID_193_" class="st4" d="M64.85,515.78c-0.01-0.81-0.68-1.46-1.49-1.45c-0.81,0.01-1.46,0.68-1.44,1.49
			c0.01,0.81,0.67,1.46,1.48,1.45C64.21,517.26,64.86,516.59,64.85,515.78z"/>
		<path id="XMLID_192_" class="st4" d="M30.52,542.25c-0.01-0.81-0.67-1.45-1.48-1.44c-0.81,0.01-1.46,0.67-1.45,1.48
			c0.01,0.81,0.68,1.46,1.49,1.45C29.89,543.72,30.53,543.06,30.52,542.25z"/>
		<path id="XMLID_191_" class="st4" d="M47.75,533.35c-0.01-0.81-0.68-1.46-1.49-1.45c-0.81,0.01-1.45,0.68-1.44,1.49
			c0.01,0.81,0.67,1.46,1.48,1.45S47.76,534.16,47.75,533.35z"/>
		<path id="XMLID_190_" class="st4" d="M65.2,541.78c-0.01-0.81-0.68-1.45-1.49-1.44c-0.81,0.01-1.46,0.67-1.44,1.48
			c0.01,0.81,0.67,1.46,1.48,1.45C64.56,543.26,65.21,542.59,65.2,541.78z"/>
		<path id="XMLID_189_" class="st4" d="M56.47,537.57c-0.01-0.81-0.68-1.46-1.49-1.45c-0.81,0.01-1.45,0.68-1.44,1.49
			c0.01,0.81,0.67,1.46,1.48,1.45C55.83,539.04,56.48,538.38,56.47,537.57z"/>
		<path id="XMLID_188_" class="st4" d="M22.15,564.03c-0.01-0.81-0.68-1.46-1.49-1.44c-0.6,0.01-1.1,0.37-1.32,0.88l0.02,1.2
			c0.24,0.5,0.75,0.86,1.35,0.85C21.51,565.51,22.16,564.84,22.15,564.03z"/>
		<path id="XMLID_187_" class="st4" d="M21.57,520.69c-0.01-0.81-0.68-1.46-1.49-1.45c-0.6,0.01-1.1,0.37-1.32,0.88l0.02,1.2
			c0.24,0.51,0.75,0.86,1.35,0.85C20.93,522.17,21.58,521.5,21.57,520.69z"/>
		<path id="XMLID_186_" class="st4" d="M21.45,512.03c-0.01-0.81-0.68-1.46-1.49-1.45c-0.6,0.01-1.1,0.37-1.32,0.88l0.02,1.2
			c0.24,0.51,0.75,0.86,1.35,0.85C20.82,513.5,21.47,512.84,21.45,512.03z"/>
		<path id="XMLID_185_" class="st4" d="M21.69,529.36c-0.01-0.81-0.68-1.46-1.49-1.45c-0.6,0.01-1.1,0.37-1.32,0.88l0.02,1.2
			c0.24,0.51,0.75,0.86,1.35,0.85C21.05,530.84,21.7,530.17,21.69,529.36z"/>
		<path id="XMLID_184_" class="st4" d="M21.8,538.03c-0.01-0.81-0.68-1.46-1.49-1.45c-0.6,0.01-1.1,0.37-1.32,0.88l0.02,1.2
			c0.24,0.5,0.75,0.85,1.35,0.85C21.16,539.5,21.81,538.84,21.8,538.03z"/>
		<path id="XMLID_183_" class="st4" d="M21.22,494.69c-0.01-0.81-0.68-1.46-1.49-1.45c-0.6,0.01-1.1,0.37-1.32,0.88l0.02,1.2
			c0.24,0.51,0.75,0.85,1.35,0.84C20.58,496.16,21.23,495.5,21.22,494.69z"/>
		<path id="XMLID_24_" class="st4" d="M21.34,503.36c-0.01-0.81-0.68-1.46-1.49-1.45c-0.6,0.01-1.1,0.37-1.32,0.88l0.02,1.2
			c0.24,0.51,0.75,0.85,1.35,0.85C20.7,504.83,21.35,504.17,21.34,503.36z"/>
		<path id="XMLID_23_" class="st4" d="M21.11,486.02c-0.01-0.81-0.68-1.46-1.49-1.45c-0.6,0.01-1.1,0.37-1.32,0.88l0.02,1.2
			c0.24,0.5,0.75,0.85,1.35,0.85C20.47,487.5,21.12,486.83,21.11,486.02z"/>
		<path id="XMLID_22_" class="st4" d="M21.92,546.7c-0.01-0.81-0.68-1.45-1.49-1.44c-0.6,0.01-1.1,0.37-1.32,0.88l0.02,1.2
			c0.24,0.5,0.75,0.86,1.35,0.85C21.28,548.17,21.93,547.51,21.92,546.7z"/>
		<path id="XMLID_21_" class="st4" d="M22.03,555.36c-0.01-0.81-0.68-1.45-1.49-1.44c-0.6,0.01-1.1,0.37-1.32,0.88l0.02,1.2
			c0.24,0.5,0.75,0.86,1.35,0.85C21.39,556.84,22.04,556.17,22.03,555.36z"/>
		<path id="XMLID_20_" class="st4" d="M39.36,555.13c-0.01-0.81-0.67-1.45-1.48-1.44c-0.81,0.01-1.45,0.68-1.44,1.48
			c0.01,0.81,0.67,1.46,1.48,1.45C38.73,556.61,39.37,555.94,39.36,555.13z"/>
		<path id="XMLID_19_" class="st4" d="M30.75,559.58c-0.01-0.81-0.67-1.45-1.48-1.44c-0.81,0.01-1.46,0.67-1.45,1.48
			c0.01,0.81,0.68,1.46,1.49,1.45C30.12,561.06,30.76,560.39,30.75,559.58z"/>
		<path id="XMLID_18_" class="st4" d="M29.94,498.91c-0.01-0.81-0.67-1.46-1.48-1.45c-0.81,0.01-1.46,0.68-1.45,1.49
			c0.01,0.81,0.68,1.45,1.49,1.44C29.31,500.38,29.95,499.72,29.94,498.91z"/>
		<path id="XMLID_17_" class="st4" d="M64.73,507.11c-0.01-0.81-0.68-1.46-1.49-1.45c-0.81,0.01-1.46,0.67-1.44,1.49
			c0.01,0.81,0.67,1.46,1.48,1.44C64.09,508.59,64.74,507.92,64.73,507.11z"/>
		<path id="XMLID_16_" class="st4" d="M73.46,511.33c-0.01-0.81-0.68-1.46-1.49-1.45c-0.81,0.01-1.45,0.67-1.44,1.49
			c0.01,0.81,0.67,1.46,1.48,1.45C72.82,512.81,73.47,512.14,73.46,511.33z"/>
		<path id="XMLID_15_" class="st4" d="M30.06,507.58c-0.01-0.81-0.67-1.46-1.48-1.45c-0.81,0.01-1.46,0.67-1.45,1.49
			c0.01,0.81,0.68,1.46,1.49,1.44C29.43,509.05,30.07,508.39,30.06,507.58z"/>
		<path id="XMLID_14_" class="st4" d="M47.4,507.35c-0.01-0.81-0.68-1.46-1.49-1.45c-0.81,0.01-1.45,0.67-1.44,1.49
			c0.01,0.81,0.67,1.46,1.48,1.44C46.76,508.82,47.41,508.16,47.4,507.35z"/>
		<path id="XMLID_13_" class="st4" d="M29.83,490.24c-0.01-0.81-0.67-1.46-1.48-1.45c-0.81,0.01-1.46,0.68-1.45,1.49
			c0.01,0.81,0.68,1.46,1.49,1.44C29.19,491.71,29.84,491.05,29.83,490.24z"/>
		<path id="XMLID_12_" class="st4" d="M38.78,511.79c-0.01-0.81-0.67-1.46-1.48-1.45c-0.81,0.01-1.45,0.67-1.44,1.49
			c0.01,0.81,0.67,1.46,1.48,1.45C38.15,513.27,38.8,512.61,38.78,511.79z"/>
		<path id="XMLID_11_" class="st4" d="M56.12,511.56c-0.01-0.81-0.68-1.46-1.49-1.45c-0.81,0.01-1.45,0.67-1.44,1.49
			c0.01,0.81,0.67,1.46,1.48,1.45C55.49,513.04,56.13,512.37,56.12,511.56z"/>
		<path id="XMLID_10_" class="st4" d="M47.28,498.68c-0.01-0.81-0.68-1.46-1.49-1.45c-0.81,0.01-1.45,0.68-1.44,1.49
			c0.01,0.81,0.67,1.45,1.48,1.44C46.64,500.15,47.29,499.49,47.28,498.68z"/>
		<path id="XMLID_9_" class="st4" d="M38.55,494.46c-0.01-0.81-0.67-1.46-1.48-1.45c-0.81,0.01-1.45,0.68-1.44,1.49
			c0.01,0.81,0.67,1.45,1.48,1.44C37.92,495.93,38.56,495.27,38.55,494.46z"/>
		<path id="XMLID_8_" class="st4" d="M82.18,515.55c-0.01-0.81-0.68-1.46-1.49-1.45c-0.81,0.01-1.45,0.68-1.44,1.49
			c0.01,0.81,0.67,1.46,1.48,1.45C81.54,517.02,82.19,516.36,82.18,515.55z"/>
		<path id="XMLID_7_" class="st4" d="M38.67,503.13c-0.01-0.81-0.67-1.46-1.48-1.45c-0.81,0.01-1.45,0.68-1.44,1.49
			c0.01,0.81,0.67,1.45,1.48,1.44C38.03,504.6,38.68,503.94,38.67,503.13z"/>
		<path id="XMLID_6_" class="st4" d="M56.01,502.9c-0.01-0.81-0.68-1.46-1.49-1.45c-0.81,0.01-1.45,0.68-1.44,1.49
			c0.01,0.81,0.67,1.45,1.48,1.44C55.37,504.37,56.02,503.7,56.01,502.9z"/>
	</g>
	<g class="st6">
		<path id="XMLID_80_" class="st4" d="M252.32,155.77c0.01,0.55,0.46,0.99,1.01,0.98c0.55-0.01,0.99-0.46,0.98-1.01
			c-0.01-0.55-0.46-0.99-1.01-0.98C252.76,154.76,252.32,155.21,252.32,155.77z"/>
		<path id="XMLID_79_" class="st4" d="M287.72,155.29c0.01,0.55,0.46,0.99,1.01,0.98c0.55-0.01,0.99-0.46,0.98-1.01
			c-0.01-0.55-0.46-0.99-1.01-0.98C288.15,154.29,287.71,154.74,287.72,155.29z"/>
		<path id="XMLID_78_" class="st4" d="M281.86,158.32c0.01,0.55,0.46,0.99,1.01,0.98c0.55-0.01,0.99-0.46,0.98-1.01
			c-0.01-0.55-0.46-0.99-1.01-0.98C282.29,157.32,281.85,157.77,281.86,158.32z"/>
		<path id="XMLID_77_" class="st4" d="M293.66,158.16c0.01,0.55,0.46,0.99,1.01,0.98c0.55-0.01,0.99-0.46,0.99-1.01
			c-0.01-0.55-0.46-0.99-1.01-0.98C294.09,157.16,293.65,157.61,293.66,158.16z"/>
		<path id="XMLID_76_" class="st4" d="M264.12,155.61c0.01,0.55,0.46,0.99,1.01,0.98c0.55-0.01,0.99-0.46,0.98-1.01
			c-0.01-0.55-0.46-0.99-1.01-0.98C264.55,154.6,264.11,155.06,264.12,155.61z"/>
		<path id="XMLID_75_" class="st4" d="M269.98,152.58c0.01,0.55,0.46,0.99,1.01,0.98c0.55-0.01,0.99-0.46,0.98-1.01
			c-0.01-0.55-0.46-0.99-1.01-0.98C270.41,151.58,269.97,152.03,269.98,152.58z"/>
		<path id="XMLID_74_" class="st4" d="M275.92,155.45c0.01,0.55,0.46,0.99,1.01,0.98c0.55-0.01,0.99-0.46,0.98-1.01
			c-0.01-0.55-0.46-0.99-1.01-0.98C276.35,154.45,275.91,154.9,275.92,155.45z"/>
		<path id="XMLID_73_" class="st4" d="M270.06,158.48c0.01,0.55,0.46,0.99,1.01,0.98c0.55-0.01,0.99-0.46,0.98-1.01
			c-0.01-0.55-0.46-0.99-1.01-0.98C270.49,157.47,270.05,157.93,270.06,158.48z"/>
		<path id="XMLID_72_" class="st4" d="M258.18,152.74c0.01,0.55,0.46,0.99,1.01,0.98c0.55-0.01,0.99-0.46,0.98-1.01
			c-0.01-0.55-0.46-0.99-1.01-0.98C258.62,151.73,258.17,152.19,258.18,152.74z"/>
		<path id="XMLID_71_" class="st4" d="M258.26,158.64c0.01,0.55,0.46,0.99,1.01,0.98c0.55-0.01,0.99-0.46,0.98-1.01
			c-0.01-0.55-0.46-0.99-1.01-0.98C258.7,157.63,258.25,158.08,258.26,158.64z"/>
		<path id="XMLID_70_" class="st4" d="M252.39,160.89c0.01,0.65,0.46,1.17,1.02,1.17c0.55-0.01,0.99-0.54,0.98-1.19
			c-0.01-0.65-0.46-1.17-1.01-1.17C252.82,159.7,252.38,160.23,252.39,160.89z"/>
		<path id="XMLID_69_" class="st4" d="M281.94,164.22c0.01,0.55,0.46,0.99,1.01,0.98c0.55-0.01,0.99-0.46,0.98-1.01
			c-0.01-0.55-0.46-0.99-1.01-0.98C282.37,163.22,281.93,163.67,281.94,164.22z"/>
		<path id="XMLID_68_" class="st4" d="M293.74,164.06c0.01,0.55,0.46,0.99,1.01,0.98c0.55-0.01,0.99-0.46,0.99-1.01
			c-0.01-0.55-0.46-0.99-1.01-0.98C294.17,163.06,293.73,163.51,293.74,164.06z"/>
		<path id="XMLID_67_" class="st4" d="M264.2,161.51c0.01,0.55,0.46,0.99,1.01,0.98c0.55-0.01,0.99-0.46,0.98-1.01
			c-0.01-0.55-0.46-0.99-1.01-0.98C264.63,160.5,264.19,160.95,264.2,161.51z"/>
		<path id="XMLID_66_" class="st4" d="M246.46,158.79c0.01,0.55,0.46,0.99,1.01,0.98c0.55-0.01,0.99-0.46,0.98-1.01
			c-0.01-0.55-0.46-0.99-1.01-0.98C246.9,157.79,246.46,158.24,246.46,158.79z"/>
		<path id="XMLID_65_" class="st4" d="M276,161.35c0.01,0.55,0.46,0.99,1.01,0.98c0.55-0.01,0.99-0.46,0.98-1.01
			c-0.01-0.55-0.46-0.99-1.01-0.98C276.43,160.35,275.99,160.8,276,161.35z"/>
		<path id="XMLID_64_" class="st4" d="M287.8,161.19c0.01,0.55,0.46,0.99,1.01,0.98c0.55-0.01,0.99-0.46,0.98-1.01
			c-0.01-0.55-0.46-0.99-1.01-0.98C288.23,160.19,287.79,160.64,287.8,161.19z"/>
		<path id="XMLID_63_" class="st4" d="M264.04,149.71c0.01,0.55,0.46,0.99,1.01,0.98c0.55-0.01,0.99-0.46,0.98-1.01
			c-0.01-0.55-0.46-0.99-1.01-0.98C264.48,148.7,264.03,149.16,264.04,149.71z"/>
		<path id="XMLID_62_" class="st4" d="M293.58,152.26c0.01,0.55,0.46,0.99,1.01,0.98c0.55-0.01,0.99-0.46,0.99-1.01
			c-0.01-0.55-0.46-0.99-1.01-0.98C294.01,151.26,293.57,151.71,293.58,152.26z"/>
		<path id="XMLID_61_" class="st4" d="M293.42,140.47c0.01,0.55,0.46,0.99,1.01,0.98c0.55-0.01,0.99-0.46,0.99-1.01
			c-0.01-0.55-0.46-0.99-1.01-0.99C293.85,139.46,293.41,139.91,293.42,140.47z"/>
		<path id="XMLID_60_" class="st4" d="M275.76,143.65c0.01,0.55,0.46,0.99,1.01,0.98c0.55-0.01,0.99-0.46,0.98-1.01
			c-0.01-0.55-0.46-0.99-1.01-0.99C276.19,142.65,275.75,143.1,275.76,143.65z"/>
		<path id="XMLID_59_" class="st4" d="M281.7,146.52c0.01,0.55,0.46,0.99,1.01,0.98s0.99-0.46,0.98-1.01
			c-0.01-0.55-0.46-0.99-1.01-0.98C282.13,145.52,281.69,145.97,281.7,146.52z"/>
		<path id="XMLID_58_" class="st4" d="M281.62,140.62c0.01,0.55,0.46,0.99,1.01,0.98c0.55-0.01,0.99-0.46,0.98-1.01
			c-0.01-0.55-0.46-0.99-1.01-0.99C282.05,139.62,281.61,140.07,281.62,140.62z"/>
		<path id="XMLID_57_" class="st4" d="M287.56,143.49c0.01,0.55,0.46,0.99,1.01,0.98c0.55-0.01,0.99-0.46,0.98-1.01
			c-0.01-0.55-0.46-0.99-1.01-0.99C287.99,142.49,287.55,142.94,287.56,143.49z"/>
		<path id="XMLID_56_" class="st4" d="M287.64,149.39c0.01,0.55,0.46,0.99,1.01,0.98c0.55-0.01,0.99-0.46,0.98-1.01
			c-0.01-0.55-0.46-0.99-1.01-0.98C288.07,148.39,287.63,148.84,287.64,149.39z"/>
		<path id="XMLID_55_" class="st4" d="M270.14,164.38c0.01,0.55,0.46,0.99,1.01,0.98c0.55-0.01,0.99-0.46,0.98-1.01
			c-0.01-0.55-0.46-0.99-1.01-0.98C270.57,163.37,270.13,163.83,270.14,164.38z"/>
		<path id="XMLID_54_" class="st4" d="M293.5,146.37c0.01,0.55,0.46,0.99,1.01,0.98c0.55-0.01,0.99-0.46,0.99-1.01
			c-0.01-0.55-0.46-0.99-1.01-0.98C293.93,145.36,293.49,145.81,293.5,146.37z"/>
		<path id="XMLID_53_" class="st4" d="M281.78,152.42c0.01,0.55,0.46,0.99,1.01,0.98s0.99-0.46,0.98-1.01
			c-0.01-0.55-0.46-0.99-1.01-0.98S281.77,151.87,281.78,152.42z"/>
		<path id="XMLID_52_" class="st4" d="M269.9,146.68c0.01,0.55,0.46,0.99,1.01,0.98c0.55-0.01,0.99-0.46,0.98-1.01
			c-0.01-0.55-0.46-0.99-1.01-0.98C270.34,145.68,269.89,146.13,269.9,146.68z"/>
		<path id="XMLID_51_" class="st4" d="M275.84,149.55c0.01,0.55,0.46,0.99,1.01,0.98c0.55-0.01,0.99-0.46,0.98-1.01
			c-0.01-0.55-0.46-0.99-1.01-0.98C276.27,148.55,275.83,149,275.84,149.55z"/>
		<path id="XMLID_50_" class="st4" d="M299.2,131.54c0.01,0.55,0.46,0.99,1.01,0.98c0.41-0.01,0.75-0.25,0.9-0.6l-0.01-0.82
			c-0.16-0.34-0.51-0.58-0.92-0.58C299.63,130.53,299.19,130.99,299.2,131.54z"/>
		<path id="XMLID_49_" class="st4" d="M299.59,161.03c0.01,0.55,0.46,0.99,1.01,0.98c0.41-0.01,0.75-0.25,0.9-0.6l-0.01-0.82
			c-0.16-0.35-0.51-0.58-0.92-0.58C300.03,160.03,299.59,160.48,299.59,161.03z"/>
		<path id="XMLID_48_" class="st4" d="M299.67,166.93c0.01,0.55,0.46,0.99,1.01,0.98c0.41-0.01,0.75-0.25,0.9-0.6l-0.01-0.82
			c-0.16-0.35-0.51-0.58-0.92-0.58C300.11,165.93,299.66,166.38,299.67,166.93z"/>
		<path id="XMLID_47_" class="st4" d="M299.51,155.13c0.01,0.55,0.46,0.99,1.01,0.98c0.41-0.01,0.75-0.25,0.9-0.6l-0.01-0.82
			c-0.16-0.35-0.51-0.58-0.92-0.58C299.95,154.13,299.51,154.58,299.51,155.13z"/>
		<path id="XMLID_46_" class="st4" d="M299.44,149.24c0.01,0.55,0.46,0.99,1.01,0.98c0.41-0.01,0.75-0.25,0.9-0.6l-0.01-0.82
			c-0.16-0.34-0.51-0.58-0.92-0.58C299.87,148.23,299.43,148.68,299.44,149.24z"/>
		<path id="XMLID_45_" class="st4" d="M299.83,178.73c0.01,0.55,0.46,0.99,1.01,0.99c0.41-0.01,0.75-0.25,0.9-0.6l-0.01-0.82
			c-0.16-0.34-0.51-0.58-0.92-0.58C300.26,177.73,299.82,178.18,299.83,178.73z"/>
		<path id="XMLID_44_" class="st4" d="M299.75,172.83c0.01,0.55,0.46,0.99,1.01,0.99c0.41-0.01,0.75-0.25,0.9-0.6l-0.01-0.82
			c-0.16-0.35-0.51-0.58-0.92-0.58C300.18,171.83,299.74,172.28,299.75,172.83z"/>
		<path id="XMLID_43_" class="st4" d="M299.91,184.63c0.01,0.55,0.46,0.99,1.01,0.99c0.41-0.01,0.75-0.25,0.9-0.6l-0.01-0.82
			c-0.16-0.34-0.51-0.58-0.92-0.58C300.34,183.63,299.9,184.08,299.91,184.63z"/>
		<path id="XMLID_42_" class="st4" d="M299.36,143.34c0.01,0.55,0.46,0.99,1.01,0.98c0.41-0.01,0.75-0.25,0.9-0.6l-0.01-0.82
			c-0.16-0.34-0.51-0.58-0.92-0.58C299.79,142.33,299.35,142.79,299.36,143.34z"/>
		<path id="XMLID_41_" class="st4" d="M299.28,137.44c0.01,0.55,0.46,0.99,1.01,0.98c0.41-0.01,0.75-0.25,0.9-0.6l-0.01-0.82
			c-0.16-0.34-0.51-0.58-0.92-0.58C299.71,136.43,299.27,136.89,299.28,137.44z"/>
		<path id="XMLID_40_" class="st4" d="M287.48,137.6c0.01,0.55,0.46,0.99,1.01,0.98c0.55-0.01,0.99-0.46,0.98-1.01
			c-0.01-0.55-0.46-0.99-1.01-0.99C287.91,136.59,287.48,137.04,287.48,137.6z"/>
		<path id="XMLID_39_" class="st4" d="M293.34,134.57c0.01,0.55,0.46,0.99,1.01,0.98c0.55-0.01,0.99-0.46,0.99-1.01
			c-0.01-0.55-0.46-0.99-1.01-0.99C293.77,133.56,293.34,134.02,293.34,134.57z"/>
		<path id="XMLID_38_" class="st4" d="M293.89,175.86c0.01,0.55,0.46,0.99,1.01,0.99c0.55-0.01,0.99-0.46,0.99-1.01
			c-0.01-0.55-0.46-0.99-1.01-0.98C294.33,174.86,293.89,175.31,293.89,175.86z"/>
		<path id="XMLID_37_" class="st4" d="M270.22,170.28c0.01,0.55,0.46,0.99,1.01,0.98c0.55-0.01,0.99-0.46,0.98-1.01
			c-0.01-0.55-0.46-0.99-1.01-0.98C270.65,169.27,270.21,169.72,270.22,170.28z"/>
		<path id="XMLID_36_" class="st4" d="M264.28,167.41c0.01,0.55,0.46,0.99,1.01,0.98c0.55-0.01,0.99-0.46,0.98-1.01
			c-0.01-0.55-0.46-0.99-1.01-0.98C264.71,166.4,264.27,166.85,264.28,167.41z"/>
		<path id="XMLID_35_" class="st4" d="M293.82,169.96c0.01,0.55,0.46,0.99,1.01,0.98c0.55-0.01,0.99-0.46,0.99-1.01
			c-0.01-0.55-0.46-0.99-1.01-0.98C294.25,168.96,293.81,169.41,293.82,169.96z"/>
		<path id="XMLID_34_" class="st4" d="M282.01,170.12c0.01,0.55,0.46,0.99,1.01,0.98s0.99-0.46,0.98-1.01
			c-0.01-0.55-0.46-0.99-1.01-0.98C282.45,169.12,282.01,169.57,282.01,170.12z"/>
		<path id="XMLID_33_" class="st4" d="M293.97,181.76c0.01,0.55,0.46,0.99,1.01,0.99c0.55-0.01,0.99-0.46,0.99-1.01
			c-0.01-0.55-0.46-0.99-1.01-0.98C294.4,180.76,293.97,181.21,293.97,181.76z"/>
		<path id="XMLID_32_" class="st4" d="M287.88,167.09c0.01,0.55,0.46,0.99,1.01,0.98c0.55-0.01,0.99-0.46,0.98-1.01
			c-0.01-0.55-0.46-0.99-1.01-0.98C288.31,166.09,287.87,166.54,287.88,167.09z"/>
		<path id="XMLID_31_" class="st4" d="M276.08,167.25c0.01,0.55,0.46,0.99,1.01,0.98c0.55-0.01,0.99-0.46,0.98-1.01
			c-0.01-0.55-0.46-0.99-1.01-0.98C276.51,166.24,276.07,166.7,276.08,167.25z"/>
		<path id="XMLID_30_" class="st4" d="M282.09,176.02c0.01,0.55,0.46,0.99,1.01,0.99s0.99-0.46,0.98-1.01
			c-0.01-0.55-0.46-0.99-1.01-0.98S282.09,175.47,282.09,176.02z"/>
		<path id="XMLID_29_" class="st4" d="M288.03,178.89c0.01,0.55,0.46,0.99,1.01,0.99c0.55-0.01,0.99-0.46,0.98-1.01
			c-0.01-0.55-0.46-0.99-1.01-0.98C288.47,177.89,288.03,178.34,288.03,178.89z"/>
		<path id="XMLID_28_" class="st4" d="M258.34,164.53c0.01,0.55,0.46,0.99,1.01,0.98c0.55-0.01,0.99-0.46,0.98-1.01
			c-0.01-0.55-0.46-0.99-1.01-0.98C258.77,163.53,258.33,163.98,258.34,164.53z"/>
		<path id="XMLID_27_" class="st4" d="M287.96,172.99c0.01,0.55,0.46,0.99,1.01,0.99c0.55-0.01,0.99-0.46,0.98-1.01
			c-0.01-0.55-0.46-0.99-1.01-0.98C288.39,171.99,287.95,172.44,287.96,172.99z"/>
		<path id="XMLID_26_" class="st4" d="M276.15,173.15c0.01,0.55,0.46,0.99,1.01,0.99c0.55-0.01,0.99-0.46,0.98-1.01
			c-0.01-0.55-0.46-0.99-1.01-0.98C276.59,172.14,276.15,172.6,276.15,173.15z"/>
	</g>
	<g class="st7">
		<path class="st4" d="M361.56,499c-5.52,0-11.04-2.1-15.24-6.3L188.21,334.59c-8.41-8.41-8.41-22.08,0-30.49
			c4.07-4.07,9.49-6.31,15.24-6.31c5.76,0,11.17,2.24,15.24,6.31l158.11,158.11c4.07,4.07,6.31,9.49,6.31,15.24
			c0,5.76-2.24,11.17-6.31,15.24C372.61,496.9,367.09,499,361.56,499z M203.46,298.85c-5.47,0-10.62,2.13-14.49,6
			c-7.99,7.99-7.99,20.99,0,28.98l158.11,158.11c7.99,7.99,20.99,7.99,28.98,0c3.87-3.87,6-9.02,6-14.49c0-5.47-2.13-10.62-6-14.49
			L217.95,304.85C214.08,300.98,208.93,298.85,203.46,298.85z"/>
	</g>
	<g class="st8">
		<path class="st4" d="M388.56,571c-5.52,0-11.04-2.1-15.24-6.3L215.21,406.59c-8.41-8.41-8.41-22.08,0-30.49
			c4.07-4.07,9.49-6.31,15.24-6.31c5.76,0,11.17,2.24,15.24,6.31l158.11,158.11c4.07,4.07,6.31,9.49,6.31,15.24
			c0,5.76-2.24,11.17-6.31,15.24C399.61,568.9,394.09,571,388.56,571z M230.46,370.85c-5.47,0-10.62,2.13-14.49,6
			c-7.99,7.99-7.99,20.99,0,28.98l158.11,158.11c7.99,7.99,20.99,7.99,28.98,0c3.87-3.87,6-9.02,6-14.49c0-5.47-2.13-10.62-6-14.49
			L244.95,376.85C241.08,372.98,235.93,370.85,230.46,370.85z"/>
	</g>
	<g class="st8">
		<path class="st4" d="M423.56,647c-5.52,0-11.04-2.1-15.24-6.3L250.21,482.59c-8.41-8.41-8.41-22.08,0-30.49
			c4.07-4.07,9.49-6.31,15.24-6.31c5.76,0,11.17,2.24,15.24,6.31l158.11,158.11c4.07,4.07,6.31,9.49,6.31,15.24
			c0,5.76-2.24,11.17-6.31,15.24C434.61,644.9,429.09,647,423.56,647z M265.46,446.85c-5.47,0-10.62,2.13-14.49,6
			c-7.99,7.99-7.99,20.99,0,28.98l158.11,158.11c7.99,7.99,20.99,7.99,28.98,0c3.87-3.87,6-9.02,6-14.49c0-5.47-2.13-10.62-6-14.49
			L279.95,452.85C276.08,448.98,270.93,446.85,265.46,446.85z"/>
	</g>
</g>
</svg>
